<?xml version="1.0" encoding="UTF-8" standalone="no"?>
<!-- Created with Inkscape (http://www.inkscape.org/) -->

<svg
   xmlns:dc="http://purl.org/dc/elements/1.1/"
   xmlns:cc="http://creativecommons.org/ns#"
   xmlns:rdf="http://www.w3.org/1999/02/22-rdf-syntax-ns#"
   xmlns:svg="http://www.w3.org/2000/svg"
   xmlns="http://www.w3.org/2000/svg"
   xmlns:sodipodi="http://sodipodi.sourceforge.net/DTD/sodipodi-0.dtd"
   xmlns:inkscape="http://www.inkscape.org/namespaces/inkscape"
   width="67.733322mm"
   height="25.65402mm"
   viewBox="0 0 67.733322 25.65402"
   version="1.1"
   id="svg8"
   inkscape:version="0.92.3 (2405546, 2018-03-11)"
   sodipodi:docname="marseille.svg">
  <defs
     id="defs2" />
  <sodipodi:namedview
     id="base"
     pagecolor="#ffffff"
     bordercolor="#666666"
     borderopacity="1.0"
     inkscape:pageopacity="0.0"
     inkscape:pageshadow="2"
     inkscape:zoom="0.7"
     inkscape:cx="325.42333"
     inkscape:cy="-330.60014"
     inkscape:document-units="mm"
     inkscape:current-layer="layer1"
     showgrid="false"
     fit-margin-top="0"
     fit-margin-left="0"
     fit-margin-right="0"
     fit-margin-bottom="0"
     inkscape:pagecheckerboard="true"
     inkscape:window-width="1920"
     inkscape:window-height="1056"
     inkscape:window-x="1920"
     inkscape:window-y="24"
     inkscape:window-maximized="1" />
  <metadata
     id="metadata5">
    <rdf:RDF>
      <cc:Work
         rdf:about="">
        <dc:format>image/svg+xml</dc:format>
        <dc:type
           rdf:resource="http://purl.org/dc/dcmitype/StillImage" />
        <dc:title></dc:title>
      </cc:Work>
    </rdf:RDF>
  </metadata>
  <g
     inkscape:label="Layer 1"
     inkscape:groupmode="layer"
     id="layer1"
     transform="translate(-19.144497,-125.61204)">
    <path
       style="fill:#ffffff;stroke-width:0.08466666"
       d="m 19.144497,150.97192 v -0.29406 l 2.751708,-0.0234 2.751708,-0.0234 -4.1e-5,0.3175 -4.2e-5,0.3175 h -2.751666 -2.751667 z m 27.939999,-3.73547 c -0.262407,-0.11355 -0.666003,-0.49486 -0.674289,-0.63704 -0.0017,-0.0287 0.148151,-0.15231 0.332947,-0.2746 0.327859,-0.21697 0.338154,-0.21831 0.425274,-0.0555 0.268319,0.50136 1.186068,0.4718 1.186068,-0.0382 0,-0.24785 -0.199166,-0.41683 -0.743578,-0.63091 -0.245984,-0.0967 -0.543207,-0.23875 -0.660494,-0.3156 -0.627986,-0.41147 -0.607958,-1.59498 0.0326,-1.92622 0.621027,-0.32115 1.348325,-0.2297 1.853229,0.23301 l 0.298814,0.27384 -0.338154,0.22378 -0.338154,0.22378 -0.193889,-0.20639 c -0.277126,-0.29498 -0.806229,-0.29221 -0.94162,0.005 -0.133953,0.294 0.04386,0.46872 0.76493,0.75162 0.77512,0.30411 1.04583,0.59484 1.092238,1.17302 0.0294,0.36622 -3.5e-5,0.49958 -0.163899,0.7427 -0.109851,0.16299 -0.33232,0.36295 -0.494375,0.44437 -0.360752,0.18125 -1.035295,0.18755 -1.437645,0.0134 z M 27.18783,145.25354 v -2.05486 l 0.9168,0.0435 c 1.048562,0.0497 1.418926,0.18188 1.669253,0.59573 0.143511,0.23726 0.165613,0.43246 0.165613,1.46268 0,1.00889 -0.02343,1.22467 -0.154752,1.42524 -0.23564,0.35989 -0.663011,0.49734 -1.686747,0.54249 l -0.910167,0.0401 z m 1.693333,1.10178 c 0.146903,-0.1469 0.169334,-0.28222 0.169334,-1.02156 0,-1.10723 -0.115884,-1.34526 -0.656167,-1.34781 l -0.275167,-0.001 v 1.27 1.27 h 0.296334 c 0.183444,0 0.36084,-0.0645 0.465666,-0.16934 z m 1.778,-1.10066 v -2.032 h 1.298222 c 0.714023,0 1.315293,0.0171 1.336157,0.0379 0.02086,0.0209 0.02321,0.19231 0.0052,0.381 l -0.03271,0.34307 h -0.880108 -0.880106 v 0.42333 0.42333 h 0.635 0.635 v 0.381 0.381 h -0.635 -0.635 v 0.46567 0.46567 h 0.973666 0.973667 v 0.381 0.381 h -1.397 -1.397 z m 4.656667,0 v -2.032 h 0.580946 0.580945 l 0.308055,1.08197 c 0.169429,0.59508 0.308053,1.16658 0.308053,1.27 0,0.43285 0.144362,0.12147 0.413584,-0.89207 0.424051,-1.59642 0.328328,-1.4599 1.023654,-1.4599 h 0.594762 v 2.032 2.032 h -0.381 -0.381 l -0.0067,-1.62984 c -0.0039,-0.96202 -0.03485,-1.5431 -0.07543,-1.41816 -0.03781,0.11641 -0.231476,0.85177 -0.430373,1.63412 l -0.361631,1.42246 -0.296531,-0.0255 -0.296529,-0.0255 -0.39993,-1.53788 c -0.219961,-0.84584 -0.416484,-1.58755 -0.436717,-1.64825 -0.02023,-0.0607 -0.01957,0.64087 0.0015,1.55905 l 0.03825,1.66942 h -0.391953 -0.391954 z m 4.236925,1.92616 c 0.002,-0.0582 0.242913,-0.96308 0.535415,-2.01083 l 0.531823,-1.905 h 0.543632 0.543632 l 0.570766,1.94733 c 0.313921,1.07104 0.571299,1.97591 0.571952,2.01084 6.78e-4,0.0349 -0.187522,0.0635 -0.418166,0.0635 -0.412467,0 -0.420802,-0.005 -0.507528,-0.3175 -0.04849,-0.17463 -0.08839,-0.36513 -0.08865,-0.42334 -3.39e-4,-0.0752 -0.183373,-0.10583 -0.631493,-0.10583 h -0.63102 l -0.08817,0.3175 c -0.0485,0.17462 -0.08839,0.36512 -0.08865,0.42333 -3.39e-4,0.0705 -0.141836,0.10584 -0.423806,0.10584 -0.284138,0 -0.422152,-0.0348 -0.419741,-0.10584 z m 2.028888,-1.48166 c 0.0011,-0.14796 -0.370031,-1.71184 -0.399314,-1.68256 -0.01767,0.0177 -0.107706,0.35109 -0.200071,0.74093 -0.09237,0.38984 -0.188466,0.77547 -0.213556,0.85696 -0.03929,0.12762 0.01388,0.14817 0.383422,0.14817 0.235971,0 0.429254,-0.0286 0.429519,-0.0635 z m 1.608186,-0.4445 v -2.032 l 0.8255,0.007 c 1.42948,0.0118 1.855666,0.23608 1.944389,1.02324 0.05401,0.4792 -0.129811,0.9223 -0.44963,1.08381 -0.135259,0.0683 -0.257804,0.13099 -0.272321,0.13928 -0.01452,0.008 0.166457,0.3994 0.402166,0.8691 0.23571,0.46971 0.428563,0.87566 0.428563,0.90211 0,0.0265 -0.21012,0.0367 -0.466934,0.0227 l -0.466933,-0.0254 -0.378285,-0.80433 c -0.518161,-1.10175 -0.635182,-1.10289 -0.635182,-0.006 v 0.85288 h -0.465666 -0.465667 z m 1.674494,-0.3858 c 0.138623,-0.0971 0.188173,-0.21699 0.188173,-0.4553 0,-0.39092 -0.101318,-0.48443 -0.5715,-0.52745 l -0.359834,-0.0329 v 0.57374 0.57374 h 0.277495 c 0.152622,0 0.362172,-0.0593 0.465666,-0.1318 z m 4.844839,0.3858 v -2.032 h 1.354667 1.354666 v 0.381 0.381 h -0.931333 -0.931333 v 0.42333 0.42333 h 0.635 0.635 v 0.381 0.381 h -0.635 -0.635 v 0.46567 0.46567 h 0.973666 0.973667 v 0.381 0.381 h -1.397 -1.397 z m 3.048,1.83207 c 0,-0.1676 0.03422,-0.19338 0.211667,-0.15946 l 0.211666,0.0405 v -1.7032 -1.70321 h -0.211666 c -0.155222,0 -0.211667,-0.0452 -0.211667,-0.16933 0,-0.15858 0.05645,-0.16933 0.889,-0.16933 0.832555,0 0.889,0.0108 0.889,0.16933 0,0.12418 -0.05644,0.16933 -0.211667,0.16933 h -0.211666 v 1.651 1.651 h 0.211666 c 0.169334,0 0.211667,0.0423 0.211667,0.21167 v 0.21167 h -0.889 c -0.8779,0 -0.889,-0.002 -0.889,-0.19993 z m 2.116667,-1.83207 v -2.032 h 0.423333 0.423333 v 1.651 1.651 h 0.889 0.889 v 0.381 0.381 h -1.312333 -1.312333 z m 3.047999,0 v -2.032 h 0.465667 0.465667 v 1.651 1.651 h 0.889 0.889 v 0.381 0.381 h -1.354667 -1.354667 z m 3.132667,0 v -2.032 h 1.354667 1.354666 v 0.381 0.381 H 62.84764 61.931452 l 0.0096,0.40216 0.0096,0.40217 0.610219,0.0249 0.610218,0.0249 v 0.37729 0.37729 h -0.592666 -0.592667 v 0.46567 0.46567 h 0.973667 0.973666 v 0.381 0.381 h -1.439333 -1.439333 z m 1.295908,-2.76393 c -0.02046,-0.0533 -0.02513,-0.24381 -0.01038,-0.42334 l 0.02681,-0.3264 11.662833,-0.0215 11.662833,-0.0215 v 0.42304 0.42303 l -11.65245,0.0218 c -8.690577,0.0162 -11.661903,-0.003 -11.689641,-0.0752 z m -24.662166,-1.8179 c -0.251438,-0.10032 -0.470492,-0.29047 -0.691009,-0.59984 l -0.162992,-0.22866 0.228662,-0.11981 c 0.218852,-0.11467 0.242021,-0.10577 0.540021,0.2075 0.259696,0.273 0.367277,0.3273 0.648376,0.3273 0.551921,0 0.864122,-0.47618 0.616072,-0.93967 -0.04902,-0.0916 -0.401445,-0.31184 -0.783166,-0.48943 -0.905508,-0.42128 -1.032705,-0.56853 -1.032705,-1.19556 0,-0.37048 0.04136,-0.53662 0.169333,-0.68013 0.208596,-0.23394 0.633506,-0.42054 0.957631,-0.42054 0.337985,0 0.931058,0.33349 1.101544,0.61941 0.135236,0.22681 0.134156,0.24433 -0.02219,0.35984 -0.23687,0.17499 -0.325934,0.15149 -0.484937,-0.12799 -0.304639,-0.53546 -1.25008,-0.37456 -1.254418,0.21348 -0.0018,0.24522 0.286846,0.48544 0.93181,0.77546 0.750246,0.33736 1.014227,0.66146 1.014227,1.24521 0,0.49985 -0.179002,0.80701 -0.595938,1.02261 -0.273201,0.14128 -0.864758,0.15673 -1.180321,0.0308 z m 6.048302,-0.0632 c -0.509416,-0.31066 -0.732977,-0.89109 -0.732977,-1.90304 0,-0.88234 0.126417,-1.34792 0.466529,-1.71817 0.591061,-0.64344 1.548243,-0.48872 1.968127,0.31815 0.327289,0.62892 0.316942,2.07639 -0.01975,2.76292 -0.311112,0.63437 -1.10783,0.89023 -1.681928,0.54014 z m 1.116315,-0.67076 c 0.328459,-0.4891 0.363775,-1.74446 0.06898,-2.45215 -0.23558,-0.56555 -0.891111,-0.55259 -1.165609,0.023 -0.319854,0.67074 -0.251176,2.05836 0.125579,2.53732 0.25534,0.32462 0.714757,0.27342 0.971047,-0.10821 z m -17.601524,0.69676 c -0.03493,-0.0362 -0.0635,-0.96001 -0.0635,-2.05291 v -1.9871 l 0.783629,0.041 c 0.468852,0.0245 0.885472,0.094 1.037166,0.17283 0.621272,0.32305 0.913389,0.91256 0.917149,1.85085 0.0021,0.52953 -0.03764,0.72681 -0.222749,1.10516 -0.313023,0.63979 -0.686756,0.84169 -1.657683,0.89551 -0.401782,0.0223 -0.759087,0.0109 -0.794012,-0.0253 z m 1.45762,-0.60923 c 0.45584,-0.22995 0.63622,-0.62218 0.632594,-1.37553 -0.0049,-1.00895 -0.298002,-1.39817 -1.127005,-1.49635 l -0.434042,-0.0514 v 1.53579 1.5358 l 0.3175,-1.7e-4 c 0.174625,-8e-5 0.449553,-0.0668 0.610953,-0.14817 z m 2.966213,-1.3757 v -2.04273 l 0.275167,0.0265 0.275166,0.0265 v 0.82562 0.82561 l 0.719667,-8e-5 0.719667,-9e-5 v -0.82552 -0.82553 l 0.275166,-0.0265 0.275167,-0.0265 v 2.04273 2.04273 l -0.275167,-0.0265 -0.275166,-0.0265 v -0.91027 -0.91028 l -0.695636,8e-5 -0.695636,9e-5 -0.02403,0.91017 -0.02403,0.9102 -0.275166,0.0265 -0.275167,0.0265 z m 3.386667,1.86266 c 0,-0.11289 0.05644,-0.16933 0.169333,-0.16933 0.163544,0 0.169333,-0.0565 0.169333,-1.651 0,-1.59456 -0.0058,-1.651 -0.169333,-1.651 -0.124178,0 -0.169333,-0.0565 -0.169333,-0.21167 0,-0.20696 0.01411,-0.21166 0.635,-0.21166 0.620888,0 0.634999,0.005 0.634999,0.21166 0,0.15522 -0.04515,0.21167 -0.169333,0.21167 -0.163544,0 -0.169333,0.0564 -0.169333,1.651 0,1.59455 0.0058,1.651 0.169333,1.651 0.112889,0 0.169333,0.0564 0.169333,0.16933 0,0.15428 -0.05644,0.16934 -0.634999,0.16934 -0.578556,0 -0.635,-0.0151 -0.635,-0.16934 z m 5.926666,-1.6033 v -1.78336 h -0.592667 -0.592666 v -0.256 -0.256 l 1.4605,0.0232 1.4605,0.0232 0.02679,0.23283 0.02679,0.23284 h -0.596572 -0.596573 l -0.02288,1.75683 -0.02289,1.75683 -0.275166,0.0265 -0.275167,0.0265 z m 5.164666,1.6033 c 0,-0.11289 0.05645,-0.16933 0.169334,-0.16933 0.163543,0 0.169333,-0.0565 0.169333,-1.651 0,-1.59456 -0.0058,-1.651 -0.169333,-1.651 -0.124178,0 -0.169334,-0.0565 -0.169334,-0.21167 0,-0.20696 0.01411,-0.21166 0.635,-0.21166 0.620889,0 0.635,0.005 0.635,0.21166 0,0.15522 -0.04516,0.21167 -0.169333,0.21167 -0.163544,0 -0.169333,0.0564 -0.169333,1.651 0,1.59455 0.0058,1.651 0.169333,1.651 0.112889,0 0.169333,0.0564 0.169333,0.16933 0,0.15428 -0.05644,0.16934 -0.635,0.16934 -0.578555,0 -0.635,-0.0151 -0.635,-0.16934 z m 2.116667,-1.86266 v -2.032 h 0.749366 c 1.119672,0 1.62103,0.2292 1.782787,0.81504 0.14912,0.54007 -0.07637,1.02709 -0.622565,1.34463 -0.132328,0.0769 -0.100166,0.16766 0.326479,0.92102 0.260296,0.45962 0.473266,0.8689 0.473266,0.90949 0,0.0406 -0.129936,0.0738 -0.288746,0.0738 -0.279646,0 -0.303345,-0.0274 -0.751916,-0.86784 l -0.46317,-0.86783 -0.348751,-0.026 -0.34875,-0.026 v 0.89387 0.89387 h -0.254 -0.254 z m 1.750412,-0.38557 c 0.383839,-0.24589 0.354222,-0.79874 -0.0541,-1.00989 -0.136713,-0.0707 -0.460011,-0.12854 -0.71844,-0.12854 H 48.77783 v 0.62088 c 0,0.34149 0.02857,0.64949 0.0635,0.68443 0.09344,0.0935 0.965059,-0.0299 1.178911,-0.16688 z m 1.636254,0.38777 v -2.0342 h 1.227667 1.227667 v 0.254 0.254 h -0.931334 -0.931333 l -0.0065,0.4445 c -0.0036,0.24447 -0.01924,0.51117 -0.03484,0.59266 -0.0252,0.13162 0.05119,0.14817 0.683811,0.14817 h 0.712175 v 0.254 0.254 h -0.677333 -0.677333 v 0.67733 0.67734 h 1.021623 1.021624 l -0.02679,0.23283 -0.02679,0.23283 -1.291166,0.0234 -1.291167,0.0234 v -2.03421 z m 14.478,-0.34087 v -1.18533 h 0.846666 0.846667 v 1.18533 1.18533 H 66.981161 66.134495 Z M 30.405163,137.3807 c 0,-0.75636 0.0016,-0.762 0.211667,-0.762 0.210098,0 0.211666,0.006 0.211666,0.762 0,0.75635 -0.0016,0.762 -0.211666,0.762 -0.210099,0 -0.211667,-0.006 -0.211667,-0.762 z m -11.175999,-3.937 v -0.71967 h 27.558998 27.558999 v 0.71967 0.71966 H 46.788162 19.229164 Z m 60.977739,0.0212 0.02459,-0.6985 3.280833,-0.0222 3.280833,-0.0222 v 0.72066 0.72066 h -3.305423 -3.305424 z m -32.08113,-2.2614 c -0.520578,-0.31742 -0.574579,-0.53635 -0.575123,-2.33176 l -5.08e-4,-1.60867 0.275167,-0.0265 0.275166,-0.0265 v 1.53357 c 2.1e-5,1.90421 0.0771,2.11782 0.764224,2.11782 0.134031,0 0.348532,-0.0913 0.479909,-0.20418 l 0.237554,-0.20419 0.02783,-1.62113 0.02783,-1.62113 0.226171,0.0262 0.226171,0.0262 -5.08e-4,1.60867 c -4.23e-4,1.38592 -0.0215,1.64728 -0.152277,1.88757 -0.215318,0.39565 -0.607271,0.60946 -1.117235,0.60946 -0.27085,0 -0.520967,-0.0595 -0.69439,-0.16527 z m 3.461264,0.0235 c -0.154619,-0.0762 -0.381096,-0.2696 -0.503284,-0.42979 l -0.22216,-0.29127 0.206952,-0.15906 c 0.269506,-0.20713 0.271519,-0.2067 0.450465,0.0962 0.270279,0.45755 0.929264,0.56553 1.284333,0.21046 0.229231,-0.22923 0.263365,-0.51621 0.08876,-0.74631 -0.06252,-0.0824 -0.394681,-0.28583 -0.738141,-0.45209 -0.763686,-0.36968 -0.982391,-0.5643 -1.092131,-0.97184 -0.304007,-1.129 1.208114,-1.76675 2.092379,-0.88248 0.332703,0.3327 0.343657,0.40401 0.08345,0.54327 -0.177796,0.0951 -0.226107,0.0761 -0.499533,-0.19736 -0.490518,-0.49052 -1.166301,-0.35185 -1.166301,0.23931 0,0.34389 0.117254,0.44699 0.950681,0.8359 0.934652,0.43615 1.195171,0.94641 0.874747,1.71329 -0.241616,0.57827 -1.139611,0.82221 -1.81022,0.49174 z m -8.651208,-1.97427 v -2.032 h 0.42007 0.42007 l 0.09548,0.35983 c 0.05251,0.19791 0.202986,0.75988 0.334378,1.24883 0.131393,0.48895 0.283168,1.05577 0.337278,1.25961 0.05411,0.20383 0.12733,0.33718 0.162709,0.29633 0.03538,-0.0409 0.248379,-0.7696 0.473333,-1.61944 l 0.409006,-1.54516 h 0.409504 0.409503 v 2.032 2.032 h -0.211666 -0.211667 v -1.82034 c 0,-1.15711 -0.03085,-1.82033 -0.08467,-1.82033 -0.04657,0 -0.08565,0.0667 -0.08685,0.14817 -0.0012,0.0815 -0.201749,0.89111 -0.445661,1.79916 -0.427759,1.59249 -0.451428,1.65193 -0.66788,1.67709 -0.157878,0.0184 -0.237748,-0.0193 -0.269415,-0.127 -0.02475,-0.0842 -0.242535,-0.89604 -0.483955,-1.80409 -0.241421,-0.90805 -0.472086,-1.68719 -0.512592,-1.73143 -0.04195,-0.0458 -0.07364,0.72843 -0.07364,1.79917 v 1.8796 h -0.211666 -0.211667 z m 11.345333,0 v -2.032 h 1.227667 1.227666 v 0.25122 0.25123 l -0.946301,0.0239 -0.9463,0.0239 -0.01931,0.5715 -0.01931,0.5715 h 0.711609 0.711608 v 0.254 0.254 h -0.677333 -0.677333 v 0.67733 0.67734 h 1.016 1.015999 v 0.254 0.254 h -1.312333 -1.312333 z m 3.386666,0 v -2.032 h 1.227667 1.227667 v 0.254 0.254 h -0.931334 -0.931333 v 0.59266 0.59267 h 0.677333 0.677334 v 0.254 0.254 h -0.677334 -0.677333 v 0.67733 0.67734 h 0.963792 c 0.846813,0 0.968456,0.018 1.00222,0.14816 0.08799,0.33926 0.01391,0.35984 -1.295734,0.35984 h -1.262945 z m 7.083778,0.0282 c -0.03105,-0.031 -0.05645,-0.1644 -0.05645,-0.29633 v -0.23989 h 11.091333 11.091333 v 0.29633 0.29633 H 75.842939 c -6.069189,0 -11.060289,-0.0254 -11.091333,-0.0564 z m -9.474143,-2.69522 c 0.199936,-0.33101 0.26768,-0.381 0.516282,-0.381 0.258734,0 0.275423,0.0142 0.174185,0.14816 -0.308956,0.40885 -0.551686,0.61384 -0.726857,0.61384 h -0.193742 z m -36.132966,-0.67734 v -0.29633 h 2.751667 2.751666 v 0.29633 0.29634 h -2.751666 -2.751667 z"
       id="path839"
       inkscape:connector-curvature="0" />
  </g>
</svg>
