<?xml version="1.0" encoding="UTF-8" standalone="no"?>
<!-- Created with Inkscape (http://www.inkscape.org/) -->

<svg
   xmlns:dc="http://purl.org/dc/elements/1.1/"
   xmlns:cc="http://creativecommons.org/ns#"
   xmlns:rdf="http://www.w3.org/1999/02/22-rdf-syntax-ns#"
   xmlns:svg="http://www.w3.org/2000/svg"
   xmlns="http://www.w3.org/2000/svg"
   xmlns:sodipodi="http://sodipodi.sourceforge.net/DTD/sodipodi-0.dtd"
   xmlns:inkscape="http://www.inkscape.org/namespaces/inkscape"
   width="147.21761mm"
   height="85.639977mm"
   viewBox="0 0 147.21761 85.639977"
   version="1.1"
   id="svg8"
   inkscape:version="0.92.3 (2405546, 2018-03-11)"
   sodipodi:docname="mercurion.svg">
  <defs
     id="defs2" />
  <sodipodi:namedview
     id="base"
     pagecolor="#ffffff"
     bordercolor="#666666"
     borderopacity="1.0"
     inkscape:pageopacity="0.0"
     inkscape:pageshadow="2"
     inkscape:zoom="0.49497475"
     inkscape:cx="-101.9067"
     inkscape:cy="90.679578"
     inkscape:document-units="mm"
     inkscape:current-layer="layer1"
     showgrid="false"
     fit-margin-top="8"
     fit-margin-left="8"
     fit-margin-right="8"
     fit-margin-bottom="8"
     inkscape:window-width="1920"
     inkscape:window-height="1056"
     inkscape:window-x="1920"
     inkscape:window-y="24"
     inkscape:window-maximized="1"
     inkscape:pagecheckerboard="true" />
  <metadata
     id="metadata5">
    <rdf:RDF>
      <cc:Work
         rdf:about="">
        <dc:format>image/svg+xml</dc:format>
        <dc:type
           rdf:resource="http://purl.org/dc/dcmitype/StillImage" />
        <dc:title></dc:title>
      </cc:Work>
    </rdf:RDF>
  </metadata>
  <g
     inkscape:label="Layer 1"
     inkscape:groupmode="layer"
     id="layer1"
     transform="translate(-137.9492,-203.42186)">
    <path
       id="path864"
       style="fill:#ffffff;stroke-width:0.19705315"
       d="m 227.6796,229.41304 c -4.73878,-3.2702 -8.61548,-5.99016 -8.6149,-6.04435 8e-4,-0.11403 16.78743,-11.64381 17.30517,-11.88622 0.26358,-0.12342 1.41215,0.57106 4.86463,2.94134 2.48577,1.7066 6.38175,4.37879 8.6577,5.93819 2.27597,1.5594 4.13812,2.91237 4.13812,3.00659 0,0.23626 -17.16294,12.02398 -17.47975,12.00531 -0.14026,-0.008 -4.1322,-2.69066 -8.87097,-5.96086 z m 26.92517,21.67546 c -5.7349,-3.93721 -12.06757,-8.2861 -14.07259,-9.66418 -2.00502,-1.37807 -3.60845,-2.56824 -3.56318,-2.64481 0.0452,-0.0765 1.50839,-1.11844 3.25138,-2.31528 1.74299,-1.19684 6.16879,-4.23955 9.8351,-6.76158 l 6.66604,-4.58551 0.52641,0.33857 c 0.28952,0.18621 2.18903,1.48214 4.22114,2.87983 l 3.69476,2.54126 v 13.68515 c 0,7.52683 -0.0297,13.68514 -0.066,13.68514 -0.0363,0 -4.75816,-3.22136 -10.49308,-7.15859 z m -64.51819,-20.78849 c 4.1726,-2.86637 7.61501,-5.23534 7.64981,-5.26439 0.0348,-0.029 -0.69826,-0.57117 -1.629,-1.20471 -0.93074,-0.63355 -4.41749,-3.03341 -7.74834,-5.33303 -3.33083,-2.29962 -6.10477,-4.18393 -6.16429,-4.18738 -0.178,-0.0102 -15.4221,10.53145 -15.44129,10.67811 -0.0303,0.23139 15.34108,10.73624 15.54951,10.62661 0.10838,-0.057 3.611,-2.44885 7.7836,-5.31521 z m -22.06995,15.15938 c 12.28943,-8.45181 11.95764,-8.21768 11.82318,-8.34283 -0.43936,-0.40895 -15.31655,-10.46365 -15.48229,-10.46365 -0.11835,0 -2.0037,1.22515 -4.18964,2.72257 l -3.97444,2.72257 v 10.73255 10.73255 l 0.44337,-0.29123 c 0.24385,-0.16017 5.36477,-3.67581 11.37982,-7.81253 z m 41.37434,-1.84349 -0.007,-10.69013 -4.70228,-3.20358 -4.70227,-3.20357 -7.26645,4.97705 c -3.99655,2.73738 -7.48321,5.13193 -7.74815,5.32123 -0.42048,0.30042 -0.44494,0.37886 -0.19249,0.61698 0.15906,0.15004 2.14468,1.54696 4.41249,3.10426 2.2678,1.55729 7.67692,5.2848 12.02024,8.28335 4.34333,2.99854 7.96346,5.45924 8.04474,5.46822 0.0813,0.009 0.14472,-4.79423 0.14098,-10.67381 z m -55.7113,0.93235 0.0506,-13.74593 14.16988,-9.736 c 7.79344,-5.3548 14.27774,-9.69461 14.40956,-9.64402 0.13182,0.0506 6.24705,4.22233 13.58939,9.27055 7.34235,5.04823 13.413,9.17859 13.49033,9.17859 0.0773,0 1.63055,-1.02208 3.45158,-2.27129 1.82104,-1.2492 3.38858,-2.31925 3.4834,-2.37786 0.23907,-0.14775 20.12292,13.54467 19.92999,13.72419 -0.0858,0.0798 -6.16499,4.27537 -13.50941,9.32352 l -13.35351,9.17845 -13.60826,-9.35621 -13.60828,-9.35621 -13.7297,9.42752 c -7.55134,5.18514 -13.97416,9.58572 -14.27295,9.77909 l -0.54324,0.35155 z"
       inkscape:connector-curvature="0" />
    <path
       id="path826"
       style="fill:#ffffff;stroke-width:0.35277778"
       d="m 254.60475,259.02604 v -1.5875 h 1.41111 1.41112 v 1.5875 1.5875 h -1.41112 -1.41111 z m 0.35278,13.2292 v -8.46666 h 1.23472 1.23473 v 8.46666 8.46667 h -1.23473 -1.23472 z m -11.99444,0 v -8.46666 h 1.23472 1.23472 v 1.9932 1.99321 l 1.0801,-1.49103 c 1.04207,-1.43853 3.31075,-2.82357 4.65254,-2.84042 0.46803,-0.006 0.61736,0.28142 0.61736,1.18772 0,1.085 -0.11313,1.21668 -1.22435,1.42515 -1.56912,0.29437 -3.18837,1.66283 -4.15226,3.50918 -0.6415,1.22883 -0.78239,2.20874 -0.9065,6.30562 l -0.14697,4.8507 h -1.19468 -1.19468 z m -48.68333,0 v -8.46666 h 1.23472 1.23472 l 0.0224,2.02847 c 0.016,1.45761 0.10578,1.82229 0.3188,1.29583 0.50389,-1.24532 2.44584,-2.92853 3.81855,-3.30978 2.00275,-0.55623 2.19028,-0.48532 2.19028,0.82816 0,1.06909 -0.12119,1.21836 -1.14652,1.41214 -2.00865,0.3796 -3.41954,1.51303 -4.33734,3.48434 -0.77362,1.66165 -0.85959,2.31135 -0.86269,6.51986 l -0.003,4.67431 h -1.23472 -1.23472 z m -48.33056,0 v -8.46666 h 1.23473 c 1.18998,0 1.23472,0.0476 1.23472,1.31321 v 1.31322 l 0.57591,-0.82223 c 0.70601,-1.00797 3.10875,-2.14149 4.53937,-2.14149 1.47997,0 3.79137,1.1231 4.70697,2.2871 l 0.77096,0.98012 1.2881,-1.2881 c 1.2729,-1.27289 2.98516,-1.99613 4.69924,-1.9849 1.63714,0.0107 3.79014,1.27996 4.82736,2.84581 0.98605,1.48858 0.9943,1.54809 1.10349,7.96519 l 0.11001,6.4654 h -1.25654 -1.25654 v -5.94505 c 0,-5.60697 -0.0458,-6.01323 -0.80597,-7.14375 -1.37025,-2.03795 -4.48519,-2.4266 -6.32407,-0.78906 -1.41527,1.26032 -1.6894,2.62308 -1.6894,8.39847 v 5.47939 h -1.23473 -1.23472 v -5.94505 c 0,-5.60873 -0.0456,-6.01287 -0.80665,-7.14375 -1.57151,-2.33533 -4.7119,-2.47242 -6.79813,-0.29678 l -1.03827,1.08278 -0.11094,6.1514 -0.11093,6.1514 h -1.21198 -1.21199 z m 126.00206,5.77901 c 2.05818,-1.04118 3.29392,-4.28029 2.75576,-7.22334 -0.71371,-3.90288 -4.78861,-6.01162 -8.35057,-4.32137 -2.4602,1.16745 -3.79151,4.69127 -2.9513,7.81164 1.01907,3.78455 5.00366,5.52508 8.54611,3.73307 z m -5.79374,2.53711 c -3.58913,-1.28083 -5.39168,-4.07841 -5.35831,-8.31612 0.0418,-5.3122 3.14279,-8.46666 8.32312,-8.46666 3.7137,0 6.69421,2.04896 7.65754,5.26424 0.57153,1.90762 0.49854,5.46432 -0.14372,7.00611 -1.62511,3.90099 -6.41364,5.96308 -10.47863,4.51243 z m -37.83471,0.0724 c -1.77127,-0.628 -2.90198,-1.61616 -3.67389,-3.21069 -0.65841,-1.3601 -0.73583,-2.1579 -0.73583,-7.58226 v -6.06223 h 1.23472 1.23472 v 5.85459 c 0,6.46927 0.20507,7.24758 2.22379,8.44007 1.41005,0.83293 3.95141,0.79027 5.12514,-0.0861 2.20173,-1.64382 2.343,-2.12605 2.4644,-8.41232 l 0.11193,-5.79629 h 1.21098 1.21098 v 8.46666 8.46667 h -1.23472 c -1.18786,0 -1.23472,-0.0494 -1.23472,-1.30072 v -1.30073 l -0.97014,0.92923 c -1.90022,1.8201 -4.5925,2.43606 -6.96736,1.59407 z m -18.32405,-0.0955 c -3.12384,-1.11282 -5.07555,-3.71716 -5.39076,-7.1934 -0.25092,-2.76715 0.36285,-4.91975 1.92221,-6.7415 1.785,-2.08538 3.45435,-2.82482 6.37723,-2.82482 3.16686,0 5.08767,0.96379 6.7193,3.37149 l 1.18171,1.74378 -1.27453,0.10977 c -1.06177,0.0914 -1.42799,-0.0726 -2.19386,-0.98281 -1.94187,-2.30778 -4.7636,-2.78486 -7.38501,-1.24861 -3.2989,1.93328 -3.96657,7.20964 -1.28698,10.17055 2.29606,2.53711 7.27316,2.26291 8.83755,-0.48689 0.48004,-0.84379 0.82102,-1.03156 1.87652,-1.03339 1.15966,-0.002 1.26919,0.0769 1.08487,0.78179 -0.11276,0.43121 -0.93574,1.51473 -1.82882,2.40782 -2.32412,2.32411 -5.52139,3.03697 -8.63943,1.92622 z m -21.90133,-11.01417 c -1.0501,-2.51324 -2.7632,-3.62889 -5.57223,-3.62889 -2.29902,0 -4.68712,1.85033 -5.34987,4.14514 l -0.22923,0.79375 h 5.84934 5.84934 z m -8.01769,11.03723 c -3.53722,-1.26231 -5.54609,-4.28861 -5.55209,-8.36403 -0.004,-3.00537 1.26254,-5.61824 3.47994,-7.17669 1.30636,-0.91814 1.88591,-1.07999 4.2519,-1.18744 2.23779,-0.10162 3.00077,0.009 4.16692,0.60388 2.78207,1.4193 4.67835,4.57601 4.67835,7.78799 v 1.07851 h -7.05556 c -4.61489,0 -7.05555,0.12595 -7.05555,0.3641 0,0.82755 1.03768,2.69591 1.98502,3.57406 2.41593,2.23947 7.21953,1.81311 8.59831,-0.76316 0.4707,-0.87952 2.82222,-1.02552 2.82222,-0.17522 0,0.96972 -3.25742,3.95961 -4.7625,4.37136 -1.86426,0.51 -3.92817,0.4679 -5.55696,-0.11336 z"
       inkscape:connector-curvature="0" />
  </g>
</svg>
