<?xml version="1.0" encoding="UTF-8" standalone="no"?>
<!-- Created with Inkscape (http://www.inkscape.org/) -->

<svg
   xmlns:dc="http://purl.org/dc/elements/1.1/"
   xmlns:cc="http://creativecommons.org/ns#"
   xmlns:rdf="http://www.w3.org/1999/02/22-rdf-syntax-ns#"
   xmlns:svg="http://www.w3.org/2000/svg"
   xmlns="http://www.w3.org/2000/svg"
   xmlns:sodipodi="http://sodipodi.sourceforge.net/DTD/sodipodi-0.dtd"
   xmlns:inkscape="http://www.inkscape.org/namespaces/inkscape"
   width="101.70368mm"
   height="82.388206mm"
   viewBox="0 0 101.70368 82.388207"
   version="1.1"
   id="svg8"
   inkscape:version="0.92.3 (2405546, 2018-03-11)"
   sodipodi:docname="vcg.svg">
  <defs
     id="defs2" />
  <sodipodi:namedview
     id="base"
     pagecolor="#ffffff"
     bordercolor="#666666"
     borderopacity="1.0"
     inkscape:pageopacity="0.0"
     inkscape:pageshadow="2"
     inkscape:zoom="0.98994949"
     inkscape:cx="208.05319"
     inkscape:cy="75.479226"
     inkscape:document-units="mm"
     inkscape:current-layer="layer1"
     showgrid="false"
     inkscape:pagecheckerboard="true"
     fit-margin-top="4"
     fit-margin-left="4"
     fit-margin-right="4"
     fit-margin-bottom="4"
     inkscape:window-width="1920"
     inkscape:window-height="1056"
     inkscape:window-x="1920"
     inkscape:window-y="24"
     inkscape:window-maximized="1" />
  <metadata
     id="metadata5">
    <rdf:RDF>
      <cc:Work
         rdf:about="">
        <dc:format>image/svg+xml</dc:format>
        <dc:type
           rdf:resource="http://purl.org/dc/dcmitype/StillImage" />
        <dc:title></dc:title>
      </cc:Work>
    </rdf:RDF>
  </metadata>
  <g
     inkscape:label="Layer 1"
     inkscape:groupmode="layer"
     id="layer1"
     transform="translate(-54.14816,-8.130859)">
    <path
       sodipodi:type="inkscape:offset"
       inkscape:radius="0.48121434"
       inkscape:original="M 130.82227 12.611328 L 131.65039 14 C 132.10627 14.763985 132.74664 15.80513 133.07227 16.314453 C 133.39791 16.823776 135.30151 19.919141 137.30273 23.193359 C 139.30396 26.467578 141.22375 29.592969 141.56836 30.138672 C 142.91656 32.273588 143.54012 33.284133 146.42773 38.009766 C 148.07277 40.701902 149.68387 43.322708 150.00781 43.832031 C 151.71226 46.511845 157.84848 56.603742 157.97656 56.9375 C 158.05848 57.150982 158.21199 57.326172 158.31641 57.326172 C 158.42083 57.326172 159.55711 55.62836 160.8418 53.554688 C 162.12649 51.481016 163.44079 49.368698 163.76367 48.859375 C 164.08656 48.350053 165.51874 46.027553 166.94531 43.699219 C 170.45407 37.97249 174.94963 30.677977 175.66797 29.544922 C 175.99088 29.035599 177.12285 27.189609 178.18359 25.443359 C 179.24432 23.697109 180.37687 21.85112 180.69922 21.341797 C 182.62604 18.297282 185.85156 12.906039 185.85156 12.730469 C 185.85156 12.66411 173.46876 12.611328 158.33594 12.611328 L 130.82227 12.611328 z M 145.19531 12.939453 C 152.42165 12.901713 164.25839 12.901713 171.49805 12.939453 L 184.66016 13.007812 L 181.75 14.296875 C 180.14927 15.006177 177.11397 16.335679 175.00391 17.251953 C 169.49815 19.642788 164.96467 21.631542 161.77344 23.056641 C 158.29673 24.609223 158.33776 24.59941 157.54102 24.181641 C 157.17722 23.990881 156.22419 23.559482 155.42383 23.222656 C 154.62346 22.88583 153.61234 22.450613 153.17578 22.255859 C 151.87323 21.67478 147.53627 19.774085 139.57227 16.292969 L 132.05664 13.007812 L 145.19531 12.939453 z M 203.23242 13.115234 C 195.58508 12.185408 187.3923 15.520504 182.69531 21.474609 C 177.49708 28.064119 176.21923 36.613154 179.27734 44.335938 C 182.22306 51.774909 188.74975 57.062672 196.78906 58.521484 C 208.479 60.642738 219.75318 53.252139 222.93945 41.378906 C 223.74923 38.361222 223.76177 33.485955 222.9668 30.470703 C 220.46197 20.970157 212.86273 14.286166 203.23242 13.115234 z M 199.75586 13.472656 C 204.33233 13.31065 206.61906 13.795917 210.58984 15.769531 C 213.77166 17.351004 215.76198 18.880865 217.74609 21.273438 C 219.39489 23.261665 220.21351 24.611961 218.96484 23.283203 C 211.6006 15.446612 200.13717 16.424773 194.22266 25.394531 C 190.57959 30.919485 190.12245 38.549362 193.07031 44.625 C 193.94793 46.433782 194.60349 47.316437 196.42188 49.132812 C 198.85947 51.567714 200.85607 52.783502 203.56836 53.486328 C 205.33976 53.945343 209.29844 54.010652 210.85352 53.607422 C 213.32188 52.967379 215.93593 51.508556 218.0625 49.583984 L 219.30469 48.460938 L 218.38672 49.648438 C 215.50596 53.371501 211.72965 55.961084 207.01758 57.445312 C 205.21402 58.013408 204.11324 58.174039 201.46094 58.255859 C 197.88962 58.366032 196.58773 58.205843 193.87695 57.330078 C 186.60192 54.97976 181.59043 49.877153 179.0625 42.244141 C 178.37153 40.157925 178.31845 39.688715 178.31445 35.761719 C 178.31068 31.818101 178.36059 31.374344 179.05664 29.279297 C 181.01434 23.386793 185.26713 18.352761 190.53711 15.689453 C 193.61638 14.133268 195.78043 13.613385 199.75586 13.472656 z M 131.79102 13.507812 C 131.65709 13.269633 135.89326 15.040542 140.84766 17.292969 C 141.34354 17.518412 142.53287 18.034477 143.49219 18.439453 C 144.45152 18.844428 146.30945 19.645053 147.61914 20.220703 C 148.92883 20.796352 151.72588 22.01721 153.83594 22.931641 C 155.94599 23.846071 157.76273 24.672931 157.87305 24.769531 C 157.98334 24.866125 158.04346 31.924853 158.00586 40.457031 L 157.9375 55.970703 L 155.55664 52.126953 C 154.24695 50.013373 152.32188 46.896841 151.2793 45.199219 C 150.23672 43.501597 148.97676 41.456614 148.47852 40.65625 C 147.98028 39.855885 146.70413 37.771641 145.64258 36.025391 C 143.75793 32.925141 143.25217 32.107931 141.88281 29.941406 C 141.09942 28.701964 132.03356 13.93912 131.79102 13.507812 z M 184.75195 13.541016 C 184.81291 13.60198 183.73285 15.471431 182.34961 17.695312 C 179.00357 23.07486 168.59057 39.984094 168.25586 40.582031 C 167.94062 41.145186 164.33718 47.008838 163.49414 48.330078 C 163.16915 48.839401 162.03273 50.683437 160.96875 52.429688 C 159.90478 54.175938 158.93604 55.719177 158.81641 55.857422 C 158.6968 55.995667 158.59961 49.0713 158.59961 40.470703 L 158.59961 24.833984 L 159.32617 24.5625 C 159.72635 24.413514 161.24401 23.762901 162.69922 23.117188 C 164.15443 22.471474 169.21588 20.25978 173.94531 18.201172 C 178.67474 16.142564 183.01668 14.225878 183.59375 13.943359 C 184.17081 13.66084 184.69095 13.480056 184.75195 13.541016 z M 207.23047 18.333984 C 209.34168 18.333881 211.50525 18.79938 213.61133 19.78125 C 215.45092 20.638881 216.212 21.201335 217.97656 23 C 220.22959 25.296579 221.55009 27.5415 222.54297 30.765625 C 223.22387 32.977326 223.21963 38.822762 222.53516 41.052734 C 221.00424 46.040437 217.7867 49.992976 213.63281 51.986328 C 212.34318 52.605194 210.65026 53.183643 209.66406 53.341797 C 206.90068 53.784958 204.62638 53.523003 202.00781 52.458984 C 193.56888 49.029939 189.3541 38.780046 192.58203 29.541016 C 195.03287 22.526173 200.89684 18.334294 207.23047 18.333984 z "
       style="fill:#ffffff;stroke-width:0.26458335"
       id="path826"
       d="m 130.82227,12.130859 a 0.48126247,0.48126247 0 0 0 -0.41407,0.726563 l 0.82813,1.388672 c 0.45891,0.769065 1.09797,1.809281 1.42969,2.328125 0.30746,0.480902 2.22577,3.595634 4.22656,6.86914 2.00158,3.274799 3.91283,6.388274 4.26953,6.953125 1.34736,2.13359 1.96801,3.137904 4.85547,7.863282 1.64547,2.69285 3.24662,5.299644 3.58398,5.830078 0.84576,1.329746 2.80798,4.52545 4.57032,7.423828 0.88116,1.449189 1.71302,2.825973 2.33203,3.859375 0.3095,0.516701 0.56615,0.947211 0.74804,1.257812 0.0909,0.155301 0.1628,0.282269 0.21289,0.371094 0.0501,0.08882 0.097,0.197217 0.0625,0.107422 0.0612,0.1595 0.14197,0.298682 0.24805,0.419922 0.10608,0.12124 0.21969,0.277344 0.54102,0.277344 8.1e-4,0 0.0762,-0.0053 0.10547,-0.01172 0.0293,-0.0064 0.054,-0.01368 0.0742,-0.02148 0.0404,-0.01561 0.0665,-0.02962 0.0879,-0.04297 0.0428,-0.02669 0.0656,-0.04808 0.0859,-0.06641 0.0407,-0.03665 0.0665,-0.06572 0.0957,-0.09961 0.0585,-0.06777 0.1207,-0.148829 0.19532,-0.25 0.14922,-0.202341 0.34497,-0.482793 0.57617,-0.828125 0.4624,-0.690664 1.06806,-1.636886 1.71289,-2.677734 1.28436,-2.073134 2.603,-4.191488 2.91992,-4.691406 0.33256,-0.524575 1.7585,-2.836898 3.18555,-5.166016 3.5082,-5.725818 8.01436,-13.037395 8.71875,-14.148438 0.33214,-0.523888 1.46,-2.361904 2.52148,-4.109375 1.05995,-1.744961 2.19602,-3.598021 2.50977,-4.09375 0.96716,-1.528186 2.25563,-3.639212 3.30469,-5.392578 0.52452,-0.876683 0.98937,-1.662369 1.32422,-2.24414 0.16742,-0.290886 0.30265,-0.531755 0.39843,-0.708985 0.0479,-0.08862 0.0854,-0.160834 0.11524,-0.222656 0.0149,-0.03091 0.0277,-0.05852 0.041,-0.0918 0.0133,-0.03328 0.043,-0.01932 0.043,-0.208984 0,-2.59e-4 -0.20861,-0.398179 -0.20898,-0.398438 -3.8e-4,-2.59e-4 -0.0932,-0.05035 -0.11719,-0.05859 -0.0481,-0.01649 -0.0659,-0.01676 -0.082,-0.01953 -0.0324,-0.0055 -0.0477,-0.0082 -0.0664,-0.0098 -0.0375,-0.0032 -0.0783,-0.0037 -0.1289,-0.0059 -0.10127,-0.0043 -0.24193,-0.0097 -0.42774,-0.01367 -0.37162,-0.0079 -0.91567,-0.01433 -1.61523,-0.02148 -1.39914,-0.0143 -3.41989,-0.02831 -5.91407,-0.03906 -4.98836,-0.02149 -11.86857,-0.0332 -19.43554,-0.0332 z m 69.51757,0.34961 c -6.90363,0.09512 -13.81151,3.358572 -18.02148,8.695312 -5.29983,6.718299 -6.60804,15.459416 -3.48828,23.337891 3.00656,7.592618 9.67775,12.993352 17.87304,14.480469 11.93663,2.166016 23.45421,-5.390833 26.70118,-17.490235 0.84308,-3.141787 0.85523,-8.016148 0.0273,-11.15625 -2.55181,-9.678747 -10.32261,-16.517183 -20.14062,-17.710937 -0.97814,-0.11893 -1.96494,-0.169839 -2.95118,-0.15625 z m -55.14257,0.939453 c 7.22359,-0.03773 19.0619,-0.03773 26.29882,0 l 10.91797,0.05664 -0.85937,0.38086 c -1.59836,0.708252 -4.63347,2.037434 -6.74219,2.953125 -5.50666,2.391228 -10.04041,4.38032 -13.23438,5.806641 -1.73865,0.776424 -2.61175,1.1591 -3.04882,1.27539 -0.21854,0.05814 -0.3009,0.05368 -0.37696,0.03711 -0.0761,-0.01657 -0.18729,-0.06824 -0.38867,-0.173829 -0.40565,-0.212706 -1.34246,-0.635731 -2.15234,-0.976562 -0.79733,-0.335545 -1.81255,-0.772095 -2.24024,-0.962891 -1.30894,-0.583929 -5.64131,-2.48366 -13.60547,-5.964844 l -5.43359,-2.375 z m 54.57617,0.533203 c 4.53685,-0.160604 6.66857,0.293214 10.60156,2.248047 2.52667,1.255843 4.25256,2.474084 5.8457,4.115234 -3.15883,-2.138386 -6.73376,-3.056479 -10.21093,-2.759765 -4.6741,0.398848 -9.15798,2.974817 -12.18946,7.572265 -3.74496,5.679488 -4.20905,13.471461 -1.18359,19.707032 0.89186,1.83814 1.61269,2.806125 3.44531,4.636718 2.47388,2.471152 4.57801,3.758225 7.36524,4.480469 1.92919,0.499903 5.76797,0.575342 7.52734,0.119141 1.50867,-0.391196 3.04376,-1.096153 4.50586,-1.992188 -2.39647,2.206926 -5.24462,3.847019 -8.60742,4.90625 -1.77484,0.559049 -2.79074,0.707715 -5.42774,0.789063 -3.55335,0.109618 -4.73569,-0.03516 -7.41992,-0.902344 -7.14267,-2.307556 -12.01748,-7.265711 -14.50586,-14.779297 -0.68651,-2.072755 -0.72061,-2.409332 -0.72461,-6.332031 -0.004,-3.939524 0.0269,-4.247794 0.71875,-6.330078 1.91781,-5.772441 6.0951,-10.712287 11.24024,-13.3125 3.03677,-1.534708 5.0798,-2.026551 9.01953,-2.166016 z m -66.89649,0.416016 c 0.39945,0.156114 0.77387,0.300369 1.34961,0.541015 1.65471,0.691626 3.94846,1.69582 6.42188,2.820313 0.5079,0.230911 1.69327,0.745823 2.65625,1.152343 0.95506,0.403175 2.81441,1.204969 4.12109,1.779297 1.31129,0.576354 4.10767,1.796064 6.21875,2.710938 1.0527,0.456209 2.03186,0.891302 2.75977,1.222656 0.36395,0.165677 0.66561,0.305465 0.8789,0.408203 0.0612,0.02949 0.097,0.04753 0.14258,0.07031 0.002,0.02838 0.004,0.04016 0.006,0.07422 0.0116,0.209718 0.023,0.523982 0.0332,0.925781 0.0204,0.803597 0.0368,1.958814 0.0488,3.378906 0.0241,2.840184 0.0305,6.737579 0.0117,11.001953 l -0.0605,13.839844 -1.5,-2.421875 c -1.30933,-2.113011 -3.2336,-5.229455 -4.27539,-6.925781 -1.04287,-1.698096 -2.30249,-3.741351 -2.80273,-4.544922 -0.49499,-0.795135 -1.77112,-2.88175 -2.83203,-4.626953 -1.885,-3.10083 -2.39566,-3.92431 -3.76563,-6.091797 -0.3786,-0.599006 -2.84961,-4.614401 -5.24414,-8.513672 -1.19726,-1.949636 -2.37931,-3.874164 -3.27539,-5.337891 -0.36511,-0.596401 -0.64002,-1.049025 -0.89258,-1.46289 z m 50.89844,0.01953 c -0.0395,0.0692 -0.0563,0.102842 -0.0996,0.177734 -0.43143,0.746272 -1.04503,1.766713 -1.73437,2.875 -1.67421,2.691681 -5.11419,8.263455 -8.17774,13.238282 -1.53177,2.487413 -2.96911,4.824348 -4.04492,6.578124 -0.53791,0.876889 -0.9849,1.607935 -1.30859,2.138672 -0.3237,0.530738 -0.50875,0.834205 -0.57422,0.951172 -0.12361,0.220809 -1.12874,1.871706 -2.17383,3.572266 -1.04509,1.70056 -2.1591,3.499805 -2.57422,4.15039 -0.33468,0.524503 -1.46442,2.361653 -2.5293,4.109376 -0.50322,0.825924 -0.97377,1.583346 -1.35351,2.189453 -0.0226,-0.74594 -0.043,-1.685867 -0.0606,-2.935547 -0.0392,-2.785399 -0.0644,-6.664405 -0.0644,-10.962891 V 25.167969 l 0.41406,-0.154297 c 0.45666,-0.170012 1.94134,-0.809614 3.40039,-1.457031 1.44945,-0.643159 6.51321,-2.85565 11.24219,-4.914063 2.36541,-1.029608 4.63497,-2.024625 6.38476,-2.796875 1.73407,-0.765311 2.91073,-1.289952 3.25391,-1.457031 z m 23.45508,4.425781 c 2.04046,-9.9e-5 4.13325,0.449193 6.17773,1.402344 1.81263,0.845063 2.47337,1.336007 4.22461,3.121094 2.20907,2.251769 3.47512,4.400836 4.45117,7.570312 0.30505,0.992112 0.48782,3.005613 0.48633,4.994141 -0.001,1.989417 -0.18838,4.007268 -0.49609,5.009765 -1.49635,4.87507 -4.63281,8.712687 -8.65039,10.640625 -1.24698,0.598401 -2.94586,1.171714 -3.83594,1.314454 -2.69334,0.431929 -4.84437,0.184291 -7.39844,-0.853516 -8.18086,-3.324184 -12.3007,-13.303173 -9.15234,-22.314453 2.3917,-6.845567 8.07204,-10.884466 14.19336,-10.884766 z"
       transform="translate(-72.192832)" />
    <text
       xml:space="preserve"
       style="font-style:normal;font-variant:normal;font-weight:normal;font-stretch:normal;font-size:29.72202301px;line-height:1.25;font-family:'URW Bookman L';-inkscape-font-specification:'URW Bookman L';letter-spacing:0px;word-spacing:0px;fill:#ffffff;fill-opacity:1;stroke:none;stroke-width:1.85762644"
       x="73.671219"
       y="86.15625"
       id="text816"><tspan
         sodipodi:role="line"
         id="tspan814"
         x="73.671219"
         y="86.15625"
         style="font-style:normal;font-variant:normal;font-weight:normal;font-stretch:normal;font-family:Corbel;-inkscape-font-specification:Corbel;fill:#ffffff;stroke-width:1.85762644"
         transform="translate(4.6254018)">VCG</tspan></text>
  </g>
</svg>
