<svg width="947.5" height="422.1" xmlns="http://www.w3.org/2000/svg">
    <g class="openlime-button openlime-light" transform="translate(-67.8 -195.3)">
        <rect ry="12" rx="12" y="301.1" x="506.9" height="71" width="71" fill="#fff" fill-rule="evenodd" stroke="#666" stroke-width="2"/>
        <g class="openlime-bulb" fill="#fc0" stroke="#666" stroke-width="3.9">
            <path transform="matrix(.76585 0 0 .766 504.1 298.3)" d="M39.6 59.3s-1-.3-1.7.2c-.8.4-.4 4.9-.4 4.9l7.8-.1s-6.7 2-7.4 3.5c-.6 1.5.8 3.8 2.1 4.2 1 .3 22-7.6 22.5-8.2.4-.6.7-3.8.3-4.3-.5-.5-2.3-.5-2.3-.5s-.6 0 0-2.2c.6-2.3 7.3-11.3 9-17 1.5-5.4.6-12.6-1.2-16-1.9-3.7-4.6-6-8.3-7.8a24.8 24.8 0 00-16.2-.9c-5.5 1.8-9.7 5-12.2 9.4A25.3 25.3 0 0030.2 39c.7 3 8.4 14.3 9.2 16.6a6 6 0 01.2 3.6zM38.4 77c.2 2.2 7.2 8.4 10 8.7 2.9.3 2.5.5 4.5-.2a39 39 0 008.8-6c.8-1.9 1.3-3.9.6-5-.7-1.3-1.9-.4-3.1 0-1.3.5-6.7 3.3-8.4 4-1.4.4-4.5-.4-4.5-.4s15.4-6 16-7.3c.6-1.4.1-3.9-1.3-4.2-1-.2-21 7.5-21.5 8.5l-1.1 2z"/>
        </g>
    </g>
    <g transform="translate(22.1 -195.3)" class="openlime-button openlime-home">
        <rect width="71" height="71" x="161.6" y="301.1" rx="12" ry="12" fill="#fff" fill-rule="evenodd" stroke="#666" stroke-width="2"/>
        <path d="M197.1 312.7l-27.4 20.5h6.9v27.4h24v-20.5h10.3v20.5h6.8v-27.4h6.9zM183.4 340h10.3v13.7h-10.3z" fill="gray"/>
    </g>
    <g transform="translate(22.3 -319.6)" stroke-width="2" stroke="#666">
        <rect ry="10" rx="10" y="325.6" x="614" height="47" width="47" fill="#fff" fill-rule="evenodd"/>
        <path d="M647 333.5l-9.5 9.4-9.4-9.4-6.3 6.2 9.4 9.4-9.4 9.5 6.3 6.2 9.4-9.4 9.4 9.4 6.3-6.2-9.4-9.5 9.4-9.4z" fill="red" fill-opacity=".8"/>
    </g>
    <g class="openlime-button openlime-zoomin" transform="translate(21 -195.3)">
        <rect ry="12" rx="12" y="301.1" x="248" height="71" width="71" fill="#fff" fill-rule="evenodd" stroke="#666" stroke-width="2"/>
        <g fill="gray" stroke-width="1.9">
            <path d="M275.8 310a18.7 18.7 0 1011 34l19.3 19.3 3.8-3.7-19.3-19.3a18.8 18.8 0 00-14.8-30.3zm0 5a13.5 13.5 0 110 27 13.5 13.5 0 010-27z"/>
            <path d="M273.6 321.2v5.4h-5.4v5.3h5.4v5.4h5.2v-5.4h5.4v-5.3h-5.4v-5.4z"/>
        </g>
    </g>
    <g class="openlime-button openlime-zoomout" transform="translate(19.7 -195.3)">
        <rect ry="12" rx="12" y="301.1" x="334.3" height="71" width="71" fill="#fff" fill-rule="evenodd" stroke="#666" stroke-width="2"/>
        <g fill="gray">
            <path d="M362.1 310a18.7 18.7 0 1011 34l19.3 19.3 3.8-3.7-19.3-19.3A18.8 18.8 0 00362 310zm0 5a13.5 13.5 0 11.1 27 13.5 13.5 0 010-27z"/>
            <path d="M354.5 326.6v5.3h16v-5.3z"/>
        </g>
    </g>
    <g class="openlime-button openlime-fullscreen" transform="translate(16 -195.3)">
        <rect width="71" height="71" x="82.6" y="301.1" rx="12" ry="12" fill="#fff" stroke="#666" stroke-width="2"/>
        <g class="openlime-expand" fill="none" stroke="gray" stroke-width="5">
            <path d="M123.1 316.6h15M138.1 331.6v-17.5M138.1 341.6v15M123.1 356.6h17.5M113.1 356.6h-15M98.1 341.6v17.5M98.1 331.6v-15M113.1 316.6H95.6"/>
        </g>
        <g class="openlime-compact" fill="none" stroke="gray" stroke-width="5">
            <path d="M125.6 329.1h15M125.6 331.6v-17.5M125.6 344.1v15M123.1 344.1h17.5M110.6 344.1h-15M110.6 341.6v17.5M110.6 329.1v-15M113.1 329.1H95.6"/>
        </g>
    </g>
    <g class="openlime-button openlime-layers" transform="translate(16 -195.3)">
        <rect ry="12" rx="12" y="301.1" x="509.5" height="71" width="71" fill="#fff" fill-rule="evenodd" stroke="#666" stroke-width="2"/>
        <g fill="#666">
            <path d="M545 309.1l25 12.5-25 12.5-25-12.5z"/>
            <path d="M530 331.6l-10 5 25 12.5 25-12.5-10-5-15 7.5-15-7.5"/>
            <path d="M530 346.6l-10 5 25 12.5 25-12.5-10-5-15 7.5-15-7.5"/>
        </g>
    </g>
    <g class="openlime-button openlime-rotate" transform="translate(332 -79.8)">
        <rect ry="12" rx="12" y="185.7" x="282.2" height="71" width="71" fill="#fff" fill-rule="evenodd" stroke="#666" stroke-width="2"/>
        <path d="M317.8 197v7.4a16.8 16.8 0 0116.8 16.8 16.8 16.8 0 01-2.2 8.1l-5.4-3.1 3.7 13.7 13.6-3.7-5.5-3.2a24.2 24.2 0 003.2-11.8 24.2 24.2 0 00-24.2-24.2zm-13 5.5l-13.6 3.7 5.5 3.2a24.2 24.2 0 00-3.1 11.8 24.2 24.2 0 0024.2 24.2V238a16.8 16.8 0 01-16.8-16.8 16.8 16.8 0 012.1-8.2l5.4 3.2z" fill="gray"/>
    </g>
    <g transform="translate(100 -195.3)" class="openlime-button openlime-ruler" stroke="#666" stroke-width="2">
        <rect ry="12" rx="12" y="301.1" x="598.2" height="71" width="71" fill="#fff" fill-rule="evenodd"/>
        <g fill-opacity="0" fill="none">
            <path d="M621.1 313.8L611 324l35.5 35.5 10.2-10.2zm1.2 6a2 2 0 010 2.7 2 2 0 01-2.7 0 2 2 0 010-2.8 2 2 0 012.7 0z" stroke-linecap="square" stroke-linejoin="round"/>
            <path d="M620.7 333.4l4.6-4.6M625.8 338.5l4.5-4.6M630.8 343.5l4.6-4.6M636 348.6l4.5-4.6M641 353.7l4.6-4.6"/>
        </g>
    </g>
    <g class="openlime-button openlime-flip" transform="translate(16 -195.3)">
        <rect transform="scale(-1 1)" ry="12" rx="12" y="301.1" x="-836.2" height="71" width="71" fill="#fff" fill-rule="evenodd" stroke="#666" stroke-width="2"/>
        <path d="M804.4 308.2a14.1 28.2 0 00-10.8 10l1-.2-1.6 4.5-1.3 4.3-.3 1.4-.5.1a14.1 28.2 0 00-.6 8 14.1 28.2 0 00.2 5.4c2.7.8 6 1.4 9.4 1.7v-10.8l15.1 15.1-15 15.4a14.1 28.2 0 004.4 1.5 14.1 28.2 0 0014.1-28.2 14.1 28.2 0 00-14.1-28.2zm-11.9 43.3a14.1 28.2 0 007.4 11.6v-10.6c-2.6-.2-5-.5-7.4-1z" fill="#666"/>
        <path d="M790.6 321.6c-.4 1.3-1 3.2-1.3 4.7-1.2.4-2.4.8-3.4 1.3-4.4 2.2-6.6 5-6.6 7.5s2.2 5.3 6.6 7.5a40 40 0 0016.5 3.6v-7.5l9 9-9 9.4v-7c-7 0-13.4-1.5-18.3-4-5-2.5-8.8-6.3-8.8-11s3.7-8.5 8.8-11c2-1 4.1-1.8 6.5-2.5z" fill="#666"/>
    </g>
    <g transform="translate(-30.3 -195.3)" class="openlime-tool openlime-add" fill="none" stroke="gray" stroke-width="5">
        <circle r="23.2" cy="510.8" cx="182.7"/>
        <path d="M182.7 499v23.6M194.5 510.8H171"/>
    </g>
    <g class="openlime-tool openlime-export" fill="none" stroke="gray">
        <path d="M248.5 321.7V332a5.1 5.1 0 01-5.2 5.1h-36a5.1 5.1 0 01-5.1-5.1v-10.3" stroke-width="5"/>
        <path stroke-width="4.887313" d="M212.4 308.8l13 12.9 12.8-12.9"/>
        <path stroke-width="5" d="M225.3 321.7v-30.9"/>
    </g>
    <g class="openlime-tool openlime-trash" fill="none" stroke="gray">
        <path stroke-width="5.000394" d="M285.8 300.3h42.8"/>
        <path d="M324 300.3v33.4a4.8 4.8 0 01-4.8 4.7h-23.8a4.8 4.8 0 01-4.8-4.7v-33.4m7.1 0v-4.7a4.8 4.8 0 014.8-4.8h9.5a4.8 4.8 0 014.8 4.8v4.7M302.5 312.2v14.3M312 312.2v14.3" stroke-width="5"/>
    </g>
    <g class="openlime-tool openlime-edit" fill="none" stroke="gray" stroke-width="6.1">
        <path d="M373.2 296H358a4.4 4.4 0 00-4.4 4.3V331a4.4 4.4 0 004.4 4.4h30.6a4.4 4.4 0 004.4-4.4v-15.3" stroke-width="5.038539"/>
        <path d="M389.6 292.7a4.6 4.6 0 016.6 6.5L375.4 320l-8.7 2.2 2.1-8.8z" stroke-width="5.038539"/>
    </g>
    <path d="M447.7 298a4.8 4.8 0 116.7 6.7l-22.7 22.7-9.2 2.6 2.5-9.3z" class="openlime-tool openlime-draw" fill="none" stroke="gray" stroke-width="4"/>
    <g transform="matrix(.79441 0 0 .79441 153.5 -78.6)" class="openlime-tool openlime-visible" fill="none" stroke="gray" stroke-width="5">
        <path d="M497.7 496.9s9.4-19 26-19 26 19 26 19-9.4 19-26 19-26-19-26-19z"/>
        <circle r="7.1" cy="496.9" cx="523.7"/>
    </g>
    <g class="openlime-tool openlime-hidden" fill="none" stroke="gray" stroke-width="5">
        <path d="M647.7 327.9a18.7 18.7 0 01-11 3.8c-13 0-20.4-14.8-20.4-14.8a34.2 34.2 0 019.4-11m7.1-3.4a16.9 16.9 0 014-.4c12.9 0 20.3 14.8 20.3 14.8a34.3 34.3 0 01-4 5.9m-12.5-2a5.6 5.6 0 11-7.8-7.9M616.3 296.5l40.8 40.7" stroke-width="3.7713"/>
    </g>
    <g class="openlime-tool openlime-ok" fill="none" stroke="gray" stroke-width="5.9">
        <path stroke-width="4.945176" d="M491.9 312.4l6.1 6.1 20.7-20.6"/>
        <path d="M516.6 314.4v14.4a4.1 4.1 0 01-4.1 4.2h-28.9a4.1 4.1 0 01-4.1-4.2V300a4.1 4.1 0 014.1-4.1h22.7" stroke-width="4.9885090000000005"/>
    </g>
    <g class="openlime-tool openlime-undo" stroke="gray" fill="none">
        <path stroke-width="4.453237" d="M679.1 304.8v11.7h11.7"/>
        <path d="M684 326.1a17.4 17.4 0 104.1-18l-9 8.4" stroke-width="4.5483"/>
    </g>
    <g class="openlime-tool openlime-erase" fill="none" stroke="gray" stroke-width="4.5">
        <path d="M418.6 389l21.2-21.2 10.6 10.6-15.9 15.9H424zM443.3 364.2l3.6-3.5 10.6 10.6-3.5 3.5z"/>
    </g>
    <g class="openlime-tool openlime-pen" transform="translate(58 -195.3)">
        <path class="openlime-tool openlime-draw" d="M499.7 570.8a4.8 4.8 0 116.7 6.8l-22.7 22.7-9.3 2.5 2.6-9.3z" fill="none" stroke="gray" stroke-width="4"/>
        <circle r="1.3" cy="608.8" cx="470" fill="none" stroke="gray" stroke-width="4.5"/>
        <circle r="1.3" cy="608.8" cx="495" fill="none" stroke="gray" stroke-width="4.5"/>
        <circle r="1.3" cy="596.3" cx="507.5" fill="none" stroke="gray" stroke-width="4.5"/>
        <path d="M472.5 608.8h20M496.8 606.9l8.5-8.3" fill="gray" stroke="gray" stroke-width="2"/>
    </g>
    <g class="openlime-tool openlime-colorpick" fill="none" stroke="gray">
        <path d="M365.5 381.4L351.8 395l1.2 5.4h0l5.6 1.3 13.7-13.7M353 400.5l-.3.4-3.2 3.2z" stroke-width="3.9"/>
        <path d="M365.1 375.6l12.5 12.5M374.5 372l-6.5 6.5 6.8 6.8 6.5-6.5c4.3-4.4-2.3-11.1-6.8-6.7z" stroke-width="4" stroke-linecap="round"/>
    </g>
    <g class="openlime-tool openlime-redo" fill="none" stroke="gray">
        <path stroke-width="4.453237" d="M778 298.5v11.7h-11.6"/>
        <path d="M773.2 319.8a17.4 17.4 0 11-4.1-18l9 8.4" stroke-width="4.5"/>
    </g>
    <g class="openlime-button openlime-help" transform="translate(16 -195.3)">
        <rect ry="12" rx="12" y="298.8" x="1.3" height="71" width="71" fill="#fff" stroke="#666" stroke-width="2"/>
        <path d="M33.7 310.5c-5.2.9-10.3 4.4-12.4 10.4l7.3 2.6c1.7-4.7 5.4-6 9-5.3 3.8.6 6.9 3 6.9 8 0 2-1.8 3.9-4.8 6.4-1.6 1.2-3.2 2.5-4.8 4.1-1.5 1.7-3 4-3 6.8h7.8c0-.2.1-.6 1-1.6.8-.9 2.2-2 3.9-3.3 3.2-2.7 7.6-6.4 7.6-12.4a15.9 15.9 0 00-18.5-15.7zM36.6 350.3a4 4 0 100 8 4 4 0 100-8z" style="line-height:normal;font-variant-ligatures:normal;font-variant-position:normal;font-variant-caps:normal;font-variant-numeric:normal;font-variant-alternates:normal;font-feature-settings:normal;text-indent:0;text-align:start;text-decoration-line:none;text-decoration-style:solid;text-decoration-color:#000;text-transform:none;text-orientation:mixed;white-space:normal;shape-padding:0;isolation:auto;mix-blend-mode:normal;solid-color:#000;solid-opacity:1" color="#000" font-weight="400" font-family="sans-serif" overflow="visible" fill="gray"/>
    </g>
    <g class="openlime-close" stroke="gray" fill="none" stroke-width="5">
        <path d="M726.9 42.7l28.3-28.3M726.9 14.4l28.3 28.3"/>
    </g>
    <g class="openlime-button openlime-snapshot" transform="translate(16 -195.3)">
        <rect width="71" height="71" x="-925.5" y="303.3" rx="12" ry="12" transform="scale(-1 1)" fill="#fff" fill-rule="evenodd" stroke="#666" stroke-width="2"/>
        <path style="line-height:normal;font-variant-ligatures:normal;font-variant-position:normal;font-variant-caps:normal;font-variant-numeric:normal;font-variant-alternates:normal;font-feature-settings:normal;text-indent:0;text-align:start;text-decoration-line:none;text-decoration-style:solid;text-decoration-color:#000;text-transform:none;text-orientation:mixed;white-space:normal;shape-padding:0;isolation:auto;mix-blend-mode:normal;solid-color:#000;solid-opacity:1" d="M883 315.5a2.5 2.5 0 00-2 1.1l-3.9 5.9h-8c-3.8 0-7 3.2-7 7V355c0 4 3.2 7.2 7 7.2h41.7c4 0 7.1-3.3 7.1-7.2v-25.4c0-4-3.2-7.1-7-7.1h-8l-3.9-5.9a2.5 2.5 0 00-2-1zm1.4 5h11.2l3.9 5.9a2.5 2.5 0 002 1h9.3a2 2 0 012.1 2.2V355a2 2 0 01-2 2.2h-41.7a2 2 0 01-2.1-2.2v-25.4a2 2 0 012-2.1h9.3a2.5 2.5 0 002.1-1.1z" color="#000" font-weight="400" font-family="sans-serif" overflow="visible" fill="gray"/>
        <path style="line-height:normal;font-variant-ligatures:normal;font-variant-position:normal;font-variant-caps:normal;font-variant-numeric:normal;font-variant-alternates:normal;font-feature-settings:normal;text-indent:0;text-align:start;text-decoration-line:none;text-decoration-style:solid;text-decoration-color:#000;text-transform:none;text-orientation:mixed;white-space:normal;shape-padding:0;isolation:auto;mix-blend-mode:normal;solid-color:#000;solid-opacity:1" d="M890 329.4a11.8 11.8 0 000 23.5c6.5 0 11.8-5.3 11.8-11.7 0-6.5-5.3-11.8-11.8-11.8zm0 5c3.8 0 6.8 3 6.8 6.8 0 3.7-3 6.7-6.8 6.7s-6.8-3-6.8-6.7c0-3.8 3-6.8 6.8-6.8z" color="#000" font-weight="400" font-family="sans-serif" overflow="visible" fill="gray"/>
    </g>
    <path d="M53 291.5h22.6a24.4 24.4 0 0122.7 22.7 24.4 24.4 0 01-22.7 22.7A24.4 24.4 0 0153 314.2v-22.7z" fill="none" stroke="gray" stroke-width="4.2"/>
</svg>
