<?xml version="1.0" encoding="UTF-8" standalone="no"?>
<!-- Created with Inkscape (http://www.inkscape.org/) -->

<svg
   width="19.314583mm"
   height="19.314583mm"
   viewBox="0 0 19.314583 19.314583"
   version="1.1"
   id="svg3279"
   xmlns="http://www.w3.org/2000/svg"
   xmlns:svg="http://www.w3.org/2000/svg">
  <defs
     id="defs3276" />
  <g
     id="g406"
     transform="translate(-0.68252549,0.36637701)">
    <rect
       ry="3.175"
       rx="3.175"
       y="-0.10179351"
       x="0.94710898"
       height="18.785416"
       width="18.785416"
       id="rect2993-9-3"
       style="fill:#ffffff;fill-opacity:1;fill-rule:evenodd;stroke:#666666;stroke-width:0.529167;stroke-linecap:butt;stroke-linejoin:miter;stroke-miterlimit:4;stroke-dasharray:none;stroke-opacity:1" />
    <g
       aria-label="i"
       transform="scale(1.1476023,0.87138203)"
       id="text348"
       style="font-size:25.9103px;line-height:1.25;font-family:'Palace Script MT';-inkscape-font-specification:'Palace Script MT';font-variant-ligatures:none;letter-spacing:0px;word-spacing:0px;stroke-width:0.303636">
      <path
         d="M 12.106211,18.992435 C 11.225261,18.888794 10.888427,18.50014 10.888427,17.515548 V 7.6696346 H 5.9136497 v 0.6218472 c 1.1400532,0.2072824 1.3473356,0.4404751 1.3732459,1.5287077 v 7.6176275 c -0.02591,1.088233 -0.2072824,1.295515 -1.3732459,1.554618 v 0.621848 H 12.106211 Z M 9.0747063,1.7102658 c -1.1141429,0 -2.0210034,0.9068605 -2.0210034,1.995093 0,1.1659635 0.8550399,2.0210034 1.9950931,2.0210034 1.140053,0 2.021003,-0.8550399 2.021003,-1.9950931 0,-1.1400531 -0.88095,-2.0210033 -1.9950927,-2.0210033 z"
         style="font-weight:bold;font-family:'Nimbus Roman';-inkscape-font-specification:'Nimbus Roman,  Bold'"
         id="path400" />
    </g>
  </g>
</svg>
