<svg xmlns="http://www.w3.org/2000/svg" width="509.83" height="83"><g class="openlime-button openlime-light" transform="translate(-160.5 -295.15)"><rect ry="12" rx="12" y="301.15" x="506.9" height="71" width="71" fill="#fff" fill-rule="evenodd" stroke="#666" stroke-width="2"/><g class="openlime-bulb" fill="#fc0" stroke="#666" stroke-width="3.92"><path transform="matrix(.76585 0 0 .766 504.12 298.27)" d="M39.65 59.34s-1.04-.3-1.77.13c-.73.42-.38 4.92-.38 4.92l7.83-.12s-6.75 2.02-7.39 3.53c-.63 1.52.8 3.8 2.09 4.17 1.02.29 21.99-7.54 22.47-8.2.43-.6.7-3.8.26-4.3-.45-.5-2.21-.44-2.21-.44s-.7.06-.07-2.21c.63-2.28 7.33-11.3 8.97-16.99 1.58-5.47.66-12.64-1.14-16.1-1.9-3.65-4.6-6-8.33-7.7-3.74-1.71-10.66-2.68-16.16-.88-5.5 1.79-9.76 5.04-12.25 9.34-2.24 3.86-2.15 11.62-1.4 14.65.77 3.03 8.47 14.27 9.23 16.54.75 2.27.25 3.66.25 3.66zM38.39 77.08c.19 2.09 7.2 8.34 10.03 8.65 2.85.32 2.47.5 4.49-.25 2.02-.76 8.46-5.18 8.77-5.94.81-1.93 1.33-3.91.63-5.1-.7-1.21-1.89-.33-3.15.12-1.27.44-6.63 3.22-8.4 3.85-1.39.5-4.42-.32-4.42-.32s15.37-5.93 15.97-7.26c.64-1.39.13-3.91-1.32-4.23-.93-.2-21.03 7.51-21.53 8.46l-1.07 2.02z"/></g></g><g transform="translate(-70.54 -295.15)" class="openlime-button openlime-home"><rect width="71" height="71" x="161.64" y="301.15" rx="12" ry="12" fill="#fff" fill-rule="evenodd" stroke="#666" stroke-width="2"/><path d="M197.14 312.65l-27.42 20.57h6.86v27.42h24v-20.56h10.27v20.56h6.86v-27.42h6.86zm-13.7 27.43h10.27v13.7h-10.28z" fill="gray"/></g><g transform="translate(-70.42 -419.5)" stroke-width="2" stroke="#666"><rect ry="10" rx="10" y="325.65" x="614.02" height="47" width="47" fill="#fff" fill-rule="evenodd"/><path d="M646.93 333.45l-9.41 9.42-9.42-9.42-6.28 6.28 9.42 9.42-9.42 9.42 6.28 6.27 9.42-9.41 9.41 9.41 6.28-6.27-9.42-9.42 9.42-9.42z" fill="red" fill-opacity=".8"/></g><g class="openlime-button openlime-zoomin" transform="translate(-71.76 -295.15)"><rect ry="12" rx="12" y="301.15" x="247.96" height="71" width="71" fill="#fff" fill-rule="evenodd" stroke="#666" stroke-width="2"/><g fill="gray" stroke-width="1.86"><path d="M275.8 309.97a18.76 18.76 0 1010.93 34l19.36 19.36 3.77-3.78-19.29-19.29c2.5-3.19 4-7.19 4-11.54 0-10.36-8.41-18.75-18.77-18.75zm.06 5.08a13.47 13.47 0 110 26.96 13.47 13.47 0 110-26.95z"/><path d="M273.57 321.2v5.42h-5.41v5.24h5.41v5.41h5.24v-5.41h5.41v-5.24h-5.41v-5.41z"/></g></g><g class="openlime-button openlime-zoomout" transform="translate(-72.97 -295.15)"><rect ry="12" rx="12" y="301.15" x="334.27" height="71" width="71" fill="#fff" fill-rule="evenodd" stroke="#666" stroke-width="2"/><g fill="gray"><path d="M362.1 309.97a18.76 18.76 0 1010.93 34l19.37 19.36 3.78-3.78-19.3-19.29c2.5-3.19 4-7.19 4-11.54 0-10.36-8.41-18.75-18.77-18.75zm.07 5.08a13.47 13.47 0 110 26.96 13.47 13.47 0 110-26.95z"/><path d="M354.47 326.62v5.24h16.06v-5.24z"/></g></g><g class="openlime-button openlime-fullscreen" transform="translate(-76.63 -295.15)"><rect width="71" height="71" x="82.63" y="301.15" rx="12" ry="12" fill="#fff" stroke="#666" stroke-width="2"/><g class="openlime-expand" fill="none" stroke="gray" stroke-width="5"><path d="M123.13 316.65h15M138.13 331.65v-17.5M138.13 341.65v15M123.13 356.65h17.5M113.13 356.65h-15M98.13 341.65v17.5M98.13 331.65v-15M113.13 316.65h-17.5"/></g><g class="openlime-compact" fill="none" stroke="gray" stroke-width="5"><path d="M125.63 329.15h15M125.63 331.65v-17.5M125.63 344.15v15M123.13 344.15h17.5M110.63 344.15h-15M110.63 341.65v17.5M110.63 329.15v-15M113.13 329.15h-17.5"/></g></g><g class="openlime-button openlime-layers" transform="translate(-76.63 -295.15)"><rect ry="12" rx="12" y="301.15" x="509.46" height="71" width="71" fill="#fff" fill-rule="evenodd" stroke="#666" stroke-width="2"/><g fill="#666"><path d="M544.96 309.15l25 12.5-25 12.5-25-12.5z"/><path d="M529.96 331.65l-10 5 25 12.5 25-12.5-10-5-15 7.5-15-7.5"/><path d="M529.96 346.65l-10 5 25 12.5 25-12.5-10-5-15 7.5-15-7.5"/></g></g><g class="openlime-button openlime-rotate" transform="translate(239.37 -179.67)"><rect ry="12" rx="12" y="185.67" x="282.25" height="71" width="71" fill="#fff" fill-rule="evenodd" stroke="#666" stroke-width="2"/><path d="M317.78 196.95v7.43a16.8 16.8 0 0116.8 16.79 16.8 16.8 0 01-2.15 8.17l-5.45-3.14 3.68 13.65 13.65-3.67-5.46-3.15a24.22 24.22 0 003.15-11.86 24.22 24.22 0 00-24.22-24.22zm-12.94 5.56l-13.66 3.68 5.5 3.17a24.22 24.22 0 00-3.12 11.81 24.22 24.22 0 0024.22 24.22v-7.43a16.8 16.8 0 01-16.8-16.79 16.8 16.8 0 012.12-8.12l5.42 3.12z" fill="gray"/></g><g transform="translate(7.37 -295.15)" class="openlime-button openlime-ruler" stroke="#666" stroke-width="2"><rect ry="12" rx="12" y="301.15" x="598.25" height="71" width="71" fill="#fff" fill-rule="evenodd"/><g fill-opacity="0" fill="none"><path d="M621.11 313.84l-10.16 10.17 35.44 35.44 10.16-10.16zm1.2 5.88a1.94 1.94 0 010 2.75 1.94 1.94 0 01-2.75 0 1.94 1.94 0 010-2.75 1.94 1.94 0 012.75 0z" stroke-linecap="square" stroke-linejoin="round"/><path d="M620.67 333.38l4.6-4.6M625.75 338.46l4.6-4.6M630.83 343.54l4.6-4.6M635.91 348.62l4.6-4.6M641 353.7l4.6-4.59"/></g></g><g class="openlime-button openlime-flip" transform="translate(-76.63 -295.15)"><rect transform="scale(-1 1)" ry="12" rx="12" y="301.15" x="-836.25" height="71" width="71" fill="#fff" fill-rule="evenodd" stroke="#666" stroke-width="2"/><path d="M804.38 308.16a14.11 28.23 0 00-10.8 10.1l1.05-.29-1.67 4.54c-.4 1.08-.98 3-1.26 4.28l-.3 1.37-.54.19a14.11 28.23 0 00-.59 8.03 14.11 28.23 0 00.27 5.3c2.7.83 5.92 1.4 9.36 1.68v-10.72l15.1 15.1-15.05 15.4a14.11 28.23 0 004.43 1.47 14.11 28.23 0 0014.12-28.23 14.11 28.23 0 00-14.12-28.22zm-11.87 43.38a14.11 28.23 0 007.39 11.57V352.5a54.47 54.47 0 01-7.39-.96z" fill="#666"/><path d="M790.62 321.64a40.25 40.25 0 00-1.36 4.62c-1.2.41-2.34.88-3.36 1.39-4.37 2.18-6.55 4.93-6.55 7.46 0 2.53 2.18 5.27 6.55 7.46 4.14 2.07 9.99 3.45 16.5 3.59v-7.48l9.08 9.09-9.08 9.3v-6.91c-7.06-.14-13.44-1.6-18.28-4.01-5.1-2.55-8.77-6.35-8.77-11.04 0-4.7 3.67-8.5 8.77-11.04a34.86 34.86 0 016.5-2.43z" fill="#666"/></g></svg>