<svg xmlns="http://www.w3.org/2000/svg" width="578.768" height="77"><g transform="translate(-69.01 -298.148)"><rect ry="12" rx="12" y="301.148" x="420.583" height="71" width="71" fill="#fff" fill-rule="evenodd" stroke="#666" stroke-width="2"/><path d="M448.172 343.729s-.793-.23-1.354.096c-.56.327-.29 3.773-.29 3.773l5.996-.097s-5.174 1.547-5.657 2.708c-.484 1.16.614 2.916 1.595 3.192.786.221 16.84-5.772 17.213-6.287.324-.446.532-2.902.194-3.289-.339-.386-1.693-.338-1.693-.338s-.531.048-.048-1.693c.484-1.74 5.609-8.656 6.866-13.009 1.211-4.193.51-9.686-.87-12.332-1.458-2.795-3.53-4.594-6.383-5.9-2.864-1.31-8.16-2.052-12.378-.677-4.201 1.37-7.472 3.864-9.38 7.158-1.712 2.956-1.644 8.898-1.064 11.22.58 2.32 6.48 10.929 7.06 12.67.58 1.74.193 2.805.193 2.805zm-.967 13.589c.145 1.596 5.512 6.384 7.688 6.626 2.176.241 1.886.386 3.433-.194 1.547-.58 6.48-3.965 6.72-4.546.619-1.484 1.016-2.998.484-3.917-.533-.922-1.45-.242-2.417.097-.967.338-5.077 2.466-6.431 2.95-1.063.38-3.385-.242-3.385-.242s11.773-4.548 12.233-5.562c.484-1.064.097-2.998-1.015-3.24-.709-.154-16.101 5.755-16.488 6.48-.387.726-.822 1.548-.822 1.548z" fill="gray"/></g><g class="openlime-button openlime-light" transform="translate(-69.01 -298.148)" stroke="#666"><rect ry="12" rx="12" y="301.148" x="506.896" height="71" width="71" fill="#fff" fill-rule="evenodd" stroke-width="2"/><path transform="matrix(.76585 0 0 .766 504.12 298.274)" d="M39.648 59.341s-1.036-.3-1.767.127c-.732.426-.38 4.924-.38 4.924l7.83-.126s-6.756 2.02-7.387 3.535c-.631 1.516.803 3.807 2.083 4.167 1.026.289 21.988-7.535 22.476-8.207.423-.583.695-3.788.253-4.293-.442-.505-2.21-.442-2.21-.442s-.694.063-.063-2.21 7.323-11.301 8.965-16.983c1.581-5.474.666-12.645-1.136-16.1-1.904-3.649-4.61-5.997-8.334-7.702-3.74-1.711-10.654-2.68-16.163-.884-5.486 1.788-9.757 5.044-12.248 9.344-2.235 3.86-2.146 11.617-1.389 14.647.758 3.03 8.46 14.269 9.218 16.542.758 2.272.252 3.661.252 3.661zm-1.262 17.741c.19 2.084 7.197 8.334 10.038 8.65 2.841.315 2.462.505 4.483-.253 2.02-.758 8.46-5.177 8.775-5.935.808-1.937 1.326-3.914.632-5.113-.697-1.204-1.894-.316-3.157.126-1.263.442-6.63 3.22-8.397 3.851-1.388.496-4.42-.316-4.42-.316s15.372-5.937 15.974-7.26c.631-1.39.126-3.914-1.326-4.23-.925-.201-21.024 7.513-21.529 8.46-.505.947-1.073 2.02-1.073 2.02z" fill="#fc0" stroke-width="2.611"/></g><g transform="translate(-69.01 -298.148)" class="openlime-button openlime-home"><rect width="71" height="71" x="161.643" y="301.148" rx="12" ry="12" fill="#fff" fill-rule="evenodd" stroke="#666" stroke-width="2"/><path d="M197.143 312.653L169.72 333.22h6.855v27.423h23.996v-20.567h10.283v20.567h6.856V333.22h6.856zm-13.712 27.423h10.284v13.711h-10.284z" fill="gray"/></g><g transform="translate(-85.248 -312.434)" stroke-width="2" stroke="#666"><rect ry="10" rx="10" y="325.648" x="614.016" height="47" width="47" fill="#fff" fill-rule="evenodd"/><path d="M646.934 333.452l-9.418 9.417-9.418-9.417-6.278 6.278 9.418 9.418-9.418 9.418 6.278 6.278 9.418-9.418 9.418 9.418 6.278-6.278-9.418-9.418 9.418-9.418z" fill="red" fill-opacity=".8"/></g><g class="openlime-button openlime-zoomin" transform="translate(-69.01 -298.148)"><rect ry="12" rx="12" y="301.148" x="247.956" height="71" width="71" fill="#fff" fill-rule="evenodd" stroke="#666" stroke-width="2"/><g fill="gray" stroke-width="1.861"><path d="M275.796 309.969c-10.36 0-18.746 8.386-18.746 18.746s8.386 18.768 18.746 18.768c4.079 0 7.854-1.3 10.934-3.513l19.357 19.357 3.776-3.775-19.292-19.292a18.65 18.65 0 003.993-11.545c0-10.36-8.408-18.746-18.768-18.746zm.066 5.085c7.445 0 13.486 6.02 13.486 13.465s-6.041 13.487-13.486 13.487c-7.446 0-13.487-6.042-13.487-13.487 0-7.446 6.041-13.465 13.487-13.465z"/><path d="M273.57 321.208v5.412h-5.412v5.238h5.412v5.412h5.238v-5.412h5.412v-5.238h-5.412v-5.412z"/></g></g><g class="openlime-button openlime-fullscreen" transform="translate(-69.01 -298.148)"><rect width="71" height="71" x="72.01" y="301.148" rx="12" ry="12" fill="#fff" stroke="#666" stroke-width="2"/><path d="M112.5 356.683h15v-15m0-10v-15h-15m-25 25v15h15m0-40h-15v15" fill="none" stroke="gray" stroke-width="5"/><path d="M100 359.183v-15H85m45 0h-15v15m0-45v15h15m-45 0h15v-15" fill="none" stroke="gray" stroke-width="5" stroke-linecap="square"/></g><g class="openlime-button openlime-zoomout" transform="translate(-69.01 -298.148)"><rect ry="12" rx="12" y="301.148" x="334.269" height="71" width="71" fill="#fff" fill-rule="evenodd" stroke="#666" stroke-width="2"/><g fill="gray"><path d="M362.11 309.969c-10.36 0-18.747 8.386-18.747 18.746s8.386 18.768 18.746 18.768c4.079 0 7.854-1.3 10.934-3.513l19.357 19.357 3.776-3.775-19.292-19.292a18.65 18.65 0 003.994-11.545c0-10.36-8.409-18.746-18.769-18.746zm.065 5.085c7.445 0 13.487 6.02 13.487 13.465s-6.042 13.487-13.487 13.487-13.487-6.042-13.487-13.487c0-7.446 6.042-13.465 13.487-13.465z"/><path d="M354.471 326.62v5.238h16.062v-5.238z"/></g></g></svg>