<svg xmlns="http://www.w3.org/2000/svg" width="509.8" height="83"><g class="openlime-button openlime-light" transform="translate(-160.5 -295.1)"><rect ry="12" rx="12" y="301.1" x="506.9" height="71" width="71" fill="#fff" fill-rule="evenodd" stroke="#666" stroke-width="2"/><g class="openlime-bulb" fill="#fc0" stroke="#666" stroke-width="3.9"><path transform="matrix(.76585 0 0 .766 504.1 298.3)" d="M39.6 59.3s-1-.3-1.7.2c-.8.4-.4 4.9-.4 4.9l7.8-.1s-6.7 2-7.4 3.5c-.6 1.5.8 3.8 2.1 4.2 1 .3 22-7.6 22.5-8.2.4-.6.7-3.8.3-4.3-.5-.5-2.3-.5-2.3-.5s-.6 0 0-2.2c.6-2.3 7.3-11.3 9-17 1.5-5.4.6-12.6-1.2-16-1.9-3.7-4.6-6-8.3-7.8a24.8 24.8 0 00-16.2-.9c-5.5 1.8-9.7 5-12.2 9.4A25.3 25.3 0 0030.2 39c.7 3 8.4 14.3 9.2 16.6a6 6 0 01.2 3.6zM38.4 77c.2 2.2 7.2 8.4 10 8.7 2.9.3 2.5.5 4.5-.2a39 39 0 008.8-6c.8-1.9 1.3-3.9.6-5-.7-1.3-1.9-.4-3.1 0-1.3.5-6.7 3.3-8.4 4-1.4.4-4.5-.4-4.5-.4s15.4-6 16-7.3c.6-1.4.1-3.9-1.3-4.2-1-.2-21 7.5-21.5 8.5l-1.1 2z"/></g></g><g transform="translate(-70.5 -295.1)" class="openlime-button openlime-home"><rect width="71" height="71" x="161.6" y="301.1" rx="12" ry="12" fill="#fff" fill-rule="evenodd" stroke="#666" stroke-width="2"/><path d="M197.1 312.7l-27.4 20.5h6.9v27.4h24v-20.5h10.3v20.5h6.8v-27.4h6.9zM183.4 340h10.3v13.7h-10.3z" fill="gray"/></g><g transform="translate(-70.4 -419.5)" stroke-width="2" stroke="#666"><rect ry="10" rx="10" y="325.6" x="614" height="47" width="47" fill="#fff" fill-rule="evenodd"/><path d="M647 333.5l-9.5 9.4-9.4-9.4-6.3 6.2 9.4 9.4-9.4 9.5 6.3 6.2 9.4-9.4 9.4 9.4 6.3-6.2-9.4-9.5 9.4-9.4z" fill="red" fill-opacity=".8"/></g><g class="openlime-button openlime-zoomin" transform="translate(-71.8 -295.1)"><rect ry="12" rx="12" y="301.1" x="248" height="71" width="71" fill="#fff" fill-rule="evenodd" stroke="#666" stroke-width="2"/><g fill="gray" stroke-width="1.9"><path d="M275.8 310a18.7 18.7 0 1011 34l19.3 19.3 3.8-3.7-19.3-19.3a18.8 18.8 0 00-14.8-30.3zm0 5a13.5 13.5 0 110 27 13.5 13.5 0 010-27z"/><path d="M273.6 321.2v5.4h-5.4v5.3h5.4v5.4h5.2v-5.4h5.4v-5.3h-5.4v-5.4z"/></g></g><g class="openlime-button openlime-zoomout" transform="translate(-73 -295.1)"><rect ry="12" rx="12" y="301.1" x="334.3" height="71" width="71" fill="#fff" fill-rule="evenodd" stroke="#666" stroke-width="2"/><g fill="gray"><path d="M362.1 310a18.7 18.7 0 1011 34l19.3 19.3 3.8-3.7-19.3-19.3A18.8 18.8 0 00362 310zm0 5a13.5 13.5 0 11.1 27 13.5 13.5 0 010-27z"/><path d="M354.5 326.6v5.3h16v-5.3z"/></g></g><g class="openlime-button openlime-fullscreen" transform="translate(-76.6 -295.1)"><rect width="71" height="71" x="82.6" y="301.1" rx="12" ry="12" fill="#fff" stroke="#666" stroke-width="2"/><g class="openlime-expand" fill="none" stroke="gray" stroke-width="5"><path d="M123.1 316.6h15M138.1 331.6v-17.5M138.1 341.6v15M123.1 356.6h17.5M113.1 356.6h-15M98.1 341.6v17.5M98.1 331.6v-15M113.1 316.6H95.6"/></g><g class="openlime-compact" fill="none" stroke="gray" stroke-width="5"><path d="M125.6 329.1h15M125.6 331.6v-17.5M125.6 344.1v15M123.1 344.1h17.5M110.6 344.1h-15M110.6 341.6v17.5M110.6 329.1v-15M113.1 329.1H95.6"/></g></g><g class="openlime-button openlime-layers" transform="translate(-76.6 -295.1)"><rect ry="12" rx="12" y="301.1" x="509.5" height="71" width="71" fill="#fff" fill-rule="evenodd" stroke="#666" stroke-width="2"/><g fill="#666"><path d="M545 309.1l25 12.5-25 12.5-25-12.5z"/><path d="M530 331.6l-10 5 25 12.5 25-12.5-10-5-15 7.5-15-7.5"/><path d="M530 346.6l-10 5 25 12.5 25-12.5-10-5-15 7.5-15-7.5"/></g></g><g class="openlime-button openlime-rotate" transform="translate(239.4 -179.7)"><rect ry="12" rx="12" y="185.7" x="282.2" height="71" width="71" fill="#fff" fill-rule="evenodd" stroke="#666" stroke-width="2"/><path d="M317.8 197v7.4a16.8 16.8 0 0116.8 16.8 16.8 16.8 0 01-2.2 8.1l-5.4-3.1 3.7 13.7 13.6-3.7-5.5-3.2a24.2 24.2 0 003.2-11.8 24.2 24.2 0 00-24.2-24.2zm-13 5.5l-13.6 3.7 5.5 3.2a24.2 24.2 0 00-3.1 11.8 24.2 24.2 0 0024.2 24.2V238a16.8 16.8 0 01-16.8-16.8 16.8 16.8 0 012.1-8.2l5.4 3.2z" fill="gray"/></g><g transform="translate(7.4 -295.1)" class="openlime-button openlime-ruler" stroke="#666" stroke-width="2"><rect ry="12" rx="12" y="301.1" x="598.2" height="71" width="71" fill="#fff" fill-rule="evenodd"/><g fill-opacity="0" fill="none"><path d="M621.1 313.8L611 324l35.5 35.5 10.2-10.2zm1.2 6a2 2 0 010 2.7 2 2 0 01-2.7 0 2 2 0 010-2.8 2 2 0 012.7 0z" stroke-linecap="square" stroke-linejoin="round"/><path d="M620.7 333.4l4.6-4.6M625.8 338.5l4.5-4.6M630.8 343.5l4.6-4.6M636 348.6l4.5-4.6M641 353.7l4.6-4.6"/></g></g><g class="openlime-button openlime-flip" transform="translate(-76.6 -295.1)"><rect transform="scale(-1 1)" ry="12" rx="12" y="301.1" x="-836.2" height="71" width="71" fill="#fff" fill-rule="evenodd" stroke="#666" stroke-width="2"/><path d="M804.4 308.2a14.1 28.2 0 00-10.8 10l1-.2-1.6 4.5-1.3 4.3-.3 1.4-.5.1a14.1 28.2 0 00-.6 8 14.1 28.2 0 00.2 5.4c2.7.8 6 1.4 9.4 1.7v-10.8l15.1 15.1-15 15.4a14.1 28.2 0 004.4 1.5 14.1 28.2 0 0014.1-28.2 14.1 28.2 0 00-14.1-28.2zm-11.9 43.3a14.1 28.2 0 007.4 11.6v-10.6c-2.6-.2-5-.5-7.4-1z" fill="#666"/><path d="M790.6 321.6c-.4 1.3-1 3.2-1.3 4.7-1.2.4-2.4.8-3.4 1.3-4.4 2.2-6.6 5-6.6 7.5s2.2 5.3 6.6 7.5a40 40 0 0016.5 3.6v-7.5l9 9-9 9.4v-7c-7 0-13.4-1.5-18.3-4-5-2.5-8.8-6.3-8.8-11s3.7-8.5 8.8-11c2-1 4.1-1.8 6.5-2.5z" fill="#666"/></g><g transform="translate(-161 -295.1)" class="openlime-tool openlime-add" fill="none" stroke="gray" stroke-width="5"><circle r="23.2" cy="510.8" cx="182.7"/><path d="M182.7 499v23.6M194.5 510.8H171"/></g><g class="openlime-tool openlime-export" fill="none" stroke="gray"><path d="M113.8 221.8v10.3a5.1 5.1 0 01-5.2 5.2h-36a5.1 5.1 0 01-5.1-5.2v-10.3" stroke-width="5"/><path stroke-width="4.887313" d="M77.8 209l12.8 12.8 12.9-12.8"/><path stroke-width="5" d="M90.6 221.9v-31"/></g><g class="openlime-tool openlime-trash" fill="none" stroke="gray"><path stroke-width="5.000394" d="M151.2 200.5H194"/><path d="M189.3 200.5v33.3a4.8 4.8 0 01-4.8 4.8h-23.8a4.8 4.8 0 01-4.8-4.8v-33.3m7.2 0v-4.8a4.8 4.8 0 014.7-4.7h9.5a4.8 4.8 0 014.8 4.7v4.8M167.8 212.4v14.3M177.3 212.4v14.3" stroke-width="5"/></g><g class="openlime-tool openlime-edit" fill="none" stroke="gray" stroke-width="6.1"><path d="M238.5 196.1h-15.3a4.4 4.4 0 00-4.3 4.4V231a4.4 4.4 0 004.3 4.4h30.6a4.4 4.4 0 004.4-4.4v-15.3" stroke-width="5.038539"/><path d="M255 192.8a4.6 4.6 0 016.5 6.6l-20.8 20.8-8.7 2.1 2.2-8.7z" stroke-width="5.038539"/></g><path d="M313 198.2a4.8 4.8 0 116.8 6.7L297 227.6l-9.3 2.5 2.5-9.2z" class="openlime-tool openlime-draw" fill="none" stroke="gray" stroke-width="4"/><g transform="matrix(.79441 0 0 .79441 18.9 -178.4)" class="openlime-tool openlime-visible" fill="none" stroke="gray" stroke-width="5"><path d="M497.7 496.9s9.4-19 26-19 26 19 26 19-9.4 19-26 19-26-19-26-19z"/><circle r="7.1" cy="496.9" cx="523.7"/></g><g class="openlime-tool openlime-hidden" fill="none" stroke="gray" stroke-width="5"><path d="M513 228a18.7 18.7 0 01-11 3.8c-13 0-20.3-14.8-20.3-14.8a34.2 34.2 0 019.3-11m7.2-3.3a16.9 16.9 0 013.8-.5c13 0 20.4 14.8 20.4 14.8a34.3 34.3 0 01-4 6m-12.4-2a5.6 5.6 0 11-7.9-7.9M481.6 196.6l40.8 40.8" stroke-width="3.7713"/></g><g class="openlime-tool openlime-ok" fill="none" stroke="gray" stroke-width="5.9"><path stroke-width="4.945176" d="M357.2 212.5l6.2 6.2L384 198"/><path d="M382 214.6V229a4.1 4.1 0 01-4.2 4.1H349a4.1 4.1 0 01-4.2-4.1V200a4.1 4.1 0 014.2-4h22.6" stroke-width="4.9885090000000005"/></g><g class="openlime-tool openlime-undo" stroke="gray" fill="none"><path stroke-width="4.453237" d="M544.5 205v11.6H556"/><path d="M549.3 226.3a17.4 17.4 0 104.1-18.1l-9 8.4" stroke-width="4.5483"/></g><g class="openlime-tool openlime-erase" fill="none" stroke="gray" stroke-width="4.5"><path d="M284 289.1L305 268l10.6 10.6-15.9 16h-10.6zM308.7 264.4l3.5-3.5 10.6 10.6-3.5 3.5z"/></g><g class="openlime-tool openlime-pen" transform="translate(-76.6 -295.1)"><path class="openlime-tool openlime-draw" d="M499.7 570.8a4.8 4.8 0 116.7 6.8l-22.7 22.7-9.3 2.5 2.6-9.3z" fill="none" stroke="gray" stroke-width="4"/><circle r="1.3" cy="608.8" cx="470" fill="none" stroke="gray" stroke-width="4.5"/><circle r="1.3" cy="608.8" cx="495" fill="none" stroke="gray" stroke-width="4.5"/><circle r="1.3" cy="596.3" cx="507.5" fill="none" stroke="gray" stroke-width="4.5"/><path d="M472.5 608.8h20M496.8 606.9l8.5-8.3" fill="gray" stroke="gray" stroke-width="2"/></g></svg>