<?xml version="1.0" encoding="UTF-8" standalone="no"?>
<svg
   xmlns:dc="http://purl.org/dc/elements/1.1/"
   xmlns:cc="http://creativecommons.org/ns#"
   xmlns:rdf="http://www.w3.org/1999/02/22-rdf-syntax-ns#"
   xmlns:svg="http://www.w3.org/2000/svg"
   xmlns="http://www.w3.org/2000/svg"
   xmlns:sodipodi="http://sodipodi.sourceforge.net/DTD/sodipodi-0.dtd"
   xmlns:inkscape="http://www.inkscape.org/namespaces/inkscape"
   id="svg8"
   version="1.1"
   viewBox="0 0 300 553"
   height="553"
   width="300"
   sodipodi:docname="annotations.svg"
   inkscape:version="0.92.3 (2405546, 2018-03-11)">
  <sodipodi:namedview
     pagecolor="#ffffff"
     bordercolor="#666666"
     borderopacity="1"
     objecttolerance="10"
     gridtolerance="10"
     guidetolerance="10"
     inkscape:pageopacity="0"
     inkscape:pageshadow="2"
     inkscape:window-width="1920"
     inkscape:window-height="1056"
     id="namedview101"
     showgrid="false"
     inkscape:zoom="1.8106026"
     inkscape:cx="441.96872"
     inkscape:cy="301.92486"
     inkscape:window-x="1920"
     inkscape:window-y="24"
     inkscape:window-maximized="1"
     inkscape:current-layer="svg8"
     units="px" />
  <defs
     id="defs2">
    <clipPath
       id="clipPath1523"
       clipPathUnits="userSpaceOnUse">
      <ellipse
         style="opacity:1;fill:#9ea25b;fill-opacity:1;stroke:none;stroke-width:1.14077282;stroke-linecap:square;stroke-linejoin:round;stroke-miterlimit:4;stroke-dasharray:none;stroke-dashoffset:0;stroke-opacity:1"
         id="ellipse1525"
         cx="269.6611"
         cy="251.74536"
         rx="15.501632"
         ry="22.183371" />
    </clipPath>
  </defs>
  <metadata
     id="metadata5">
    <rdf:RDF>
      <cc:Work
         rdf:about="">
        <dc:format>image/svg+xml</dc:format>
        <dc:type
           rdf:resource="http://purl.org/dc/dcmitype/StillImage" />
        <dc:title></dc:title>
      </cc:Work>
    </rdf:RDF>
  </metadata>
  <path
     style="fill:#b4bc78;fill-opacity:1;stroke:none;stroke-width:0.74676108px;stroke-linecap:butt;stroke-linejoin:miter;stroke-opacity:1"
     d="m 197.28778,412.68958 c -3.53959,2.49055 -2.88326,10.55995 -8.5176,9.12266 -3.82118,3.74993 -6.07445,10.22843 -4.34526,15.54299 3.07486,6.53401 -1.07088,12.6906 -1.72869,19.15776 -0.72694,7.00694 -0.0977,14.60424 3.5599,20.76876 3.06418,5.85166 6.18265,11.80848 10.70274,16.72276 3.31456,4.33922 6.92721,8.49629 9.77557,13.13247 4.11257,4.34757 10.57861,4.34089 15.80929,6.5363 4.99894,0.67937 8.13187,-4.27664 12.14834,-6.50145 4.60597,-3.18651 6.44699,-8.33674 6.83109,-13.7098 2.22128,-4.59318 2.83487,-10.01156 6.36239,-14.03036 2.02863,-5.41016 2.28209,-11.58051 3.068,-17.34942 0.0451,-7.77608 -1.27684,-15.59396 0.19932,-23.31773 1.61682,-6.55577 -3.66,-10.81452 -6.6381,-15.77126 -2.33606,-3.12418 -5.21783,-13.95336 -10.20999,-8.80841 -3.45812,5.28143 -10.47571,0.35875 -9.6932,-4.8836 -0.32453,-4.23425 6.67241,-6.91779 2.14169,-11.17769 -3.86038,-4.14288 -9.38704,-1.45241 -10.0321,3.64016 3.88752,-4.87977 -3.63444,-10.28993 -8.44583,-7.12195 -5.8587,2.43297 -3.11512,9.34661 -4.45464,13.86525 -0.80397,1.63668 -6.43667,8.57358 -6.53292,4.18256 z"
     id="sun"
     inkscape:connector-curvature="0"
     class="openlime-annotation" />
  <g
     id="aura"
     transform="matrix(2.8122833,0,0,2.8325614,-130.4162,-107.06081)"
     class="openlime-annotation">
    <path
       style="fill:#b4bc78;fill-opacity:1;stroke-width:0.35277778"
       d="m 109.65634,103.31095 c -0.29569,-0.18274 -0.32158,-0.35272 -0.0768,-0.50401 0.25637,-0.15845 0.25734,-0.54968 0.003,-1.27882 -0.41705,-1.19635 -0.80838,-1.32407 -1.32727,-0.43318 -0.32986,0.56633 -0.36047,0.56805 -0.37031,0.0208 -0.0113,-0.62994 -0.63053,-1.194313 -0.95468,-0.87016 -0.37146,0.37146 0.75391,2.30891 1.44631,2.48997 0.38586,0.1009 0.62019,0.26483 0.52074,0.36428 -0.0995,0.0994 -0.8069,-0.002 -1.5721,-0.22601 -0.7652,-0.22376 -1.5698,-0.37582 -1.78799,-0.33791 -0.57421,0.0998 -1.25295,-2.793105 -0.78704,-3.354484 0.29045,-0.349976 0.54512,-0.324601 1.22712,0.122255 1.12226,0.735329 1.42751,0.376637 0.90624,-1.064902 -0.55922,-1.5465 -0.6276,-1.341476 1.13675,-3.408461 0.85645,-1.00336 1.66031,-2.246633 1.78635,-2.762832 0.12603,-0.516198 1.0794,-2.367294 2.1186,-4.113544 1.18663,-1.994016 1.97227,-3.765494 2.11214,-4.7625 0.1225,-0.873125 0.47363,-2.808079 0.7803,-4.299899 0.53465,-2.600858 0.52779,-2.803959 -0.16702,-4.938889 -0.39853,-1.224569 -1.15337,-3.575865 -1.67742,-5.225101 -0.59078,-1.859242 -1.36375,-3.467763 -2.03432,-4.233333 l -1.08151,-1.234722 1.01688,-0.176389 c 1.15404,-0.200184 1.27268,-0.824876 0.1889,-0.994675 -0.89759,-0.140628 -0.9155,-0.477109 -0.054,-1.015109 0.5285,-0.330053 0.61631,-0.65618 0.42651,-1.584165 -0.13144,-0.642703 -0.35154,-1.128864 -0.48911,-1.080357 -0.13757,0.04851 -0.52794,0.09063 -0.86748,0.0936 -1.30434,0.01141 -1.61089,0.519421 -1.01214,1.677278 0.5007,0.968245 0.50112,1.090932 0.004,1.281536 -1.29006,0.495047 -1.90271,0.236054 -1.90271,-0.804347 0,-0.558326 0.25208,-1.224346 0.56018,-1.480046 0.50374,-0.418066 0.48597,-0.492362 -0.17639,-0.737383 -0.76905,-0.284489 -1.00537,-1.498555 -0.36834,-1.892262 0.20253,-0.125168 0.6115,-0.02568 0.90883,0.221079 0.4382,0.363674 0.59444,0.36154 0.82485,-0.01126 0.40203,-0.650499 -0.11307,-2.316931 -0.71618,-2.316931 -0.63735,0 -1.03212,-1.266931 -0.57815,-1.855458 0.18851,-0.244392 0.25778,-1.077829 0.15393,-1.852084 -0.10385,-0.774254 -0.11666,-1.407735 -0.0285,-1.407735 0.4314,0 2.24197,1.114554 2.24197,1.380114 0,0.167015 0.6912,0.407316 1.53601,0.534002 1.93474,0.290133 5.31416,2.692171 7.27165,5.168591 0.78259,0.990052 1.4229,1.949439 1.4229,2.131971 0,0.182533 0.52261,0.790741 1.16137,1.351575 0.63875,0.560834 1.53739,1.865671 1.99697,2.899639 0.45958,1.033967 1.11842,2.514941 1.4641,3.291052 1.78444,4.006418 2.47578,11.060476 1.28481,13.109469 -0.35645,0.613262 -0.89679,1.210451 -1.20074,1.32709 -0.44669,0.171411 -0.46911,0.312716 -0.11694,0.737059 0.23964,0.288745 0.73377,0.524993 1.09807,0.524993 0.77998,0 0.76102,-0.14199 0.28035,2.099303 -0.29758,1.387563 -0.53149,1.781253 -1.05834,1.781253 -0.56194,0 -0.67632,0.257086 -0.67632,1.520073 0,1.551245 -0.46632,2.483559 -1.41111,2.821217 -0.41673,0.148936 -0.39799,0.195037 0.0882,0.216969 0.86483,0.03902 0.7756,0.437278 -0.44097,1.968129 -0.58208,0.732459 -1.05833,1.538697 -1.05833,1.791649 0,0.252949 -0.72817,1.198531 -1.61814,2.101289 -1.15698,1.173583 -1.81625,1.589578 -2.31322,1.459615 -0.5584,-0.146025 -0.61577,-0.08621 -0.29177,0.304193 0.62491,0.752973 0.0949,1.198725 -1.33039,1.1188 -1.16868,-0.06554 -1.32167,-0.190571 -1.53964,-1.258316 -0.13311,-0.65205 -0.50253,-1.4458 -0.82093,-1.763889 -0.53664,-0.53612 -0.56157,-0.430671 -0.34145,1.444459 0.16565,1.411107 0.1037,2.183966 -0.20486,2.555758 -0.24328,0.293133 -0.36143,0.842293 -0.26256,1.220353 0.27802,1.06316 -2.27841,2.75235 -3.25344,2.14974 z"
       id="path940"
       inkscape:connector-curvature="0" />
    <path
       style="fill:#98a292;stroke-width:0.35277778"
       d="m 116.6056,97.449523 c -0.33618,-0.336183 -1.01017,0.20835 -0.75963,0.613727 0.14891,0.240947 0.34624,0.234862 0.59959,-0.01848 0.2077,-0.207702 0.27972,-0.475555 0.16004,-0.595232 z"
       id="path938"
       inkscape:connector-curvature="0" />
    <path
       style="fill:#98a292;stroke-width:0.35277778"
       d="m 114.23916,94.100014 c 0.40631,-0.759195 0.23757,-1.736323 -0.29984,-1.736323 -0.42012,0 -1.05452,1.484711 -0.86674,2.028472 0.22733,0.65828 0.72456,0.533757 1.16658,-0.292149 z"
       id="path936"
       inkscape:connector-curvature="0" />
    <path
       style="fill:#98a292;stroke-width:0.35277778"
       d="m 114.67293,90.271761 c 0.28248,-1.080209 -0.24182,-3.023348 -0.81577,-3.023348 -0.68322,0 -0.85311,1.403012 -0.32444,2.679327 0.49246,1.18891 0.88805,1.308265 1.14021,0.344021 z"
       id="path934"
       inkscape:connector-curvature="0" />
    <path
       style="fill:#98a292;stroke-width:0.35277778"
       d="m 123.7494,83.876204 c 0,-0.182577 -0.15875,-0.331957 -0.35277,-0.331957 -0.19403,0 -0.35278,0.247495 -0.35278,0.549987 0,0.302493 0.15875,0.451874 0.35278,0.331957 0.19402,-0.119916 0.35277,-0.367411 0.35277,-0.549987 z"
       id="path932"
       inkscape:connector-curvature="0" />
    <path
       style="fill:#98a292;stroke-width:0.35277778"
       d="m 125.10389,79.117926 c 0.50238,-1.102606 0.51926,-1.570901 0.0566,-1.570901 -0.19403,0 -0.35278,0.23254 -0.35278,0.516756 0,0.284215 -0.33895,0.69815 -0.75322,0.919861 -0.60179,0.322072 -0.65498,0.465321 -0.26458,0.712565 0.73038,0.462559 0.86713,0.402371 1.31395,-0.578281 z"
       id="path930"
       inkscape:connector-curvature="0" />
    <path
       style="fill:#98a292;stroke-width:0.35277778"
       d="m 124.10218,73.272053 c 0,-0.194028 -0.15875,-0.254667 -0.35278,-0.134751 -0.19402,0.119917 -0.35277,0.376778 -0.35277,0.570805 0,0.194028 0.15875,0.254667 0.35277,0.134751 0.19403,-0.119916 0.35278,-0.376777 0.35278,-0.570805 z"
       id="path928"
       inkscape:connector-curvature="0" />
    <path
       style="fill:#98a292;stroke-width:0.35277778"
       d="m 123.84448,71.337129 c 0.11698,-0.116971 -0.20992,-0.57618 -0.72643,-1.020464 -0.51651,-0.444285 -0.94295,-1.179181 -0.94763,-1.633102 -0.005,-0.500521 -0.25147,-0.872682 -0.62588,-0.945681 -0.48241,-0.09406 -0.61736,0.121694 -0.61736,0.987023 0,1.421239 0.61989,2.58048 1.25048,2.338499 0.26995,-0.103588 0.58464,-0.03653 0.69932,0.149028 0.23726,0.38389 0.65453,0.43767 0.9675,0.124697 z"
       id="path926"
       inkscape:connector-curvature="0" />
    <path
       style="fill:#98a292;stroke-width:0.35277778"
       d="m 119.51607,67.316469 c 0,-0.47037 -0.23519,-0.705555 -0.70555,-0.705555 -0.67987,0 -0.956,0.690304 -0.47037,1.175925 0.48562,0.485622 1.17592,0.2095 1.17592,-0.47037 z"
       id="path924"
       inkscape:connector-curvature="0" />
    <path
       style="fill:#98a292;stroke-width:0.35277778"
       d="m 123.39663,66.764111 c 0,-0.730575 -0.64799,-1.917086 -1.04698,-1.917086 -0.6856,0 -0.78388,1.460667 -0.13155,1.954965 0.85361,0.646812 1.17853,0.636368 1.17853,-0.03788 z"
       id="path922"
       inkscape:connector-curvature="0" />
    <path
       style="fill:#98a292;stroke-width:0.35277778"
       d="m 119.51607,65.772165 c 0,-0.07326 -0.23812,-0.330819 -0.52917,-0.572362 -0.43339,-0.359682 -0.52916,-0.335575 -0.52916,0.133193 0,0.314799 0.23812,0.572362 0.52916,0.572362 0.29105,0 0.52917,-0.05994 0.52917,-0.133193 z"
       id="path920"
       inkscape:connector-curvature="0" />
    <path
       style="fill:#98a292;stroke-width:0.35277778"
       d="m 120.97464,60.360192 c -0.33605,-0.59863 -0.36415,-0.598943 -0.59237,-0.0066 -0.13373,0.347127 -0.0273,0.877918 0.24086,1.201465 0.44164,0.532798 0.48948,0.53333 0.59237,0.0066 0.0616,-0.31516 -0.0468,-0.855819 -0.24086,-1.201465 z"
       id="path918"
       inkscape:connector-curvature="0" />
    <path
       style="fill:#98a292;stroke-width:0.35277778"
       d="m 81.06329,101.53591 c 0,-0.19402 0.15875,-0.35277 0.352778,-0.35277 0.194028,0 0.352778,0.15875 0.352778,0.35277 0,0.19403 -0.15875,0.35278 -0.352778,0.35278 -0.194028,0 -0.352778,-0.15875 -0.352778,-0.35278 z"
       id="path914"
       inkscape:connector-curvature="0" />
    <path
       style="fill:#98a292;stroke-width:0.35277778"
       d="m 77.442227,99.561145 c -0.318007,-0.318005 0.119874,-1.225438 0.483029,-1.000997 0.173697,0.10735 0.315812,0.42394 0.315812,0.703531 0,0.519497 -0.420303,0.676007 -0.798841,0.297466 z"
       id="path912"
       inkscape:connector-curvature="0" />
    <path
       style="fill:#98a292;stroke-width:0.35277778"
       d="m 77.563363,97.096794 c 0.01693,-0.410968 0.100521,-0.494559 0.213137,-0.213138 0.101907,0.25466 0.08937,0.558931 -0.02785,0.676159 -0.117225,0.117225 -0.200604,-0.09114 -0.185287,-0.463021 z"
       id="path910"
       inkscape:connector-curvature="0" />
    <path
       style="fill:#98a292;stroke-width:0.35277778"
       d="m 72.70241,94.767233 c -0.203711,-0.254797 -0.632425,-0.979201 -0.9527,-1.609792 -0.544393,-1.071859 -0.54333,-1.146528 0.01633,-1.146528 0.329253,0 0.888955,-0.262727 1.243781,-0.583843 0.604192,-0.546785 0.645139,-0.53987 0.645139,0.108962 0,0.381043 0.233076,1.000961 0.517947,1.377594 0.661997,0.875238 0.670018,1.213954 0.02875,1.213954 -0.2814,0 -0.650513,0.248155 -0.820249,0.551459 -0.251113,0.448712 -0.377619,0.465144 -0.678994,0.08819 z"
       id="path908"
       inkscape:connector-curvature="0" />
    <path
       style="fill:#98a292;stroke-width:0.35277778"
       d="m 77.004928,94.830843 c -0.127937,-0.207007 -0.122996,-1.025194 0.01098,-1.818196 0.160103,-0.947642 0.104824,-1.527581 -0.161283,-1.692042 -0.222682,-0.137626 -0.438392,-0.713133 -0.479356,-1.278908 -0.05979,-0.825782 0.08208,-1.050985 0.719271,-1.141768 0.970555,-0.138279 1.027745,-1.015478 0.220637,-3.384212 -0.530285,-1.5563 -0.529791,-1.725312 0.0066,-2.261722 0.833283,-0.833285 1.719155,-0.159169 1.79508,1.365984 0.05683,1.141466 -0.548925,4.902525 -1.052295,6.533635 -0.14204,0.460262 -0.02066,0.900074 0.328349,1.189722 0.759889,0.630654 0.687447,1.116711 -0.306943,2.059481 -0.53668,0.508819 -0.933921,0.666101 -1.08106,0.428026 z"
       id="path906"
       inkscape:connector-curvature="0" />
    <path
       style="fill:#98a292;stroke-width:0.35277778"
       d="m 70.468424,90.409518 c -0.552813,-0.666098 -0.604337,-4.837296 -0.06198,-5.018081 0.224466,-0.07482 0.743507,0.09887 1.153425,0.385992 0.732001,0.512713 0.732843,0.525985 0.04718,0.74361 -0.813271,0.25812 -1.250028,1.486655 -0.615136,1.730286 0.238688,0.09159 0.647202,0.03475 0.907808,-0.126312 0.326068,-0.20152 0.621846,-0.0075 0.948474,0.622036 0.513074,0.988952 0.415673,1.157831 -1.018525,1.765981 -0.751739,0.318763 -1.02823,0.297737 -1.361238,-0.103512 z"
       id="path904"
       inkscape:connector-curvature="0" />
    <path
       style="fill:#98a292;stroke-width:0.35277778"
       d="m 73.654957,89.541469 c 0,-0.194028 0.149381,-0.352778 0.331958,-0.352778 0.182576,0 0.43007,0.15875 0.549986,0.352778 0.119916,0.194028 -0.02946,0.352778 -0.331958,0.352778 -0.302492,0 -0.549986,-0.15875 -0.549986,-0.352778 z"
       id="path902"
       inkscape:connector-curvature="0" />
    <path
       style="fill:#98a292;stroke-width:0.35277778"
       d="m 70.832734,84.382997 c 0,-0.468771 0.09578,-0.492876 0.529167,-0.133195 0.291042,0.241544 0.529167,0.499107 0.529167,0.572361 0,0.07326 -0.238125,0.133195 -0.529167,0.133195 -0.291042,0 -0.529167,-0.257563 -0.529167,-0.572361 z"
       id="path898"
       inkscape:connector-curvature="0" />
    <path
       style="fill:#b4bc78;fill-opacity:1;stroke-width:0.35277778"
       d="M 71.989027,83.80883 C 71.801361,83.566295 71.54246,83.073574 71.41369,82.713896 71.248091,82.251341 70.999739,82.138008 70.565177,82.32668 c -0.337913,0.14671 -1.113312,0.337316 -1.72311,0.423563 -1.095253,0.154908 -1.111765,0.134694 -1.359127,-1.663845 -0.137722,-1.001359 -0.168331,-1.902731 -0.06802,-2.00304 0.333765,-0.333767 1.677747,0.609162 1.432909,1.005318 -0.145274,0.235059 -0.07923,0.289743 0.166508,0.137869 0.224007,-0.138444 0.407285,-0.463487 0.407285,-0.72232 0,-0.258833 0.218371,-0.554401 0.485267,-0.656816 0.716559,-0.274972 -0.100399,-2.804812 -0.838045,-2.595142 -1.632411,0.464001 -1.588774,0.519409 -1.558909,-1.979387 0.03135,-2.622841 0.610669,-3.848304 0.969968,-2.051812 0.248447,1.24224 1.612732,3.463897 2.290192,3.729447 0.69224,0.271342 1.826527,-0.453725 1.826527,-1.167568 0,-0.475205 -0.28951,-0.622589 -1.222963,-0.622589 -1.551704,0 -1.828778,-0.287803 -1.274374,-1.323716 0.711463,-1.32938 0.370274,-2.502462 -0.765857,-2.633188 -0.951909,-0.10953 -1.312988,-0.869564 -0.617362,-1.299485 0.194028,-0.119916 0.364856,-0.645222 0.379617,-1.167348 0.03627,-1.282809 0.808029,-3.344274 1.31532,-3.513371 0.226382,-0.07546 0.601021,0.278521 0.83253,0.786628 0.345722,0.758778 0.588693,0.886981 1.359961,0.717582 0.620491,-0.136283 1.092431,-0.02142 1.391223,0.338603 0.248702,0.299668 0.587793,0.544851 0.753534,0.544851 0.391231,0 1.763019,-2.834435 1.543606,-3.189452 -0.1726,-0.279273 -2.817486,-0.13361 -3.33045,0.18342 -0.158185,0.09776 -0.556315,-0.232348 -0.884735,-0.73358 -0.492444,-0.751564 -0.52516,-1.085077 -0.186612,-1.902402 0.933747,-2.254265 2.981845,-3.114162 3.420652,-1.436165 0.190987,0.730338 1.028268,1.208008 1.551079,0.884892 0.176519,-0.109094 0.320943,-0.57649 0.320943,-1.038658 0,-0.462167 0.143846,-0.929207 0.319659,-1.037865 0.175812,-0.108658 0.236672,-0.514902 0.135244,-0.902764 -0.126095,-0.482187 -0.01064,-0.705204 0.365076,-0.705204 0.727657,0 1.117493,0.673083 0.656711,1.133865 -0.229122,0.229123 -0.251248,0.670844 -0.05894,1.176657 0.219257,0.576691 0.161061,0.931685 -0.202151,1.233125 -0.280525,0.232815 -0.510046,0.641987 -0.510046,0.909271 0,0.606391 1.03854,0.648415 1.112067,0.045 0.02955,-0.242535 0.07367,-0.599723 0.09805,-0.79375 0.09655,-0.768609 1.874274,-2.116667 2.791314,-2.116667 1.106791,0 1.629929,0.647997 1.637616,2.028472 0.0057,1.023804 0.61957,1.273193 1.345957,0.546806 0.329258,-0.329259 0.423333,-0.295345 0.423333,0.152616 0,0.316772 -0.357188,0.686877 -0.79375,0.822456 -0.900762,0.279741 -2.619735,2.060176 -2.928594,3.033309 -0.343129,1.081106 -1.388313,0.747207 -2.111759,-0.674631 l -0.673114,-1.322917 -0.124942,1.211023 c -0.16163,1.566617 0.213795,3.551477 0.671742,3.551477 0.196686,0 0.277065,0.130328 0.178619,0.289617 -0.09845,0.159289 -1.060315,0.222168 -2.137487,0.13973 -1.933888,-0.148005 -1.958493,-0.137804 -1.958493,0.811912 0,0.84904 0.06742,0.905848 0.575047,0.484552 0.518596,-0.430396 0.551211,-0.356716 0.332232,0.750555 -0.537102,2.715871 -1.665636,3.612046 -3.245233,2.577053 -0.784601,-0.514091 -0.837047,-0.504283 -0.837047,0.15653 0,0.406873 0.296557,0.782535 0.701309,0.888379 0.385719,0.10087 0.871821,0.631882 1.080227,1.180031 0.208406,0.54815 0.772734,1.780699 1.254061,2.739002 0.95137,1.894135 0.899433,2.682639 -0.176698,2.682639 -0.933423,0 -2.153343,1.625808 -2.153343,2.869798 0,1.068983 -0.393476,1.302431 -0.960374,0.569784 z"
       id="path896"
       inkscape:connector-curvature="0" />
    <path
       style="fill:#98a292;stroke-width:0.35277778"
       d="m 72.243845,77.194247 c 0,-0.194028 -0.07001,-0.352778 -0.155569,-0.352778 -0.08556,0 -0.253681,0.15875 -0.373597,0.352778 -0.119916,0.194028 -0.04991,0.352778 0.155569,0.352778 0.205478,0 0.373597,-0.15875 0.373597,-0.352778 z"
       id="path894"
       inkscape:connector-curvature="0" />
    <path
       style="fill:#98a292;stroke-width:0.35277778"
       d="m 77.210585,77.341239 c 0.01693,-0.410969 0.100521,-0.494559 0.213137,-0.213138 0.101907,0.25466 0.08937,0.558931 -0.02785,0.676159 -0.117225,0.117224 -0.200604,-0.09114 -0.185287,-0.463021 z"
       id="path890"
       inkscape:connector-curvature="0" />
    <path
       style="fill:#98a292;stroke-width:0.35277778"
       d="m 77.432196,74.720597 c -0.227521,-0.870041 0.02215,-1.759683 0.493838,-1.759683 0.398023,0 0.40206,1.433166 0.0058,2.058292 -0.22517,0.355223 -0.347825,0.281915 -0.499635,-0.298609 z"
       id="path888"
       inkscape:connector-curvature="0" />
    <path
       style="fill:#98a292;stroke-width:0.35277778"
       d="m 77.916141,71.696793 c 0.01693,-0.410966 0.100521,-0.494559 0.213137,-0.213136 0.101907,0.254661 0.08937,0.558932 -0.02785,0.676157 -0.117225,0.117225 -0.200604,-0.09113 -0.185287,-0.463021 z"
       id="path886"
       inkscape:connector-curvature="0" />
    <path
       style="fill:#98a292;stroke-width:0.35277778"
       d="m 77.535512,69.941483 c 0,-0.302493 0.15875,-0.451874 0.352778,-0.331958 0.194028,0.119916 0.352778,0.367409 0.352778,0.549986 0,0.182577 -0.15875,0.331958 -0.352778,0.331958 -0.194028,0 -0.352778,-0.247494 -0.352778,-0.549986 z"
       id="path884"
       inkscape:connector-curvature="0" />
    <path
       style="fill:#98a292;stroke-width:0.35277778"
       d="m 87.060661,59.379148 c -0.324548,-0.391058 -0.352587,-0.670797 -0.09322,-0.930158 0.580111,-0.580109 1.680577,-0.202149 1.680577,0.577201 0,0.876387 -0.973328,1.092812 -1.587352,0.352957 z"
       id="path880"
       inkscape:connector-curvature="0" />
    <path
       style="fill:#98a292;stroke-width:0.35277778"
       d="m 104.34663,59.295948 c -1.29757,-0.355441 -2.11667,-0.969902 -2.11667,-1.587859 0,-0.484709 0.17565,-0.613965 0.63587,-0.4679 0.34972,0.110999 0.94458,-0.02392 1.32191,-0.299836 1.2291,-0.898738 2.11552,0.640017 1.11781,1.940418 -0.23637,0.308072 -0.66788,0.494901 -0.95892,0.415177 z"
       id="path878"
       inkscape:connector-curvature="0" />
    <path
       style="fill:#98a292;stroke-width:0.35277778"
       d="m 75.133684,58.470566 c 0.06953,-0.208579 0.277224,-0.379236 0.461551,-0.379236 0.184326,0 0.392024,0.170657 0.46155,0.379236 0.06953,0.20858 -0.138171,0.379237 -0.46155,0.379237 -0.32338,0 -0.531078,-0.170657 -0.461551,-0.379237 z"
       id="path876"
       inkscape:connector-curvature="0" />
    <path
       style="fill:#98a292;stroke-width:0.35277778"
       d="m 97.835303,56.404734 c -0.260897,-0.422134 0.402738,-0.840396 0.872631,-0.549986 0.394533,0.243834 0.135527,0.878388 -0.358531,0.878388 -0.171126,0 -0.40247,-0.147781 -0.5141,-0.328402 z"
       id="path874"
       inkscape:connector-curvature="0" />
    <path
       style="fill:#98a292;stroke-width:0.35277778"
       d="m 101.46902,56.370464 c -0.55679,-0.325011 -0.53308,-1.753993 0.0291,-1.753993 0.66053,0 1.53234,1.007619 1.32939,1.536486 -0.25309,0.659555 -0.52628,0.703295 -1.35849,0.217507 z"
       id="path872"
       inkscape:connector-curvature="0" />
    <path
       style="fill:#98a292;stroke-width:0.35277778"
       d="m 85.8891,56.149684 c -0.196113,-0.196111 0.05182,-2.922838 0.292972,-3.222118 0.04494,-0.05577 0.499099,0.08877 1.00924,0.32121 0.896613,0.408523 1.260638,1.014915 0.609269,1.014915 -0.175048,0 -0.48429,0.47625 -0.687208,1.058334 -0.359135,1.030216 -0.754461,1.297473 -1.224273,0.827659 z"
       id="path870"
       inkscape:connector-curvature="0" />
    <path
       style="fill:#98a292;stroke-width:0.35277778"
       d="m 103.64107,52.8734 c 0,-0.182577 0.15875,-0.43007 0.35278,-0.549986 0.19403,-0.119916 0.35278,0.02946 0.35278,0.331958 0,0.302492 -0.15875,0.549986 -0.35278,0.549986 -0.19403,0 -0.35278,-0.149381 -0.35278,-0.331958 z"
       id="path868"
       inkscape:connector-curvature="0" />
    <path
       style="fill:#98a292;stroke-width:0.35277778"
       d="m 89.882735,52.499803 c 0,-0.194028 0.15875,-0.352778 0.352778,-0.352778 0.194028,0 0.352778,0.15875 0.352778,0.352778 0,0.194027 -0.15875,0.352777 -0.352778,0.352777 -0.194028,0 -0.352778,-0.15875 -0.352778,-0.352777 z"
       id="path866"
       inkscape:connector-curvature="0" />
    <path
       style="fill:#8f916c;stroke-width:0.35277778"
       d="m 108.40357,103.74893 c -0.58208,-0.0829 -1.20915,-0.29722 -1.39347,-0.47631 -0.18433,-0.1791 -0.77245,-0.32564 -1.30693,-0.32564 -0.83375,0 -1.00514,-0.17773 -1.20652,-1.25117 -0.12909,-0.68814 -0.15534,-1.33054 -0.0583,-1.42756 0.097,-0.097 0.28297,0.39173 0.41323,1.08609 0.13027,0.69437 0.42713,1.22876 0.65971,1.18756 0.23258,-0.0412 1.04894,0.10815 1.81414,0.33191 0.7652,0.22375 1.47264,0.32546 1.57209,0.22601 0.0995,-0.0995 -0.13487,-0.26338 -0.52073,-0.36428 -0.6924,-0.18107 -1.81777,-2.11851 -1.44631,-2.48997 0.32415,-0.324156 0.94335,0.24022 0.95468,0.87015 0.01,0.54723 0.0404,0.54551 0.37031,-0.0208 0.51889,-0.89089 0.91022,-0.76318 1.32727,0.43317 0.25419,0.72915 0.25322,1.12038 -0.003,1.27882 -0.72291,0.44679 0.51354,0.78374 1.43735,0.39171 1.46488,-0.62163 2.08777,-1.2921 1.89287,-2.03743 -0.0989,-0.37806 0.0193,-0.92722 0.26256,-1.220352 0.30856,-0.371793 0.37051,-1.144651 0.20486,-2.555759 -0.22012,-1.87513 -0.19519,-1.980579 0.34145,-1.444459 0.3184,0.318089 0.68781,1.111839 0.82092,1.763889 0.21798,1.067745 0.37097,1.19278 1.53965,1.258316 1.41162,0.07916 1.95623,-0.364709 1.34747,-1.098222 -0.30659,-0.369415 -0.20373,-0.430495 0.4988,-0.2962 0.48969,0.09361 0.88502,0.004 0.88502,-0.200698 0,-0.203433 0.51594,-0.722934 1.14653,-1.154444 0.84093,-0.575445 0.62936,-0.245499 -0.79375,1.237876 -1.06715,1.112343 -2.41653,2.266459 -2.99861,2.564703 -0.58208,0.29825 -1.45521,0.90484 -1.94028,1.348 -1.45249,1.32697 -3.58814,2.64504 -4.19437,2.58864 -0.31247,-0.0291 -1.04438,-0.12067 -1.62646,-0.20354 z"
       id="path1128"
       inkscape:connector-curvature="0" />
    <path
       style="fill:#9ea25b;fill-opacity:1;stroke-width:0.35277778"
       d="m 79.123013,101.18261 c -2.920328,-1.80435 -6.948509,-6.363065 -8.641469,-9.779601 -0.923513,-1.863728 -1.406187,-3.259494 -1.286047,-3.718909 0.111554,-0.426583 -0.02106,-0.894736 -0.31577,-1.11475 -0.977429,-0.729689 -1.931815,-5.672663 -1.872126,-9.696157 0.04074,-2.745973 0.110847,-3.268532 0.264584,-1.972042 0.212818,1.794733 0.219128,1.799477 1.79666,1.351076 0.737646,-0.20967 1.554604,2.32017 0.838045,2.595142 -0.266896,0.102415 -0.485267,0.397983 -0.485267,0.656816 0,0.258833 -0.183278,0.583876 -0.407285,0.72232 -0.245738,0.151874 -0.311782,0.09719 -0.166508,-0.137869 0.244838,-0.396156 -1.099144,-1.339085 -1.432909,-1.005318 -0.100312,0.100309 -0.0697,1.001681 0.06802,2.00304 0.247362,1.798539 0.263874,1.818753 1.359127,1.663845 0.609798,-0.08625 1.372343,-0.271918 1.694545,-0.412602 0.426676,-0.186298 0.714186,0.0077 1.058333,0.713945 0.673326,1.381858 1.354456,1.490913 1.354456,0.216856 0,-1.268946 1.210849,-2.899195 2.153343,-2.899195 1.076131,0 1.128068,-0.788504 0.176698,-2.682639 -0.481327,-0.958303 -1.045655,-2.190852 -1.254061,-2.739002 -0.208406,-0.548149 -0.694508,-1.079161 -1.080227,-1.180031 -0.404752,-0.105844 -0.701309,-0.481506 -0.701309,-0.888379 0,-0.660813 0.05245,-0.670621 0.837047,-0.15653 1.579597,1.034993 2.708131,0.138818 3.245233,-2.577053 0.218979,-1.107271 0.186364,-1.180951 -0.332232,-0.750555 -0.50763,0.421296 -0.575047,0.364488 -0.575047,-0.484552 0,-0.949716 0.02461,-0.959917 1.958493,-0.811912 1.077172,0.08244 2.03904,0.01956 2.137487,-0.13973 0.09845,-0.159289 0.01807,-0.289617 -0.178619,-0.289617 -0.457947,0 -0.833372,-1.98486 -0.671742,-3.551477 l 0.124942,-1.211023 0.673114,1.322917 c 0.723446,1.421838 1.76863,1.755737 2.111759,0.674631 0.308859,-0.973133 2.027832,-2.753568 2.928594,-3.033309 0.436562,-0.135579 0.79375,-0.505684 0.79375,-0.822456 0,-0.447961 -0.09407,-0.481875 -0.423333,-0.152616 -0.726387,0.726387 -1.340256,0.476998 -1.345957,-0.546806 -0.0077,-1.380475 -0.530825,-2.028472 -1.637616,-2.028472 -0.91704,0 -2.694767,1.348058 -2.791314,2.116667 -0.02437,0.194027 -0.06849,0.551215 -0.09805,0.79375 -0.07353,0.603416 -1.112067,0.561392 -1.112067,-0.045 0,-0.267284 0.229521,-0.676456 0.510046,-0.909271 0.363212,-0.30144 0.421408,-0.656434 0.202151,-1.233125 -0.19231,-0.505813 -0.170184,-0.947534 0.05894,-1.176657 0.460782,-0.460782 0.07095,-1.133865 -0.656711,-1.133865 -0.375717,0 -0.491171,0.223017 -0.365076,0.705204 0.101428,0.387862 0.04057,0.794106 -0.135244,0.902764 -0.175813,0.108658 -0.319659,0.575698 -0.319659,1.037865 0,0.462168 -0.144424,0.929564 -0.320943,1.038658 -0.522811,0.323116 -1.360092,-0.154554 -1.551079,-0.884892 -0.286226,-1.094529 -1.239014,-1.214734 -2.27161,-0.286592 -0.794677,0.71429 -0.762236,0.617363 0.219177,-0.654858 1.553534,-2.01387 2.725455,-2.887214 3.575871,-2.664825 0.390729,0.102178 0.701361,0.0089 0.701361,-0.210513 0,-0.216657 -0.15875,-0.393922 -0.352777,-0.393922 -0.810746,0 -0.235151,-0.770196 1.574908,-2.107365 2.684002,-1.982788 3.55598,-2.345793 4.25043,-1.769453 0.431137,0.357813 0.648727,0.366087 0.977636,0.03718 0.328912,-0.328911 0.306338,-0.495219 -0.101427,-0.747231 -1.031685,-0.637617 0.882113,-1.492038 7.494849,-3.346094 1.614512,-0.452671 2.903128,-0.520319 6.35,-0.333354 2.378439,0.129011 4.959439,0.340264 5.735549,0.46945 l 1.41111,0.234884 v 2.987243 c 0,3.091108 0.21567,3.869187 1.07243,3.869187 0.59564,0 0.89298,-1.03081 1.03522,-3.588851 0.13794,-2.480796 0.11881,-2.408371 0.63613,-2.408371 0.76587,0 5.7386,2.680409 7.72157,4.162094 5.48665,4.099647 10.23701,11.648087 11.03428,17.533739 0.10513,0.776111 -0.12038,0.253165 -0.50114,-1.162104 -0.38075,-1.415268 -0.91634,-3.002768 -1.1902,-3.527777 -0.27385,-0.52501 -0.86732,-1.800537 -1.31881,-2.834504 -0.4515,-1.033968 -1.34352,-2.338805 -1.98227,-2.899639 -0.63876,-0.560834 -1.16137,-1.169042 -1.16137,-1.351575 0,-0.182532 -0.64031,-1.141919 -1.4229,-2.131971 -1.95749,-2.47642 -5.33691,-4.878458 -7.27165,-5.168591 -0.84481,-0.126686 -1.53601,-0.366987 -1.53601,-0.534002 0,-0.26556 -1.81057,-1.380114 -2.24197,-1.380114 -0.0882,0 -0.0754,0.633481 0.0285,1.407735 0.10385,0.774255 0.0346,1.607692 -0.15393,1.852084 -0.45397,0.588527 -0.0592,1.855458 0.57815,1.855458 0.60311,0 1.11822,1.666432 0.71618,2.316933 -0.2304,0.372802 -0.38665,0.374936 -0.82484,0.01126 -0.29734,-0.246762 -0.70631,-0.346248 -0.90884,-0.221079 -0.63703,0.393707 -0.4007,1.607773 0.36834,1.892262 0.66236,0.245021 0.68013,0.319317 0.17639,0.737383 -0.30809,0.255698 -0.56017,0.921718 -0.56017,1.480044 0,1.040401 0.61265,1.299394 1.9027,0.804354 0.4967,-0.190604 0.49628,-0.313291 -0.004,-1.281536 -0.59875,-1.157857 -0.2922,-1.665865 1.01213,-1.677278 0.33955,-0.003 0.73638,-0.01351 0.88184,-0.02342 0.14546,-0.0099 0.36556,0.476252 0.48911,1.080357 0.17424,0.851907 0.0753,1.191632 -0.44086,1.513986 -0.88156,0.550543 -0.84025,0.877561 0.12824,1.015109 1.11707,0.158648 0.95165,0.783958 -0.26312,0.994675 l -1.01687,0.176389 1.07747,1.234722 c 0.59261,0.679097 1.19777,1.631597 1.3448,2.116667 0.16126,0.532018 -0.20478,0.18439 -0.92254,-0.876156 -0.65444,-0.966955 -2.02332,-2.378324 -3.04196,-3.136377 -1.01865,-0.758053 -1.85209,-1.647012 -1.85209,-1.975465 0,-0.801608 -0.37818,-1.132514 -0.84948,-0.743294 -0.23814,0.196661 -1.39553,-0.02311 -3.03107,-0.575555 -2.4057,-0.812584 -2.998037,-0.875352 -6.526393,-0.691581 -5.653384,0.294451 -8.787282,1.600205 -12.553203,5.230353 -3.293247,3.174514 -4.441534,5.657164 -4.943316,10.687678 -0.446911,4.480419 -0.318504,5.100359 2.02714,9.786839 0.844061,1.68639 1.534656,3.371546 1.534656,3.744785 0,0.373243 0.3175,1.082259 0.705555,1.575591 0.388056,0.493331 0.705556,1.204513 0.705556,1.580398 0,0.375888 0.3175,0.970763 0.705556,1.32195 0.388055,0.351187 0.705555,0.92583 0.705555,1.276985 0,0.351159 0.289334,0.793316 0.642966,0.982574 1.296772,0.69401 2.532034,2.979039 2.532034,4.683845 v 1.61381 l -2.910416,0.35755 c -1.60073,0.19665 -3.227917,0.46106 -3.615973,0.58759 -0.47047,0.1534 -1.293271,-0.13307 -2.469444,-0.85978 z"
       id="path1126"
       inkscape:connector-curvature="0" />
    <path
       style="fill:#8f916c;stroke-width:0.35277778"
       d="m 81.768846,101.53587 c 0,-0.19402 -0.15875,-0.35277 -0.352778,-0.35277 -0.194028,0 -0.352778,0.15875 -0.352778,0.35277 0,0.19403 0.15875,0.35278 0.352778,0.35278 0.194028,0 0.352778,-0.15875 0.352778,-0.35278 z"
       id="path1124"
       inkscape:connector-curvature="0" />
    <path
       style="fill:#8f916c;stroke-width:0.35277778"
       d="m 78.241068,99.263639 c 0,-0.279591 -0.142115,-0.596181 -0.315812,-0.703531 -0.363155,-0.224441 -0.801036,0.682992 -0.483029,1.000997 0.378538,0.378541 0.798841,0.222031 0.798841,-0.297466 z"
       id="path1122"
       inkscape:connector-curvature="0" />
    <path
       style="fill:#8f916c;stroke-width:0.35277778"
       d="m 83.388364,98.493486 c -0.181028,-0.471745 -0.324569,-0.510339 -0.657994,-0.176914 -0.333428,0.333428 -0.313895,0.49603 0.08954,0.745366 0.656911,0.405994 0.863216,0.199694 0.568452,-0.568452 z"
       id="path1120"
       inkscape:connector-curvature="0" />
    <path
       style="fill:#8f916c;stroke-width:0.35277778"
       d="m 77.7765,96.883656 c -0.112616,-0.281421 -0.196209,-0.19783 -0.213137,0.213138 -0.01532,0.371884 0.06806,0.580246 0.185286,0.463021 0.117225,-0.117228 0.129758,-0.421499 0.02785,-0.676159 z"
       id="path1118"
       inkscape:connector-curvature="0" />
    <path
       style="fill:#8f916c;stroke-width:0.35277778"
       d="m 74.766207,95.362302 c 0,-0.184326 -0.170657,-0.392024 -0.379236,-0.461549 -0.20858,-0.06953 -0.379237,0.138169 -0.379237,0.461549 0,0.323381 0.170657,0.531079 0.379237,0.46155 0.208579,-0.06952 0.379236,-0.277223 0.379236,-0.46155 z"
       id="path1116"
       inkscape:connector-curvature="0" />
    <path
       style="fill:#8f916c;stroke-width:0.35277778"
       d="m 74.201653,94.12758 c 0.641269,0 0.633248,-0.338716 -0.02875,-1.213954 -0.284872,-0.376633 -0.517948,-0.996551 -0.517948,-1.377594 0,-0.648832 -0.04095,-0.655747 -0.64514,-0.108962 -0.354826,0.321116 -0.914528,0.583843 -1.243781,0.583843 -0.559656,0 -0.560719,0.07467 -0.01633,1.146528 0.945911,1.862409 1.271205,2.165756 1.631694,1.521598 0.169737,-0.303304 0.53885,-0.551459 0.82025,-0.551459 z"
       id="path1114"
       inkscape:connector-curvature="0" />
    <path
       style="fill:#8f916c;stroke-width:0.35277778"
       d="m 78.940529,93.200635 c 0.0034,-0.218775 -0.243067,-0.604562 -0.547598,-0.857299 -0.349006,-0.289648 -0.470389,-0.72946 -0.328349,-1.189722 0.50337,-1.63111 1.109119,-5.392169 1.052295,-6.533635 -0.07592,-1.525153 -0.961797,-2.199269 -1.79508,-1.365984 -0.53641,0.53641 -0.536905,0.705422 -0.0066,2.261722 0.807108,2.368734 0.749918,3.245933 -0.220637,3.384212 -0.637192,0.09078 -0.77906,0.315986 -0.719271,1.141768 0.04096,0.565775 0.256674,1.141282 0.479356,1.278908 0.266107,0.164461 0.321385,0.7444 0.161283,1.692042 -0.328458,1.944127 0.01507,2.390412 1.070079,1.39017 0.466646,-0.442422 0.851189,-0.983403 0.854541,-1.202182 z"
       id="path1112"
       inkscape:connector-curvature="0" />
    <path
       style="fill:#8f916c;stroke-width:0.35277778"
       d="m 75.771623,92.363691 c 0,-0.194028 -0.238125,-0.352778 -0.529166,-0.352778 -0.291042,0 -0.529167,0.15875 -0.529167,0.352778 0,0.194028 0.238125,0.352778 0.529167,0.352778 0.291041,0 0.529166,-0.15875 0.529166,-0.352778 z"
       id="path1110"
       inkscape:connector-curvature="0" />
    <path
       style="fill:#8f916c;stroke-width:0.35277778"
       d="m 73.047922,89.887473 c 0.483293,-0.396511 -0.619482,-2.089231 -1.148209,-1.76246 -0.260606,0.161065 -0.66912,0.217904 -0.907808,0.126312 -0.634892,-0.243631 -0.198135,-1.472166 0.615136,-1.730286 0.685666,-0.217625 0.684824,-0.230897 -0.04718,-0.74361 -1.228125,-0.860213 -1.563768,-0.436284 -1.535437,1.939308 0.03199,2.682681 0.470673,3.362194 1.805235,2.796293 0.518843,-0.220007 1.067059,-0.501509 1.21826,-0.625557 z"
       id="path1108"
       inkscape:connector-curvature="0" />
    <path
       style="fill:#8f916c;stroke-width:0.35277778"
       d="m 74.536901,89.541469 c -0.119916,-0.194028 -0.36741,-0.352778 -0.549986,-0.352778 -0.182577,0 -0.331958,0.15875 -0.331958,0.352778 0,0.194028 0.247494,0.352778 0.549986,0.352778 0.302493,0 0.451874,-0.15875 0.331958,-0.352778 z"
       id="path1106"
       inkscape:connector-curvature="0" />
    <path
       style="fill:#8f916c;stroke-width:0.35277778"
       d="m 69.715892,84.271071 c 0.0801,-0.54725 -0.03298,-0.755688 -0.352778,-0.650289 -0.258862,0.08532 -0.523703,0.517553 -0.588537,0.960529 -0.0801,0.54725 0.03298,0.755689 0.352777,0.65029 0.258862,-0.08532 0.523704,-0.517554 0.588538,-0.96053 z"
       id="path1104"
       inkscape:connector-curvature="0" />
    <path
       style="fill:#8f916c;stroke-width:0.35277778"
       d="m 71.891068,84.822163 c 0,-0.07325 -0.238125,-0.330817 -0.529167,-0.572361 -0.43339,-0.359681 -0.529167,-0.335576 -0.529167,0.133195 0,0.314798 0.238125,0.572361 0.529167,0.572361 0.291042,0 0.529167,-0.05994 0.529167,-0.133195 z"
       id="path1102"
       inkscape:connector-curvature="0" />
    <path
       style="fill:#8f916c;stroke-width:0.35277778"
       d="m 68.863604,78.038448 c 0.30691,-0.117772 0.558019,-0.446913 0.558019,-0.731422 0,-0.723854 -1.198367,-0.427771 -1.344733,0.332243 -0.129501,0.672444 -0.04162,0.717038 0.786714,0.399179 z"
       id="path1100"
       inkscape:connector-curvature="0" />
    <path
       style="fill:#8f916c;stroke-width:0.35277778"
       d="m 77.423722,77.128101 c -0.112616,-0.281421 -0.196209,-0.197831 -0.213137,0.213138 -0.01532,0.371884 0.06806,0.580245 0.185286,0.463021 0.117225,-0.117228 0.129758,-0.421499 0.02785,-0.676159 z"
       id="path1098"
       inkscape:connector-curvature="0" />
    <path
       style="fill:#8f916c;stroke-width:0.35277778"
       d="m 78.235666,73.754664 c 0.003,-0.436563 -0.136364,-0.79375 -0.309632,-0.79375 -0.47169,0 -0.721359,0.889642 -0.493838,1.759683 0.15181,0.580524 0.274465,0.653832 0.499636,0.298609 0.164137,-0.258935 0.300863,-0.82798 0.303834,-1.264542 z"
       id="path1096"
       inkscape:connector-curvature="0" />
    <path
       style="fill:#8f916c;stroke-width:0.35277778"
       d="m 78.129278,71.483657 c -0.112616,-0.281423 -0.196209,-0.19783 -0.213137,0.213136 -0.01532,0.371887 0.06806,0.580246 0.185286,0.463021 0.117225,-0.117225 0.129758,-0.421496 0.02785,-0.676157 z"
       id="path1094"
       inkscape:connector-curvature="0" />
    <path
       style="fill:#8f916c;stroke-width:0.35277778"
       d="m 78.241068,70.159511 c 0,-0.182577 -0.15875,-0.43007 -0.352778,-0.549986 -0.194028,-0.119916 -0.352778,0.02947 -0.352778,0.331958 0,0.302492 0.15875,0.549986 0.352778,0.549986 0.194028,0 0.352778,-0.149381 0.352778,-0.331958 z"
       id="path1092"
       inkscape:connector-curvature="0" />
    <path
       style="fill:#8f916c;stroke-width:0.35277778"
       d="m 88.648013,59.026191 c 0,-0.77935 -1.100466,-1.15731 -1.680577,-0.577201 -0.259362,0.259361 -0.231323,0.5391 0.09322,0.930158 0.614024,0.739855 1.587352,0.52343 1.587352,-0.352957 z"
       id="path1090"
       inkscape:connector-curvature="0" />
    <path
       style="fill:#8f916c;stroke-width:0.35277778"
       d="m 105.74652,57.746471 c 0.0188,-0.962231 -0.7802,-1.375434 -1.55878,-0.806123 -0.37733,0.275909 -0.97219,0.410835 -1.32191,0.299836 -0.46022,-0.146065 -0.63587,-0.01681 -0.63587,0.4679 0,0.617957 0.8191,1.232418 2.11667,1.587859 0.60398,0.165449 1.38323,-0.697061 1.39989,-1.549472 z"
       id="path1088"
       inkscape:connector-curvature="0" />
    <path
       style="fill:#8f916c;stroke-width:0.35277778"
       d="m 76.056785,58.470566 c -0.06953,-0.208579 -0.277224,-0.379236 -0.46155,-0.379236 -0.184327,0 -0.392025,0.170657 -0.461551,0.379236 -0.06953,0.20858 0.138171,0.379237 0.461551,0.379237 0.323379,0 0.531077,-0.170657 0.46155,-0.379237 z"
       id="path1086"
       inkscape:connector-curvature="0" />
    <path
       style="fill:#8f916c;stroke-width:0.35277778"
       d="m 85.285406,58.408826 c -0.0062,-0.242534 -0.230121,-0.729741 -0.497668,-1.08268 -0.46562,-0.614234 -0.496323,-0.610594 -0.717109,0.08504 -0.126862,0.399711 -0.131667,0.886917 -0.01069,1.082681 0.312773,0.506075 1.238857,0.441811 1.225455,-0.08504 z"
       id="path1084"
       inkscape:connector-curvature="0" />
    <path
       style="fill:#8f916c;stroke-width:0.35277778"
       d="m 98.863502,56.40473 c 0.260897,-0.422134 -0.402738,-0.840396 -0.872631,-0.549986 -0.394533,0.243834 -0.135527,0.878388 0.358532,0.878388 0.171125,0 0.40247,-0.147781 0.514099,-0.328402 z"
       id="path1082"
       inkscape:connector-curvature="0" />
    <path
       style="fill:#8f916c;stroke-width:0.35277778"
       d="m 102.82751,56.152951 c 0.20295,-0.528867 -0.66886,-1.536486 -1.32939,-1.536486 -0.56218,0 -0.58589,1.428982 -0.0291,1.753993 0.83221,0.485788 1.1054,0.442048 1.35849,-0.217507 z"
       id="path1080"
       inkscape:connector-curvature="0" />
    <path
       style="fill:#8f916c;stroke-width:0.35277778"
       d="m 87.113373,55.322021 c 0.202918,-0.582084 0.51216,-1.058334 0.687208,-1.058334 0.651369,0 0.287344,-0.606392 -0.609269,-1.014915 -0.510141,-0.232437 -0.9643,-0.376981 -1.00924,-0.32121 -0.241156,0.29928 -0.489085,3.026007 -0.292972,3.222118 0.469812,0.469814 0.865138,0.202557 1.224273,-0.827659 z"
       id="path1078"
       inkscape:connector-curvature="0" />
    <path
       style="fill:#8f916c;stroke-width:0.35277778"
       d="m 88.471624,56.027576 c 0,-0.194027 -0.15875,-0.352777 -0.352778,-0.352777 -0.194027,0 -0.352777,0.15875 -0.352777,0.352777 0,0.194028 0.15875,0.352778 0.352777,0.352778 0.194028,0 0.352778,-0.15875 0.352778,-0.352778 z"
       id="path1076"
       inkscape:connector-curvature="0" />
    <path
       style="fill:#8f916c;stroke-width:0.35277778"
       d="m 98.073061,53.846234 c -0.538875,-0.538873 -0.936498,-0.141247 -0.637621,0.637618 0.176474,0.459875 0.329466,0.505443 0.643304,0.191604 0.313842,-0.31384 0.312487,-0.51105 -0.0057,-0.829222 z"
       id="path1074"
       inkscape:connector-curvature="0" />
    <path
       style="fill:#8f916c;stroke-width:0.35277778"
       d="m 80.796855,53.734525 c -0.17145,-0.896882 -0.916619,-1.183573 -1.331506,-0.512273 -0.36803,0.595485 0.108839,1.394217 0.832393,1.394217 0.521995,0 0.630916,-0.192465 0.499113,-0.881944 z"
       id="path1072"
       inkscape:connector-curvature="0" />
    <path
       style="fill:#8f916c;stroke-width:0.35277778"
       d="m 95.879958,53.595879 c 0,-0.396536 -0.917617,-0.766422 -1.200231,-0.483807 -0.424664,0.424661 -0.192956,0.798842 0.494675,0.798842 0.388056,0 0.705556,-0.141766 0.705556,-0.315035 z"
       id="path1070"
       inkscape:connector-curvature="0" />
    <path
       style="fill:#8f916c;stroke-width:0.35277778"
       d="m 104.34663,52.655372 c 0,-0.302493 -0.15875,-0.451874 -0.35278,-0.331958 -0.19403,0.119916 -0.35278,0.367409 -0.35278,0.549986 0,0.182577 0.15875,0.331958 0.35278,0.331958 0.19403,0 0.35278,-0.247494 0.35278,-0.549986 z"
       id="path1068"
       inkscape:connector-curvature="0" />
    <path
       style="fill:#8f916c;stroke-width:0.35277778"
       d="m 90.588291,52.499803 c 0,-0.194028 -0.15875,-0.352778 -0.352778,-0.352778 -0.194028,0 -0.352778,0.15875 -0.352778,0.352778 0,0.194027 0.15875,0.352777 0.352778,0.352777 0.194028,0 0.352778,-0.15875 0.352778,-0.352777 z"
       id="path1066"
       inkscape:connector-curvature="0" />
    <path
       style="fill:#8f916c;stroke-width:0.35277778"
       d="m 97.996625,51.26508 c 0,-0.291041 -0.14938,-0.529166 -0.331957,-0.529166 -0.444846,0 -0.763446,0.550894 -0.481602,0.832739 0.397295,0.397292 0.813559,0.241966 0.813559,-0.303573 z"
       id="path1064"
       inkscape:connector-curvature="0" />
    <path
       style="fill:#8f916c;stroke-width:0.35277778"
       d="m 104.27255,99.242858 c 0.20975,-0.388056 1.26139,-1.801262 2.33698,-3.14046 1.07559,-1.339197 2.18875,-2.767947 2.47369,-3.175 0.28493,-0.407052 0.52639,-0.571856 0.53657,-0.366232 0.0102,0.205623 -0.70745,1.22434 -1.59473,2.26381 -1.21314,1.421232 -1.55604,2.072178 -1.38263,2.624748 0.75507,2.406008 0.59947,2.794446 -0.72907,1.820061 -0.59936,-0.439582 -0.76821,-0.428579 -1.35348,0.08819 -0.63497,0.560652 -0.64946,0.554845 -0.28733,-0.115122 z"
       id="path1058"
       inkscape:connector-curvature="0" />
    <path
       style="fill:#8f916c;stroke-width:0.35277778"
       d="m 115.84597,98.06325 c -0.12208,-0.197527 -0.0501,-0.465381 0.16004,-0.595231 0.54239,-0.335213 0.89234,0.123948 0.43955,0.576735 -0.25335,0.253358 -0.45068,0.259443 -0.59959,0.01849 z"
       id="path1056"
       inkscape:connector-curvature="0" />
    <path
       style="fill:#8f916c;stroke-width:0.35277778"
       d="m 113.07258,94.392163 c -0.18778,-0.543761 0.44662,-2.028472 0.86674,-2.028472 0.53741,0 0.70615,0.977128 0.29984,1.736323 -0.44202,0.825906 -0.93925,0.950429 -1.16658,0.292149 z"
       id="path1052"
       inkscape:connector-curvature="0" />
    <path
       style="fill:#8f916c;stroke-width:0.35277778"
       d="m 121.63274,93.886153 c 0,-0.201912 0.47625,-0.966392 1.05833,-1.698851 0.58208,-0.732458 1.05392,-1.190847 1.04852,-1.018645 -0.0143,0.45479 -2.10685,3.153903 -2.10685,2.717496 z"
       id="path1050"
       inkscape:connector-curvature="0" />
    <path
       style="fill:#8f916c;stroke-width:0.35277778"
       d="m 109.66614,91.628185 c -0.0153,-0.307517 0.79017,-1.895017 1.78996,-3.527778 1.1528,-1.882641 1.98667,-3.742997 2.27941,-5.085327 l 0.4616,-2.116666 -0.17859,1.940277 c -0.14058,1.527345 -0.57989,2.615989 -2.06421,5.115278 -1.03709,1.74625 -1.96993,3.413125 -2.07297,3.704167 -0.1594,0.450218 -0.1915,0.445749 -0.2152,-0.02995 z"
       id="path1048"
       inkscape:connector-curvature="0" />
    <path
       style="fill:#8f916c;stroke-width:0.35277778"
       d="m 113.53272,89.92774 c -0.52867,-1.276315 -0.35878,-2.679327 0.32444,-2.679327 0.57395,0 1.09825,1.943139 0.81577,3.023348 -0.25216,0.964244 -0.64775,0.844889 -1.14021,-0.344021 z"
       id="path1042"
       inkscape:connector-curvature="0" />
    <path
       style="fill:#8f916c;stroke-width:0.35277778"
       d="m 123.22024,90.228744 c -0.58211,-0.23506 -0.59972,-0.289246 -0.10061,-0.3097 0.82728,-0.03391 1.33533,-1.10828 1.33533,-2.823828 0,-1.199116 0.11569,-1.434302 0.70556,-1.434302 0.42333,0 0.70555,-0.235187 0.70555,-0.587965 0,-0.323377 0.10254,-0.485425 0.22786,-0.360105 0.12532,0.125318 -0.16673,1.143963 -0.64899,2.263655 -0.48227,1.119692 -1.02137,2.373606 -1.198,2.786476 -0.24671,0.576693 -0.48467,0.684643 -1.0267,0.465769 z"
       id="path1040"
       inkscape:connector-curvature="0" />
    <path
       style="fill:#8f916c;stroke-width:0.35277778"
       d="m 123.04385,84.094234 c 0,-0.302492 0.15875,-0.549987 0.35278,-0.549987 0.19402,0 0.35277,0.14938 0.35277,0.331957 0,0.182576 -0.15875,0.430071 -0.35277,0.549987 -0.19403,0.119917 -0.35278,-0.02946 -0.35278,-0.331957 z"
       id="path1034"
       inkscape:connector-curvature="0" />
    <path
       style="fill:#8f916c;stroke-width:0.35277778"
       d="m 126.41528,83.103275 c 0.16161,-1.135335 0.0921,-1.322917 -0.49003,-1.322917 -0.37309,0 -0.87441,-0.236248 -1.11405,-0.524993 -0.35217,-0.424343 -0.32975,-0.565648 0.11694,-0.737059 1.18331,-0.454078 1.92057,-2.395259 1.76914,-4.658025 -0.0831,-1.241753 0.009,-2.235143 0.2183,-2.364743 0.23438,-0.144861 0.3616,0.685867 0.3616,2.361275 0,2.166772 -0.14078,2.791937 -0.87056,3.865905 l -0.87056,1.281144 0.72571,0.481852 c 0.6412,0.425736 0.68143,0.62502 0.34545,1.711167 l -0.38026,1.22931 z"
       id="path1032"
       inkscape:connector-curvature="0" />
    <path
       style="fill:#8f916c;stroke-width:0.35277778"
       d="m 123.78994,79.696207 c -0.3904,-0.247244 -0.33721,-0.390493 0.26458,-0.712565 0.41427,-0.221711 0.75322,-0.635646 0.75322,-0.919861 0,-0.284216 0.15875,-0.516756 0.35278,-0.516756 0.46263,0 0.44575,0.468295 -0.0566,1.570901 -0.44682,0.980652 -0.58357,1.04084 -1.31395,0.578281 z"
       id="path1030"
       inkscape:connector-curvature="0" />
    <path
       style="fill:#8f916c;stroke-width:0.35277778"
       d="m 71.714679,77.194247 c 0.119916,-0.194028 0.288034,-0.352778 0.373597,-0.352778 0.08556,0 0.155569,0.15875 0.155569,0.352778 0,0.194028 -0.168119,0.352778 -0.373597,0.352778 -0.205479,0 -0.275485,-0.15875 -0.155569,-0.352778 z"
       id="path1024"
       inkscape:connector-curvature="0" />
    <path
       style="fill:#8f916c;stroke-width:0.35277778"
       d="m 115.0118,76.488691 c 0,-0.679097 0.0726,-0.956909 0.16134,-0.617361 0.0887,0.339549 0.0887,0.895174 0,1.234722 -0.0887,0.339549 -0.16134,0.06174 -0.16134,-0.617361 z"
       id="path1022"
       inkscape:connector-curvature="0" />
    <path
       style="fill:#8f916c;stroke-width:0.35277778"
       d="m 70.15851,75.382719 c -0.844931,-0.906928 -1.79522,-2.835047 -1.79522,-3.642468 0,-0.864071 -0.698612,-0.279971 -0.746479,0.624121 -0.02899,0.547547 -0.08623,0.60195 -0.196287,0.186564 -0.148247,-0.559505 1.946254,-7.876349 2.186027,-7.636576 0.161187,0.161187 -0.554634,3.154061 -0.931976,3.896628 -0.503376,0.990587 -0.369194,1.274176 0.658854,1.392466 1.136131,0.130726 1.47732,1.303808 0.765857,2.633188 -0.554404,1.035913 -0.27733,1.323716 1.274374,1.323716 0.933453,0 1.222963,0.147384 1.222963,0.622589 0,0.52952 -0.943708,1.352967 -1.550565,1.352967 -0.102211,0 -0.501608,-0.338939 -0.887548,-0.753195 z"
       id="path1016"
       inkscape:connector-curvature="0" />
    <path
       style="fill:#8f916c;stroke-width:0.35277778"
       d="m 69.774401,71.373414 c 0,-0.291042 -0.15875,-0.529167 -0.352778,-0.529167 -0.194028,0 -0.352778,0.238125 -0.352778,0.529167 0,0.291041 0.15875,0.529166 0.352778,0.529166 0.194028,0 0.352778,-0.238125 0.352778,-0.529166 z"
       id="path1014"
       inkscape:connector-curvature="0" />
    <path
       style="fill:#8f916c;stroke-width:0.35277778"
       d="m 123.39663,73.708107 c 0,-0.194027 0.15875,-0.450888 0.35277,-0.570805 0.19403,-0.119916 0.35278,-0.05928 0.35278,0.134751 0,0.194028 -0.15875,0.450889 -0.35278,0.570805 -0.19402,0.119916 -0.35277,0.05928 -0.35277,-0.134751 z"
       id="path1012"
       inkscape:connector-curvature="0" />
    <path
       style="fill:#8f916c;stroke-width:0.35277778"
       d="m 113.5467,71.344016 c 0.0169,-0.410966 0.10052,-0.49456 0.21313,-0.213137 0.10191,0.254661 0.0894,0.558932 -0.0278,0.676157 -0.11723,0.117225 -0.2006,-0.09113 -0.18529,-0.46302 z"
       id="path1008"
       inkscape:connector-curvature="0" />
    <path
       style="fill:#8f916c;stroke-width:0.35277778"
       d="m 122.87698,71.212432 c -0.11468,-0.185554 -0.42937,-0.252616 -0.69932,-0.149028 -0.63059,0.241981 -1.25048,-0.91726 -1.25048,-2.338499 0,-0.865329 0.13495,-1.081081 0.61736,-0.987023 0.37441,0.073 0.62072,0.44516 0.62588,0.945681 0.005,0.453921 0.43112,1.188817 0.94763,1.633102 0.51651,0.444284 0.84341,0.903493 0.72643,1.020464 -0.31297,0.312973 -0.73024,0.259193 -0.9675,-0.124697 z"
       id="path1006"
       inkscape:connector-curvature="0" />
    <path
       style="fill:#8f916c;stroke-width:0.35277778"
       d="m 118.34015,67.786839 c -0.48563,-0.485621 -0.2095,-1.175925 0.47037,-1.175925 0.47036,0 0.70555,0.235185 0.70555,0.705555 0,0.67987 -0.6903,0.955992 -1.17592,0.47037 z"
       id="path1004"
       inkscape:connector-curvature="0" />
    <path
       style="fill:#8f916c;stroke-width:0.35277778"
       d="m 122.2181,66.80199 c -0.65233,-0.494298 -0.55405,-1.954965 0.13155,-1.954965 0.39899,0 1.04698,1.186511 1.04698,1.917086 0,0.674247 -0.32492,0.684691 -1.17853,0.03788 z"
       id="path1000"
       inkscape:connector-curvature="0" />
    <path
       style="fill:#8f916c;stroke-width:0.35277778"
       d="m 73.994718,66.066063 c -0.298792,-0.360022 -0.770732,-0.474886 -1.391223,-0.338603 -0.772523,0.169674 -1.014233,0.04121 -1.363099,-0.724469 -0.271725,-0.596372 -0.610983,-0.858987 -0.944395,-0.731044 -0.3546,0.136072 -0.181823,-0.470914 0.542445,-1.905682 1.020862,-2.022316 1.796567,-2.99707 1.008323,-1.267061 -0.301883,0.662561 -0.255233,1.031687 0.22254,1.76086 0.33247,0.507413 0.733914,0.842581 0.892099,0.744818 0.512964,-0.31703 3.15785,-0.462693 3.33045,-0.18342 0.219413,0.355017 -1.152375,3.189452 -1.543606,3.189452 -0.165741,0 -0.504832,-0.245183 -0.753534,-0.544851 z"
       id="path998"
       inkscape:connector-curvature="0" />
    <path
       style="fill:#8f916c;stroke-width:0.35277778"
       d="m 118.45774,65.332996 c 0,-0.468768 0.0958,-0.492875 0.52916,-0.133193 0.29105,0.241543 0.52917,0.499106 0.52917,0.572362 0,0.07326 -0.23812,0.133193 -0.52917,0.133193 -0.29104,0 -0.52916,-0.257563 -0.52916,-0.572362 z"
       id="path992"
       inkscape:connector-curvature="0" />
    <path
       style="fill:#8f916c;stroke-width:0.35277778"
       d="m 91.53061,64.966194 c -0.128485,-0.128485 -0.751075,-0.214155 -1.383531,-0.190379 -0.632457,0.02378 -1.367878,-0.09148 -1.634272,-0.256116 -0.738744,-0.456568 -0.08334,-1.170855 0.857628,-0.934686 0.452011,0.113447 0.920313,0.04694 1.040666,-0.147805 0.120357,-0.194739 0.521977,-0.354072 0.892493,-0.354072 0.482057,0 0.617178,0.175595 0.475068,0.617361 -0.158676,0.493271 -0.126993,0.516516 0.157628,0.115644 0.248081,-0.349401 1.161218,-0.51613 3.007823,-0.549193 2.503007,-0.04482 2.631482,-0.0099 2.292681,0.623157 -0.222811,0.416325 -0.606372,0.605923 -1.011481,0.499984 -0.3642,-0.09524 -0.735686,0.04596 -0.840666,0.319532 -0.194588,0.507091 -3.390745,0.719867 -3.854037,0.256573 z"
       id="path988"
       inkscape:connector-curvature="0" />
    <path
       style="fill:#8f916c;stroke-width:0.35277778"
       d="m 98.823917,64.655421 c -0.114896,-0.29941 -0.116759,-0.636521 -0.0042,-0.749137 0.355971,-0.355969 1.293513,0.190012 1.293513,0.75328 0,0.704162 -1.018822,0.700888 -1.289368,-0.0041 z"
       id="path986"
       inkscape:connector-curvature="0" />
    <path
       style="fill:#8f916c;stroke-width:0.35277778"
       d="m 120.62313,61.555065 c -0.26819,-0.323546 -0.37459,-0.854338 -0.24086,-1.201464 0.22822,-0.592352 0.25632,-0.592039 0.59237,0.0066 0.19403,0.345645 0.30242,0.886304 0.24086,1.201464 -0.10289,0.526739 -0.15073,0.526207 -0.59237,-0.0066 z"
       id="path984"
       inkscape:connector-curvature="0" />
  </g>
</svg>
