<?xml version="1.0" encoding="UTF-8" standalone="no"?>
<svg
   space="preserve"
   version="1.0"
   viewBox="0 0 304 64"
   id="svg6"
   sodipodi:docname="ArrowN.svg"
   width="304"
   height="64"
   inkscape:version="1.2.2 (b0a8486541, 2022-12-01)"
   xml:space="preserve"
   xmlns:inkscape="http://www.inkscape.org/namespaces/inkscape"
   xmlns:sodipodi="http://sodipodi.sourceforge.net/DTD/sodipodi-0.dtd"
   xmlns="http://www.w3.org/2000/svg"
   xmlns:svg="http://www.w3.org/2000/svg"><defs
     id="defs10" /><sodipodi:namedview
     id="namedview8"
     pagecolor="#ffffff"
     bordercolor="#666666"
     borderopacity="1.0"
     inkscape:showpageshadow="2"
     inkscape:pageopacity="0.0"
     inkscape:pagecheckerboard="0"
     inkscape:deskcolor="#d1d1d1"
     showgrid="false"
     inkscape:zoom="3.6603904"
     inkscape:cx="130.58716"
     inkscape:cy="21.309202"
     inkscape:window-width="1920"
     inkscape:window-height="979"
     inkscape:window-x="0"
     inkscape:window-y="32"
     inkscape:window-maximized="1"
     inkscape:current-layer="svg6" /><g
     id="g537"
     transform="translate(-38.612061)"><path
       d="m 64.612061,11.987785 c 0,-0.03181 5.999891,-11.99977998 6.009846,-11.9877759759346 C 70.655267,0.04032902 76.623005,11.990778 76.612046,11.995231 c -0.0071,6.6e-4 -1.359328,-0.577573 -3.004888,-1.289895 0,0 -2.991852,-1.295156 -2.991852,-1.295156 0,0 -2.98704,1.29492 -2.98704,1.29492 -1.642809,0.712207 -2.99353,1.294931 -3.00157,1.294931 -0.0083,0 -0.0145,-0.006 -0.0145,-0.01212 0,0 0,0 0,0 z"
       id="path303"
       style="fill:#161413;fill-rule:evenodd;stroke:none;stroke-width:0.0214308;stroke-linecap:butt;stroke-linejoin:miter;stroke-dasharray:none" /><rect
       style="fill:#000000;stroke-width:3.51004"
       id="rect481"
       width="2.8180001"
       height="56"
       x="69.182152"
       y="8" /></g><g
     id="g630"
     transform="translate(50.717534,16)"><path
       d="m 55.282466,11.987785 c 0,-0.03181 5.999891,-11.99977998 6.009846,-11.9877759759346 C 61.325672,0.04032902 67.29341,11.990778 67.282451,11.995231 c -0.0071,6.6e-4 -1.359328,-0.577573 -3.004888,-1.289895 0,0 -2.991852,-1.295156 -2.991852,-1.295156 0,0 -2.98704,1.29492 -2.98704,1.29492 -1.642809,0.712207 -2.99353,1.294931 -3.00157,1.294931 -0.0083,0 -0.0145,-0.006 -0.0145,-0.01212 0,0 0,0 0,0 z"
       id="path303-6"
       style="fill:#161413;fill-rule:evenodd;stroke:none;stroke-width:0.0214308;stroke-linecap:butt;stroke-linejoin:miter;stroke-dasharray:none" /><rect
       style="fill:#000000;stroke-width:2.29786"
       id="rect481-7"
       width="2.8180001"
       height="24"
       x="59.852558"
       y="8" /></g><g
     id="g634"
     transform="translate(103.36322,24)"><path
       d="m 82.636781,11.987785 c 0,-0.03181 5.999891,-11.99977998 6.009846,-11.9877759759346 C 88.679987,0.04032902 94.647725,11.990778 94.636766,11.995231 c -0.0071,6.6e-4 -1.359328,-0.577573 -3.004888,-1.289895 0,0 -2.991852,-1.295156 -2.991852,-1.295156 0,0 -2.98704,1.29492 -2.98704,1.29492 -1.642809,0.712207 -2.99353,1.294931 -3.00157,1.294931 -0.0083,0 -0.0145,-0.006 -0.0145,-0.01212 0,0 0,0 0,0 z"
       id="path303-3"
       style="fill:#161413;fill-rule:evenodd;stroke:none;stroke-width:0.0214308;stroke-linecap:butt;stroke-linejoin:miter;stroke-dasharray:none" /><rect
       style="fill:#000000;stroke-width:1.32667"
       id="rect481-5"
       width="2.8180001"
       height="8"
       x="87.206871"
       y="8" /></g><g
     id="g637"
     transform="translate(147.73285,25.999985)"><path
       d="m 118.26715,11.987785 c 0,-0.03181 5.99989,-11.99977998 6.00984,-11.9877759759346 C 124.31035,0.04032902 130.27809,11.990778 130.26713,11.995231 c -0.007,6.6e-4 -1.35933,-0.577573 -3.00489,-1.289895 0,0 -2.99185,-1.295156 -2.99185,-1.295156 0,0 -2.98704,1.29492 -2.98704,1.29492 -1.64281,0.712207 -2.99353,1.294931 -3.00157,1.294931 -0.008,0 -0.0145,-0.006 -0.0145,-0.01212 0,0 0,0 0,0 z"
       id="path303-2"
       style="fill:#161413;fill-rule:evenodd;stroke:none;stroke-width:0.0214308;stroke-linecap:butt;stroke-linejoin:miter;stroke-dasharray:none" /></g></svg>
