<?xml version="1.0" encoding="UTF-8" standalone="no"?>
<!-- Created with Inkscape (http://www.inkscape.org/) -->

<svg
   version="1.1"
   id="svg35457"
   width="426.37622"
   height="804.85657"
   viewBox="0 0 426.37622 804.85657"
   sodipodi:docname="a_17.svg"
   inkscape:version="1.2 (dc2aedaf03, 2022-05-15)"
   xmlns:inkscape="http://www.inkscape.org/namespaces/inkscape"
   xmlns:sodipodi="http://sodipodi.sourceforge.net/DTD/sodipodi-0.dtd"
   xmlns="http://www.w3.org/2000/svg"
   xmlns:svg="http://www.w3.org/2000/svg">
  <defs
     id="defs35461" />
  <sodipodi:namedview
     id="namedview35459"
     pagecolor="#000000"
     bordercolor="#666666"
     borderopacity="1.0"
     inkscape:showpageshadow="2"
     inkscape:pageopacity="0"
     inkscape:pagecheckerboard="true"
     inkscape:deskcolor="#d1d1d1"
     showgrid="false"
     inkscape:zoom="0.70936111"
     inkscape:cx="4.2291577"
     inkscape:cy="374.98532"
     inkscape:window-width="1920"
     inkscape:window-height="1011"
     inkscape:window-x="0"
     inkscape:window-y="32"
     inkscape:window-maximized="1"
     inkscape:current-layer="layer16" />
  <g
     inkscape:groupmode="layer"
     id="layer16"
     inkscape:label="Letters"
     style="display:inline;opacity:1"
     transform="translate(-288.3784,-32.729981)">
    <g
       id="g9048">
      <path
         d="m 386.54711,84.206942 c -0.35433,-0.640702 -0.64422,-2.212584 -0.64422,-3.493061 0,-1.280477 -0.27603,-2.595212 -0.61337,-2.92162 -0.33726,-0.326421 -1.04242,-3.023002 -1.56691,-5.992412 -0.52448,-2.969422 -1.20435,-6.076478 -1.51096,-6.904577 -0.30651,-0.828097 -1.63193,-4.821081 -2.94535,-8.873298 -1.35217,-4.171945 -2.72161,-7.371958 -3.15708,-7.377589 -0.42304,-0.0057 -1.54072,1.141879 -2.48373,2.549647 -0.94298,1.407766 -1.88314,2.695075 -2.08921,2.86069 -0.20608,0.165627 -1.44306,1.791711 -2.74887,3.613522 -1.30583,1.821809 -2.54673,3.447892 -2.75746,3.613507 -0.21081,0.165628 -0.86406,0.97867 -1.45177,1.806767 -0.58778,0.828098 -2.33382,3.131709 -3.88019,5.119147 -4.13303,5.311794 -7.22696,9.664136 -9.35667,13.162182 -1.22554,2.012967 -2.37034,3.166049 -3.26749,3.291073 -0.90719,0.126427 -1.38096,-0.121167 -1.38096,-0.721726 0,-0.502796 -0.70657,-3.164013 -1.57019,-5.913847 -0.86363,-2.749816 -1.87599,-6.083716 -2.24972,-7.408681 -0.37374,-1.324954 -1.34758,-3.985199 -2.16408,-5.91165 -0.81657,-1.926461 -1.48457,-3.916929 -1.48457,-4.423257 0,-0.506339 -0.98292,-3.808381 -2.18418,-7.337902 -1.20132,-3.529501 -3.03467,-8.918674 -4.07417,-11.975923 -1.48736,-4.374647 -1.74658,-5.817803 -1.21701,-6.775341 0.84121,-1.520999 1.904,-1.539748 3.83791,-0.0677 1.13666,0.865186 1.79471,2.389866 2.66437,6.173093 0.63512,2.763267 1.34552,5.295134 1.57865,5.626363 0.23309,0.33124 1.17406,2.90587 2.09096,5.721406 0.91695,2.815523 2.6458,8.051707 3.84194,11.635948 1.19616,3.58424 2.17486,6.778191 2.17486,7.097659 0,0.319469 0.43099,1.21742 0.95785,1.995461 l 0.95783,1.414605 1.84289,-1.783253 c 1.01355,-0.980789 1.84286,-1.986171 1.84286,-2.234201 0,-0.248019 0.70019,-1.087446 1.55595,-1.865405 0.85578,-0.777961 1.55595,-1.65981 1.55595,-1.959674 0,-0.299864 2.01278,-3.166014 4.4728,-6.36923 8.61848,-11.222033 8.2707,-10.755219 11.34626,-15.22851 3.78314,-5.502439 7.28534,-7.379983 7.72251,-4.140044 0.11131,0.82471 0.63239,2.719031 1.15799,4.209612 0.52567,1.490569 1.50424,4.742737 2.1746,7.227032 0.67043,2.484291 1.46682,5.329927 1.7698,6.323652 0.30292,0.993712 0.87203,3.026317 1.26456,4.516885 1.46609,5.566721 2.06924,7.297273 2.66822,7.655504 0.64067,0.383178 3.51283,-2.679451 3.51825,-3.751622 0,-0.337147 0.6624,-1.556709 1.46825,-2.710133 0.80587,-1.153412 1.84405,-3.181174 2.30716,-4.506139 0.46306,-1.324954 1.17327,-2.815523 1.57817,-3.312378 0.63311,-0.776732 1.21571,-2.037269 3.61885,-7.829291 0.20619,-0.496856 1.00307,-1.871252 1.77098,-3.054218 0.76784,-1.182954 1.94661,-3.012299 2.61948,-4.065197 0.91501,-1.431897 1.6739,-1.91437 3.01101,-1.91437 1.75269,0 1.77958,0.05003 1.37639,2.559574 -0.3853,2.398163 -1.47273,5.395725 -2.84023,7.82929 -2.1484,3.823287 -7.43839,14.770188 -7.43839,15.392642 0,0.305335 -0.62715,1.326699 -1.39368,2.26967 -0.76661,0.942984 -1.88277,3.058184 -2.48045,4.700452 -0.59766,1.642268 -1.65092,3.567133 -2.34058,4.277486 -0.68959,0.710352 -1.25386,1.623656 -1.25386,2.02955 0,1.041855 -2.25512,5.195152 -3.44711,6.34856 -1.30913,1.266826 -1.97064,1.219115 -2.75484,-0.198699 z"
         style="display:inline;fill:#ffffff;stroke:#ffffff;stroke-width:0.612234"
         id="path35576" />
      <path
         d="m 466.20434,94.914123 c -0.50972,-0.827413 -1.01757,-4.69787 -2.92972,-22.326261 -1.94664,-17.947175 -2.14814,-19.260792 -3.20445,-20.89641 -0.53435,-0.827496 -1.16428,-1.50454 -1.39971,-1.50454 -0.57098,0 -3.58115,5.093868 -4.74183,8.024224 -0.50983,1.28721 -1.62025,3.271521 -2.46753,4.409573 -0.8473,1.138037 -1.54055,2.260598 -1.54055,2.494582 0,0.233969 -1.04977,2.071791 -2.33283,4.084045 -1.28306,2.012241 -2.33283,3.933407 -2.33283,4.269246 0,0.335852 -0.55415,1.328262 -1.2314,2.205363 -0.67727,0.877088 -2.37383,3.762163 -3.77013,6.411273 -3.78244,7.176195 -5.71165,7.138394 -6.93119,-0.135761 -0.36991,-2.206661 -1.15839,-6.419382 -1.7522,-9.361595 -1.16975,-5.796145 -1.94894,-10.740729 -2.84513,-18.054498 -0.31547,-2.574446 -0.92435,-5.338064 -1.35312,-6.141375 -0.4287,-0.803324 -0.7795,-2.488647 -0.7795,-3.745155 0,-1.256525 -0.33772,-3.25644 -0.75044,-4.44426 -0.58139,-1.6732 -0.55307,-2.529673 0.12577,-3.802267 1.16387,-2.181697 2.70529,-1.769551 4.07465,1.089468 1.02805,2.14633 1.52694,4.452181 3.18141,14.70319 0.32646,2.02277 1.08901,6.385937 1.69462,9.695929 0.60553,3.309992 1.31153,7.214685 1.5688,8.677109 0.4585,2.606208 0.4913,2.632734 1.65277,1.337363 1.84921,-2.062418 5.42831,-7.773221 6.43669,-10.270473 0.50242,-1.244146 1.55553,-3.049586 2.34036,-4.012118 0.78484,-0.96252 1.83646,-2.803227 2.33697,-4.090436 0.50057,-1.287223 1.48454,-3.092676 2.18667,-4.012119 0.70218,-0.919442 2.1566,-3.477157 3.23204,-5.683824 3.33002,-6.832568 4.38853,-8.650623 5.76109,-9.89482 1.22181,-1.10758 1.41056,-1.116955 2.40489,-0.119459 0.59347,0.595383 1.09209,2.189416 1.10802,3.542317 0.0161,1.352886 0.33105,3.813896 0.70008,5.468886 0.36912,1.655001 1.10436,6.319072 1.63391,10.364621 0.52944,4.045552 1.26419,9.369402 1.63276,11.830805 0.36842,2.461389 0.67455,6.072281 0.68014,8.024223 0.0128,4.304172 0.55044,5.435021 2.05953,4.327811 1.26441,-0.927872 7.26155,-10.447838 7.26155,-11.527374 0,-0.414045 0.84501,-1.926367 1.87787,-3.360711 1.7276,-2.399383 3.15023,-4.852482 8.0836,-13.937943 2.41232,-4.442866 4.53041,-6.008034 6.90469,-5.102382 0.98817,0.376876 1.79657,1.177835 1.79657,1.779927 0,0.602078 -1.85152,4.295655 -4.11451,8.207942 -2.26275,3.912271 -5.35919,9.370048 -6.88099,12.128375 -4.65746,8.442787 -5.76661,10.32347 -6.73506,11.420305 -0.51274,0.58063 -0.93217,1.402278 -0.93217,1.825904 0,0.423621 -1.01838,2.367462 -2.26322,4.319645 -1.24471,1.952184 -2.90732,4.92438 -3.69472,6.604882 -2.24721,4.79612 -4.65298,6.961179 -5.75222,5.176727 z"
         style="display:inline;fill:#ffffff;stroke:#ffffff;stroke-width:0.667604"
         id="path35605" />
      <path
         d="m 566.81374,112.69991 c -0.96872,-1.45396 -0.48283,-6.37445 0.75934,-7.69109 0.36316,-0.38477 1.05893,-2.64533 1.54634,-5.023448 0.81858,-3.992725 1.16706,-5.959883 2.63895,-14.894893 l 0.53026,-3.219325 -8.36328,0.446371 c -4.59971,0.24551 -12.34673,0.81389 -17.21518,1.263058 -4.86858,0.449172 -12.00097,1.079207 -15.8496,1.400074 l -6.99758,0.583381 -0.56004,-1.763994 c -0.30824,-0.970202 -0.44321,-3.873651 -0.30005,-6.452119 0.23435,-4.22401 0.49448,-4.855542 2.62752,-6.379489 1.30176,-0.930264 4.34986,-2.575582 6.77342,-3.656275 2.42324,-1.080681 6.92893,-3.149462 10.01226,-4.59728 3.08324,-1.447806 7.50315,-3.485357 9.82212,-4.527887 3.54712,-1.594777 7.74264,-3.713407 15.48859,-7.821217 0.71202,-0.37759 2.71908,-1.361444 4.46008,-2.186352 1.7407,-0.824903 3.60729,-1.953305 4.14795,-2.507546 0.81352,-0.834032 8.64125,-0.757795 8.64125,-0.757795 0.30213,1.256633 0.17565,2.941542 -0.27901,3.744281 -0.85311,1.502337 -1.57828,5.762004 -3.83153,22.504397 -0.71695,5.327378 -1.69383,10.442105 -2.17069,11.366049 -0.85398,1.654418 -3.04334,11.589332 -4.7168,21.404589 -1.34868,7.91007 -4.86666,12.21501 -7.16369,8.76659 z M 544.23591,79.084158 c 3.54032,-0.360789 10.96354,-1.074782 16.49606,-1.586665 13.62932,-1.261044 13.67995,-1.283569 13.61913,-6.058177 -0.027,-2.118084 0.29855,-4.897791 0.72345,-6.177168 0.42497,-1.279363 0.98169,-4.705016 1.23728,-7.612564 l 0.46484,-5.28647 -2.33502,0.512728 c -1.28394,0.281995 -3.1947,1.030589 -4.2457,1.663544 -2.46175,1.482383 -3.18257,1.830401 -6.09351,2.942303 -1.32285,0.505321 -3.00085,1.337125 -3.72864,1.848468 -1.27473,0.89552 -3.39761,1.918823 -14.40938,6.945658 -2.79673,1.276673 -5.8078,2.883541 -6.6913,3.570818 -0.88366,0.687279 -2.86455,1.709828 -4.40228,2.272323 -1.53774,0.562509 -3.60316,1.670199 -4.59022,2.46153 -1.71508,1.375222 -2.36269,4.009217 -1.21287,4.933268 0.71069,0.571028 7.13407,0.389108 15.16812,-0.429599 z"
         style="display:inline;fill:#ffffff;stroke:#ffffff;stroke-width:0.732788"
         id="path35633" />
      <path
         d="m 598.92816,98.692727 c -0.47759,-0.80839 1.22317,-4.190071 3.69469,-7.346309 1.08452,-1.384895 3.10284,-4.054088 4.48542,-5.931532 1.3826,-1.877443 3.23484,-4.296 4.1162,-5.374596 0.88138,-1.078595 1.38085,-2.336338 1.10993,-2.794971 -0.2709,-0.458658 -2.04245,-3.282754 -3.93669,-6.275803 -1.89424,-2.993037 -3.44401,-5.72326 -3.44401,-6.067156 0,-1.550368 1.89824,-3.222734 3.10721,-2.737323 1.21176,0.486534 5.42476,6.729032 6.43008,9.527673 0.69822,1.943465 2.47139,1.59847 3.86215,-0.751507 0.6727,-1.136631 1.57631,-2.404781 2.00789,-2.818106 0.43144,-0.413337 2.01667,-2.526917 3.52283,-4.696873 1.87174,-2.696843 3.23031,-3.937791 4.29295,-3.921458 1.57557,0.02421 4.06858,1.583884 4.06858,2.545385 0,0.749248 -3.85763,5.671101 -8.73263,11.141829 -3.96661,4.451141 -4.88407,6.133639 -3.65635,6.704575 0.6468,0.300722 4.48883,6.390539 4.48883,7.114793 0,0.279847 0.7559,1.555247 1.67976,2.834228 0.92399,1.278994 1.88544,3.424492 2.1366,4.767798 0.37816,2.021367 0.23598,2.442378 -0.82428,2.442378 -1.90606,0 -3.1383,-1.307232 -6.98547,-7.410549 -1.91775,-3.042488 -3.91697,-5.704543 -4.44294,-5.91566 -1.02593,-0.411965 -4.46367,3.328299 -8.12957,8.845108 -3.05156,4.592044 -7.8099,7.881119 -8.85118,6.118076 z"
         style="display:inline;fill:#ffffff;stroke:#ffffff;stroke-width:0.734662"
         id="path35674" />
      <path
         d="m 488.66291,514.25339 c -0.24393,-0.36356 0.71468,-1.29057 2.12998,-2.05997 1.41556,-0.76952 2.89947,-1.96043 3.2981,-2.64658 0.39864,-0.68616 1.11708,-1.24762 1.59639,-1.24762 0.47956,0 1.8412,-0.88057 3.02615,-1.9568 5.07293,-4.60752 6.55535,-5.80708 8.14017,-6.58686 1.63422,-0.80421 1.66589,-0.99224 1.21737,-7.2213 -0.70628,-9.80769 -1.81519,-16.24006 -2.93879,-17.04628 -0.98426,-0.70617 -9.86475,0.62857 -15.7518,2.36754 -1.18457,0.34991 -4.01164,0.9428 -6.28214,1.31761 -10.73751,1.77202 -12.62432,2.15371 -16.61047,3.35941 -5.05969,1.53028 -13.21237,1.76438 -13.78243,0.39559 -0.38381,-0.92175 1.38243,-16.78487 1.91515,-17.20013 0.16378,-0.12765 3.04396,-1.47456 6.40041,-2.99318 6.80184,-3.07743 10.4633,-4.9268 15.99614,-8.07987 2.06139,-1.17462 5.84782,-3.16469 8.41453,-4.42239 2.56682,-1.2577 5.52435,-2.84696 6.57256,-3.53164 1.0481,-0.68471 2.07496,-1.24492 2.28193,-1.24492 0.20685,0 2.25703,-1.02121 4.55592,-2.26939 2.29878,-1.24812 5.31046,-2.36443 6.69259,-2.48065 2.15047,-0.18079 2.49052,-0.0204 2.35808,1.11174 -0.0855,0.72768 0.15571,2.96023 0.53523,4.96131 0.37966,2.00107 1.0163,8.25231 1.41479,13.89166 0.3985,5.63933 1.05928,13.67673 1.46872,17.86075 1.61184,16.47592 1.9778,21.40353 1.64766,22.19572 -0.28653,0.68803 -11.78688,8.3098 -15.91703,10.5489 -0.67122,0.36381 -2.3846,1.33125 -3.8077,2.14986 -2.84392,1.63594 -3.90093,1.82722 -4.57151,0.82749 z m -15.43658,-36.99387 c 3.75137,-0.79658 11.82846,-2.51313 17.9491,-3.81459 6.12066,-1.30145 12.04815,-2.79581 13.1724,-3.32072 1.77937,-0.83074 1.98886,-1.22633 1.61752,-3.05407 -0.95787,-4.71327 -1.82361,-12.26454 -1.84448,-16.08593 -0.0264,-4.77576 -1.27994,-5.814 -4.29429,-3.55559 -1.00686,0.75427 -2.96129,1.83643 -4.34341,2.40485 -2.52258,1.03744 -9.37979,4.83124 -10.0515,5.56101 -0.19743,0.21449 -1.4897,0.80137 -2.87181,1.30414 -1.38214,0.50277 -3.48208,1.54285 -4.66678,2.31128 -1.18457,0.76842 -3.12301,1.82251 -4.30771,2.34241 -1.1847,0.51989 -3.12316,1.5852 -4.30773,2.36739 -1.1847,0.78219 -3.30072,1.79387 -4.70228,2.24829 -4.99564,1.61942 -5.88953,2.80871 -6.27542,8.34924 l -0.34842,5.00236 4.22707,-0.30596 c 2.3249,-0.16825 7.29648,-0.95754 11.04774,-1.75411 z"
         style="display:inline;fill:#ffffff;stroke:#ffffff;stroke-width:0.689157"
         id="path36342" />
      <path
         d="m 421.17508,502.0228 c -0.57103,-0.81603 -1.61742,-3.26429 -2.32527,-5.44034 -0.70785,-2.17619 -1.60267,-4.63831 -1.98837,-5.47145 -0.38579,-0.83313 -0.70139,-2.18328 -0.70139,-3.00046 0,-1.72805 -1.30241,-3.06838 -2.98175,-3.06838 -0.64683,0 -2.93562,1.03869 -5.08603,2.30813 -2.15049,1.26941 -4.20936,2.30797 -4.57534,2.30797 -0.36604,0 -1.3095,0.62386 -2.09679,1.38635 -1.67656,1.62386 -4.99697,3.22973 -6.67811,3.22973 -1.5816,0 -1.08869,-1.64756 3.47105,-11.60091 2.00914,-4.38571 3.65295,-8.44534 3.65295,-9.02126 0,-0.57606 0.99372,-2.92934 2.20835,-5.22945 2.50936,-4.75225 2.49648,-7.97721 -0.052,-12.93899 -0.80534,-1.5682 -1.66774,-3.79376 -1.91637,-4.94582 -0.24864,-1.15205 -0.71042,-2.39138 -1.02608,-2.75407 -0.96313,-1.10655 -1.56851,-7.85055 -0.79604,-8.86721 0.60164,-0.79174 0.97952,-0.67964 2.22295,0.65945 1.47317,1.58652 4.63203,9.76211 4.62736,11.97635 0,1.46497 2.88655,2.93119 3.35081,1.70021 0.17688,-0.46899 0.82032,-2.18808 1.42995,-3.8202 0.60959,-1.63213 1.63964,-3.85706 2.28899,-4.94432 0.64933,-1.08727 1.71558,-3.60963 2.36941,-5.60526 1.71817,-5.24375 2.80533,-6.89821 4.68958,-7.1363 2.3856,-0.30146 2.20266,2.2008 -0.66648,9.11316 -1.27955,3.08289 -2.84632,6.94059 -3.48165,8.57272 -0.63534,1.63212 -1.44873,3.24939 -1.8075,3.59394 -0.35879,0.34457 -0.65437,1.08648 -0.65694,1.64855 0,0.56221 -0.45117,1.77209 -0.9969,2.68874 -2.33045,3.91397 -2.00581,8.52993 0.98081,13.94844 0.8389,1.52202 1.5253,3.14199 1.5253,3.59987 0,0.45787 0.56213,1.10821 1.24917,1.44527 1.24522,0.61089 5.21468,-1.07562 11.0844,-4.70929 1.2852,-0.79559 2.87936,-1.74242 3.54267,-2.1042 3.26867,-1.78271 8.01955,-4.77121 9.69488,-6.09816 2.30179,-1.82339 4.21659,-1.89678 5.2517,-0.20129 0.89685,1.46882 -0.34862,2.44362 -9.38176,7.34248 -2.89644,1.57082 -5.43551,3.05053 -5.64239,3.28814 -0.20689,0.23773 -1.5026,0.93822 -2.8794,1.55671 -2.79563,1.25583 -9.26847,5.44659 -10.02117,6.48803 -0.45336,0.62721 0.15541,2.95565 1.59212,6.09003 0.33252,0.72532 0.97749,2.50591 1.43332,3.95667 0.45582,1.45075 1.37847,4.19226 2.05035,6.09228 0.67183,1.8999 1.0252,3.90298 0.78521,4.45123 -0.6406,1.46322 -2.55346,1.21439 -3.74406,-0.48709 z m -11.84313,-19.91645 c 2.39069,-1.32281 3.06651,-2.1018 3.06651,-3.53496 0,-1.01098 -0.30988,-2.12004 -0.68867,-2.4646 -0.3787,-0.34456 -0.80188,-1.36838 -0.94041,-2.27503 -0.1673,-1.09558 -0.72612,-1.6487 -1.66583,-1.6487 -1.0492,0 -1.69723,0.851 -2.51096,3.29724 -0.60325,1.81342 -1.52358,4.18743 -2.04516,5.27553 -1.08213,2.25742 -0.73531,3.87254 0.72614,3.38109 0.5455,-0.18357 2.37176,-1.09721 4.05838,-2.03057 z"
         style="display:inline;fill:#ffffff;stroke:#ffffff;stroke-width:0.704349"
         id="path36312" />
      <path
         d="m 358.5257,544.92896 c -0.44138,-0.73649 0.28863,-7.03902 0.85727,-7.4015 0.25211,-0.16064 0.45843,-0.86025 0.45843,-1.55472 0,-1.12948 0.72889,-3.40412 2.10471,-6.56784 0.26046,-0.59885 0.63482,-1.94645 0.83196,-2.99455 0.19713,-1.04798 1.13524,-4.35565 2.08472,-7.35008 0.94946,-2.99453 1.88947,-6.30211 2.08893,-7.3502 0.19939,-1.04808 0.91287,-3.86571 1.58542,-6.2613 0.67257,-2.3956 1.52393,-5.82567 1.89202,-7.62242 0.36803,-1.79674 0.86846,-3.49953 1.11212,-3.78401 0.52098,-0.60832 0.60128,-3.56618 0.0968,-3.56618 -0.19035,0 -1.08127,0.56628 -1.9798,1.25847 -0.89856,0.69212 -2.4652,1.59583 -3.4815,2.00828 -1.0163,0.41248 -2.583,1.3162 -3.48151,2.00829 -0.89851,0.69219 -1.82818,1.25848 -2.06592,1.25848 -0.23773,0 -2.62196,1.34751 -5.29833,2.99455 -2.6764,1.64693 -5.07524,2.99444 -5.33076,2.99444 -0.25559,0 -1.06794,0.55135 -1.80522,1.2251 -2.84332,2.59837 -4.88977,3.24544 -5.45551,1.72493 -0.53798,-1.4457 -0.35689,-5.96148 0.26475,-6.60247 0.3219,-0.33197 0.80388,-2.76981 1.07106,-5.41743 0.86479,-8.5687 1.40224,-13.46498 1.79841,-16.38349 0.21816,-1.60715 0.18247,-2.85163 -0.0814,-2.84297 -0.25828,0.0103 -1.62777,1.12506 -3.0434,2.48131 -1.41571,1.35618 -4.26664,3.84749 -6.3354,5.53604 -2.06883,1.68866 -3.88028,3.20586 -4.02546,3.37166 -0.14518,0.16578 -1.45186,1.26332 -2.90372,2.43917 -1.45186,1.17575 -3.6513,3.18218 -4.8876,4.45869 -1.23624,1.2765 -3.35458,3.25461 -4.70741,4.39574 -1.35277,1.14112 -3.11447,2.74859 -3.91494,3.57205 -1.6621,1.7099 -2.19759,1.82734 -3.11797,0.68364 -0.6772,-0.8415 -0.64938,-1.0829 0.75302,-6.5366 1.49757,-5.82382 1.9967,-7.60275 2.44398,-8.71132 0.24169,-0.59885 0.83195,-2.92642 1.31164,-5.1723 0.47974,-2.24589 1.22758,-5.06351 1.66187,-6.26132 0.43435,-1.19779 1.12981,-4.00873 1.54551,-6.24636 0.6518,-3.5084 1.67826,-7.37493 4.52284,-17.037 0.77134,-2.61985 1.72867,-3.49978 2.80522,-2.57839 1.27589,1.09202 0.93673,3.87309 -1.42743,11.70581 -0.5423,1.79674 -1.34795,5.10431 -1.79032,7.35019 -0.44241,2.24589 -1.25156,5.43104 -1.7981,7.07798 -0.54653,1.64703 -1.23407,4.21954 -1.52793,5.71686 -0.29381,1.49722 -0.78291,3.76351 -1.08684,5.03621 -1.16296,4.8696 -1.45878,6.70074 -1.1175,6.91826 0.19433,0.12386 1.38469,-0.61636 2.64523,-1.64508 1.26047,-1.02871 2.43817,-1.87032 2.61699,-1.87032 0.17887,0 1.80642,-1.4088 3.61681,-3.13065 1.8104,-1.72184 4.41884,-3.98811 5.79658,-5.03619 1.98804,-1.51238 10.43449,-9.14715 14.30425,-12.92962 0.38371,-0.37505 1.17692,-0.68189 1.76272,-0.68189 0.97559,0 1.04265,0.26306 0.79815,3.13065 -0.14676,1.72184 -0.41491,3.98812 -0.59583,5.03622 -0.50741,2.93972 -2.30915,16.13669 -2.81357,20.60796 -0.51037,4.52472 -0.14085,5.097 2.34702,3.6344 0.82471,-0.48479 2.68741,-1.5607 4.13927,-2.39085 6.37073,-3.64255 7.99791,-4.61036 9.23911,-5.49492 0.72594,-0.51735 2.67593,-1.61541 4.33331,-2.44 1.6574,-0.82461 3.29013,-1.84313 3.62827,-2.26341 0.33821,-0.42017 0.9518,-0.764 1.36354,-0.764 0.41176,0 1.45339,-0.53735 2.31474,-1.19411 2.23729,-1.70575 3.0145,-0.78347 2.2669,2.69018 -0.64857,3.01391 -2.9319,11.38696 -4.49163,16.47108 -0.59716,1.94644 -1.50395,5.27246 -2.01518,7.3911 -0.92517,3.83427 -1.88837,7.14021 -2.68482,9.21483 -0.22987,0.59895 -0.70492,2.4365 -1.05558,4.08343 -0.35072,1.64704 -1.09752,4.34206 -1.65961,5.98909 -0.56211,1.64692 -1.49696,4.9545 -2.07745,7.3502 -0.58045,2.39559 -1.39989,4.90688 -1.821,5.58064 -0.79958,1.2794 -2.03348,1.60768 -2.58489,0.68756 z m -3.43593,-71.66153 c 0,-0.57413 0.28709,-0.76135 0.8351,-0.54445 0.45926,0.18177 1.29079,0.33054 1.84782,0.33054 0.55699,0 1.01273,0.24492 1.01273,0.54445 0,0.29943 -0.83154,0.54444 -1.84783,0.54444 -1.34522,0 -1.84782,-0.23801 -1.84782,-0.87498 z"
         style="display:inline;fill:#ffffff;stroke:#ffffff;stroke-width:0.53614"
         id="path36284" />
      <path
         d="m 668.70946,379.66239 c -2.89931,-2.09862 -3.89106,-4.5576 -3.53168,-8.75734 0.42451,-4.96202 2.56093,-9.973 5.56783,-13.06003 1.3668,-1.40331 2.54989,-2.76283 2.62889,-3.02124 0.079,-0.25839 1.62286,-2.0688 3.43081,-4.02307 1.80796,-1.9543 5.58886,-6.10864 8.40183,-9.23195 2.81296,-3.12329 6.37401,-6.99406 7.91341,-8.60165 1.5394,-1.60762 2.89162,-3.2271 3.00513,-3.59878 0.25936,-0.84943 4.18419,-3.33495 4.91388,-3.11187 0.76311,0.2333 -0.61782,4.4384 -2.01154,6.1254 -0.63904,0.77347 -1.51836,1.86411 -1.95404,2.42365 -0.43591,0.55949 -1.69331,2.01713 -2.7944,3.23918 -1.10108,1.22206 -2.38012,2.77877 -2.84223,3.45938 -0.46232,0.68054 -3.22804,3.80253 -6.14615,6.93776 -2.91821,3.13518 -6.00256,6.4792 -6.85408,7.43118 -0.85151,0.952 -2.84106,3.10234 -4.42105,4.77861 -2.64721,2.80843 -2.96392,3.42556 -4.03471,7.85998 -1.11156,4.60322 -1.09652,4.90914 0.34691,7.04357 2.5438,3.76188 6.55243,4.17331 12.06003,1.23771 1.75729,-0.93678 3.61841,-2.61747 4.84535,-4.3757 1.09542,-1.57015 2.47224,-3.12287 3.05941,-3.45056 0.93524,-0.522 1.15352,-0.44042 1.76105,0.65836 0.64528,1.16691 0.41634,1.53789 -3.2919,5.33456 -4.48661,4.59359 -7.48744,6.31296 -11.9163,6.82783 -3.56187,0.41404 -5.23089,-0.0219 -8.13645,-2.12498 z"
         style="display:inline;fill:#ffffff;stroke:#ffffff;stroke-width:0.612234"
         id="path36256" />
      <path
         d="m 629.31015,416.6126 c -0.51953,-1.6619 -0.39496,-2.19917 0.99442,-4.28763 0.87353,-1.31323 2.15095,-4.10108 2.83878,-6.19522 0.68785,-2.09415 1.97051,-5.05078 2.8506,-6.57029 0.87996,-1.51951 1.65232,-3.27577 1.71617,-3.90278 0.13104,-1.28691 1.46439,-5.21325 3.32858,-9.80189 1.62965,-4.01125 1.75134,-9.15044 0.30669,-12.96073 -1.7156,-4.52512 -4.61702,-5.72282 -5.64795,-2.33154 -0.53178,1.74887 -2.26845,5.21731 -3.15316,6.29725 -0.84217,1.02786 -2.64823,0.65159 -3.73639,-0.77838 -0.88649,-1.16504 -0.86364,-1.44537 0.32946,-4.05269 0.70538,-1.54054 1.65173,-3.35796 2.10298,-4.03868 0.45128,-0.68073 0.68724,-1.70777 0.52456,-2.2823 -0.27477,-0.96976 -0.4253,-0.98076 -2.10075,-0.15341 -1.88471,0.93071 -3.76092,2.45091 -6.79668,5.50711 -2.08775,2.10176 -6.68112,4.28393 -8.60506,4.08801 -3.06411,-0.31202 -5.93792,-2.43262 -6.84933,-5.05415 -1.50949,-4.34151 -0.70183,-7.99068 2.92242,-13.20406 1.72929,-2.48751 3.47435,-4.84482 3.87831,-5.23836 0.40375,-0.39361 1.08531,-2.91214 1.51451,-5.59678 0.93385,-5.84137 1.38607,-6.46695 3.82155,-5.28544 1.60917,0.78066 1.74037,1.10417 1.48091,3.65214 -0.39346,3.86391 -2.6117,8.93337 -6.75659,15.44109 l -1.53819,2.41494 1.20616,1.52515 c 1.54162,1.94935 1.43559,2.84962 -0.34257,2.91206 -1.91616,0.0673 -1.93541,1.56598 -0.0369,2.86215 1.24992,0.85337 1.8824,0.95449 3.23183,0.51664 0.92263,-0.29944 1.73777,-1.02084 1.81119,-1.60317 0.31633,-2.5152 9.62747,-8.26445 12.85175,-7.93612 1.42379,0.14499 3.83962,-2.34621 4.4564,-4.59533 0.68613,-2.50204 1.82524,-3.41026 3.69372,-2.94501 2.31737,0.57705 2.57814,2.10153 0.83667,4.89009 -2.20443,3.52951 -2.62878,5.71914 -1.13811,5.87094 1.21698,0.12392 5.01948,3.86834 6.52825,6.42857 1.15985,1.96802 1.23916,2.91714 0.77351,9.27052 -0.37359,5.10028 -0.77998,7.39106 -1.45189,8.19848 -0.51326,0.61626 -1.28211,2.58323 -1.70836,4.37106 -2.00775,8.42006 -2.58624,10.50071 -3.51924,12.65703 -0.55202,1.27559 -1.25602,2.56597 -1.56464,2.8675 -0.30842,0.30155 -1.10326,2.23353 -1.76634,4.29331 -1.23331,3.83103 -3.89342,6.93501 -5.7789,6.74301 -0.5032,-0.0512 -1.18211,-0.94816 -1.5088,-1.99316 z"
         style="display:inline;fill:#ffffff;stroke:#ffffff;stroke-width:0.612234"
         id="path36228" />
      <path
         d="m 588.69073,414.53434 c -0.38008,-0.50535 -0.55096,-1.23382 -0.37978,-1.61888 0.17113,-0.38506 -0.16162,-1.88338 -0.73955,-3.3296 -0.57806,-1.44626 -0.99359,-2.75854 -0.9235,-2.91619 0.0701,-0.15768 -0.41825,-2.76258 -1.08538,-5.78872 -2.7943,-12.67779 -3.18148,-14.57369 -3.04087,-14.88995 0.0812,-0.18272 -0.0826,-1.68575 -0.36405,-3.34011 -0.5076,-2.98459 -2.46439,-4.80473 -4.19008,-3.89754 -0.88275,0.46412 -2.56937,0.73421 -7.25419,1.16175 -7.12403,0.65012 -4.29556,-3.15265 2.94456,-3.95827 5.03006,-0.55979 6.23712,-1.15204 5.76241,-2.82762 -0.31477,-1.11102 -0.75044,-3.58308 -1.35743,-7.70209 -0.18342,-1.24387 -0.86342,-2.96629 -1.51131,-3.82761 -1.29763,-1.72537 -3.0412,-1.88618 -7.48695,-0.69023 -1.22715,0.33019 -3.02982,0.68409 -4.00603,0.78643 -0.97576,0.10245 -2.90925,0.38037 -4.2965,0.61756 -1.3874,0.2372 -2.99957,0.14966 -3.58294,-0.19457 -1.70636,-1.00705 -0.32989,-2.72746 2.48263,-3.1028 1.42773,-0.19053 2.84058,-0.44763 3.13978,-0.57134 0.29916,-0.12367 1.57637,-0.30003 2.83822,-0.39186 3.68284,-0.26818 9.64711,-1.80183 10.00741,-2.57352 0.18984,-0.3885 -0.0526,-1.521 -0.52236,-2.51229 -0.46979,-0.99128 -0.92149,-2.88818 -1.00401,-4.21536 -0.25395,-4.09046 -1.41466,-6.60626 -3.27677,-7.10247 -1.76053,-0.46916 -11.7041,1.18149 -20.23354,3.35877 -5.08444,1.29773 -8.54346,0.99049 -8.34922,-0.74179 0.22788,-2.02808 4.11529,-3.12676 23.00126,-6.50082 10.07276,-1.79961 11.92184,-1.31008 13.07066,3.46016 0.30025,1.24748 0.73586,2.8527 0.96782,3.56712 0.7195,2.21646 1.31099,5.54735 1.0781,6.07118 -0.12222,0.27479 0.14683,1.30661 0.5977,2.29287 0.45089,0.98626 0.94433,3.16124 1.09641,4.83324 0.40454,4.44536 2.5181,13.25542 3.41428,14.23186 0.42545,0.46347 0.88184,2.13587 1.01456,3.71651 0.13257,1.58061 0.49168,4.00848 0.79819,5.39534 0.30651,1.38688 0.71528,3.89854 0.90819,5.58142 0.19308,1.68293 1.18606,6.19224 2.20664,10.02068 1.02046,3.82843 1.89669,7.93298 1.9468,9.12113 0.0501,1.18818 0.56664,3.26475 1.14776,4.61464 1.27717,2.96668 0.0588,5.46739 -2.46264,5.05449 -0.91569,-0.14989 -1.97616,-0.68616 -2.35624,-1.19152 z"
         style="display:inline;fill:#ffffff;stroke:#ffffff;stroke-width:0.686291"
         id="path36200" />
      <path
         d="m 487.75911,406.56013 c -0.33869,-0.70258 -0.57411,-1.97099 -0.52323,-2.81874 0.1473,-2.45405 -0.33117,-9.52054 -0.90427,-13.35629 l -0.52638,-3.52239 -3.2066,-0.57762 c -7.1195,-1.2825 -12.08554,-1.98862 -12.7554,-1.81388 -1.024,0.26724 -5.8496,-1.97114 -6.78317,-3.14643 -0.71967,-0.90596 -0.42804,-1.30211 3.08479,-4.19126 2.13367,-1.75493 4.76306,-4.11373 5.84299,-5.24179 1.07994,-1.12809 2.26531,-2.12976 2.63402,-2.22598 0.36874,-0.0962 1.64996,-1.22385 2.84697,-2.5059 1.19712,-1.28203 2.61513,-2.57795 3.15117,-2.87985 2.00822,-1.13093 2.9586,-2.55566 3.16236,-4.741 0.11426,-1.22423 0.0642,-2.55003 -0.11101,-2.94616 -0.64963,-1.46841 -0.96443,-14.49109 -0.39732,-16.43593 0.47517,-1.62952 0.8162,-1.9483 1.78255,-1.66652 0.67762,0.19757 1.08259,0.73392 0.93538,1.23875 -0.14278,0.48965 -0.0199,2.06415 0.27313,3.4989 0.29304,1.43472 0.59553,3.98182 0.67226,5.6602 0.21612,4.72498 0.8165,7.93637 1.48362,7.93525 0.76041,-10e-4 4.12857,-3.201 10.69153,-10.15674 2.80839,-2.97645 5.85178,-5.82949 6.76331,-6.34001 2.22358,-1.24564 3.99024,-0.66797 3.93171,1.28557 -0.0482,1.60913 -0.18524,1.75876 -9.08623,9.91489 -11.77323,10.78846 -12.3987,11.39047 -12.63148,12.15997 -0.11638,0.39905 0.0323,2.1362 0.33913,3.86292 0.30673,1.72666 0.58476,4.41762 0.61782,5.97991 0.0701,3.31253 0.79935,8.26174 1.2961,8.79703 0.18945,0.20413 3.49086,1.01271 7.33724,1.79428 7.20288,1.46586 9.6097,2.62642 9.09652,4.38633 -0.3453,1.18412 -2.2649,1.2881 -7.91962,0.42897 -7.45375,-1.13243 -8.07397,-1.16295 -8.29405,-0.40822 -0.17255,0.59163 0.347,4.79486 0.94895,7.67715 0.11494,0.55107 0.26049,3.04759 0.3232,5.54774 0.0888,3.54405 -0.10734,4.76554 -0.89047,5.5432 -1.22986,1.22108 -2.36877,0.95784 -3.18551,-0.73638 z m -7.57131,-25.20367 c 2.50989,0.2829 4.72293,0.43033 4.91766,0.32759 0.36716,-0.19358 0.36308,-0.90652 -0.0513,-8.37725 -0.2932,-5.28828 -1.28837,-6.00291 -4.4125,-3.16869 -3.68206,3.34032 -8.56839,8.7418 -8.40703,9.2933 0.21743,0.74286 2.61633,1.32349 7.95319,1.92505 z"
         style="display:inline;fill:#ffffff;stroke:#ffffff;stroke-width:0.612234"
         id="path36172" />
      <path
         d="m 424.70489,377.77721 c -0.53486,-1.57504 -1.17049,-3.47012 -1.41243,-4.21131 -0.24195,-0.74121 -1.57109,-4.30921 -2.95372,-7.92893 -1.38262,-3.61972 -2.51381,-6.8853 -2.51381,-7.25687 0,-0.37156 -0.61761,-1.87637 -1.37246,-3.34404 -0.75484,-1.46767 -1.37247,-3.11505 -1.37247,-3.66088 0,-2.73199 -3.1184,-7.79109 -4.80362,-7.79311 -0.37743,-4.5e-4 -2.10674,1.78095 -3.84292,3.95865 -11.32042,14.19939 -14.77986,18.413 -18.22279,22.19553 -2.13066,2.34086 -3.8739,4.69079 -3.8739,5.22204 0,1.34665 -0.89749,1.20841 -1.38433,-0.21324 -0.41827,-1.2214 -1.48924,-8.05945 -2.4537,-15.66611 -1.40206,-11.05869 -2.97292,-39.66258 -2.23129,-40.62943 0.22683,-0.29571 1.04944,-0.18136 1.82806,0.25406 1.28788,0.7202 1.44729,1.25542 1.76588,5.92812 0.95968,14.07561 3.30413,37.41033 3.87183,38.53783 0.53488,1.06225 1.67287,0.69918 3.17924,-1.01431 0.79317,-0.90221 2.24975,-2.3965 3.23681,-3.32063 2.29784,-2.15129 14.02301,-16.67536 16.65358,-20.62899 1.10416,-1.65953 2.23151,-3.74024 2.50523,-4.6238 l 0.49761,-1.60646 0.9509,1.59164 c 1.14157,1.91069 2.79346,6.14207 5.48783,14.05715 0.31539,0.92647 1.46173,3.90701 2.5474,6.62335 1.08568,2.71631 1.974,5.37596 1.974,5.9103 0,0.53433 0.59256,2.10205 1.3169,3.48383 0.72428,1.38179 1.63857,3.64942 2.03176,5.03915 0.39313,1.38974 0.89411,2.5268 1.11328,2.5268 0.44078,0 2.12591,-3.87674 2.12591,-4.8908 0,-0.35251 0.58729,-2.07609 1.30509,-3.83017 0.71785,-1.75414 1.85474,-5.13353 2.52643,-7.50981 2.64464,-9.35563 5.47905,-16.36348 6.73811,-16.6594 1.54556,-0.36329 1.70782,1.62386 0.41502,5.08164 -0.66098,1.76791 -1.39585,3.82082 -1.63301,4.56202 -0.23717,0.74119 -0.70897,2.19574 -1.04851,3.23232 -0.33956,1.03656 -0.61732,2.33127 -0.61732,2.87708 0,0.54583 -0.56833,2.12343 -1.26296,3.5058 -0.69463,1.38238 -1.60385,3.87789 -2.02066,5.54558 -0.41672,1.66768 -1.33067,4.33157 -2.03097,5.91976 -0.70029,1.58819 -1.27325,3.29123 -1.27325,3.78455 0,0.49333 -0.52705,2.45348 -1.17122,4.35588 -1.54885,4.57446 -3.15322,4.78316 -4.57553,0.59521 z"
         style="display:inline;fill:#ffffff;stroke:#ffffff;stroke-width:0.608206"
         id="path36144" />
      <path
         d="m 320.91949,373.85419 c -4.16575,-3.98787 -5.09116,-7.1932 -3.77737,-13.08343 1.36133,-6.10341 4.05423,-10.47245 13.96937,-22.66395 2.33625,-2.8727 5.13052,-6.41456 6.20943,-7.87078 1.07887,-1.45625 2.72254,-3.58872 3.6525,-4.7388 0.92995,-1.15009 2.84832,-3.91546 4.26304,-6.14526 2.65355,-4.18238 4.1373,-5.40612 5.49112,-4.5288 0.90811,0.58846 0.74869,1.68652 -0.58581,4.03647 -0.52536,0.92507 -1.51712,2.66729 -2.20395,3.87161 -1.58287,2.77567 -6.85282,10.11899 -10.73517,14.95883 -1.64483,2.05049 -3.0627,4.05161 -3.15088,4.44691 -0.0882,0.3953 -0.83349,1.30562 -1.65616,2.02296 -0.82274,0.71734 -3.35621,4.08254 -5.63,7.47824 -3.50031,5.22752 -4.28827,6.84908 -5.13977,10.57758 -1.16787,5.11337 -0.58391,7.09296 2.79936,9.49004 4.40408,3.12036 9.52535,2.72049 15.49907,-1.21021 4.3562,-2.86638 5.64813,-2.73368 3.38651,0.34789 -1.50839,2.0552 -7.48513,5.65149 -10.20672,6.14148 -2.98799,0.53798 -10.32024,-1.34603 -12.18457,-3.13078 z"
         style="display:inline;fill:#ffffff;stroke:#ffffff;stroke-width:0.612234"
         id="path36116" />
      <path
         d="m 655.05778,321.46327 c -0.6512,-0.88231 1.23287,-2.67644 3.82852,-3.64543 3.6614,-1.36688 7.65143,-1.69374 13.98146,-1.14527 10.32384,0.89451 12.01783,-0.48833 13.68862,-11.17504 0.64583,-4.18094 0.98519,-8.05933 0.73717,-8.62139 -0.4552,-1.03194 -14.79708,-3.24542 -36.42691,-5.622 l -7.95533,-0.87406 0.27252,-1.72706 c 0.14988,-0.94987 0.17007,-2.19504 0.0447,-2.76707 -0.14227,-0.64987 0.87763,-1.52863 2.71857,-2.34261 1.62047,-0.71643 7.89284,-4.75663 13.93846,-8.97825 27.62574,-19.29099 33.76546,-23.40585 34.69728,-23.25434 1.80022,0.29272 1.76767,5.36859 -0.12861,20.07252 -1.02779,7.96929 -1.65717,14.86286 -1.39908,15.3189 0.59904,1.05786 -0.80264,16.63913 -2.10285,23.37731 -0.54548,2.82624 -1.46275,5.71423 -2.03852,6.41767 -3.78258,4.62218 -4.65766,5.26909 -7.47137,5.52264 -1.60551,0.14469 -3.93422,0.39549 -5.17492,0.55735 -1.24056,0.16186 -4.48182,-0.0677 -7.20282,-0.51011 -2.72099,-0.44242 -6.36248,-0.55752 -8.09217,-0.25576 -3.3604,0.58613 -5.30996,0.47145 -5.91477,-0.348 z m 30.37694,-31.58363 c 2.9581,-0.49134 2.50033,1.23677 4.37395,-16.51335 0.61263,-5.80427 0.93408,-10.97377 0.71425,-11.48781 -0.30438,-0.71173 -0.92073,-0.7152 -2.58452,-0.0146 -2.55684,1.07659 -9.88707,6.41986 -10.02742,7.30938 -0.053,0.33588 -0.54165,0.53827 -1.08602,0.44976 -0.54436,-0.0885 -2.00782,0.70703 -3.25198,1.76788 -1.24413,1.06085 -3.06683,2.28566 -4.05057,2.72177 -0.98365,0.43614 -3.09168,2.01044 -4.68428,3.49848 -1.59287,1.48802 -4.33728,3.37981 -6.09874,4.20395 -1.81317,0.84834 -3.29072,2.05564 -3.40544,2.7827 -0.19108,1.211 0.58811,1.41057 13.65634,3.49782 8.86508,1.41596 14.79054,2.05874 16.44443,1.78402 z"
         style="display:inline;fill:#ffffff;stroke:#ffffff;stroke-width:0.704024"
         id="path36088" />
      <path
         d="m 601.41834,300.8844 c -0.21378,-2.28965 -0.684,-5.64571 -1.04464,-7.45786 -0.36089,-1.8122 -0.86598,-5.09127 -1.12253,-7.28681 -0.25657,-2.19555 -0.63158,-5.13838 -0.83347,-6.53962 -0.20191,-1.4012 -0.78106,-5.49319 -1.28695,-9.09326 -1.33108,-9.47257 -1.58949,-10.22335 -3.16544,-9.19566 -1.42668,0.93049 -6.8472,6.4358 -10.1492,10.30822 -1.17531,1.3785 -3.2111,3.52367 -4.52367,4.76707 -1.31244,1.24341 -4.2435,4.27392 -6.51325,6.73449 -2.26961,2.4606 -4.30954,4.61595 -4.53279,4.78971 -0.22328,0.17377 -1.3906,1.50325 -2.59381,2.95447 -3.6856,4.44491 -6.14085,6.16756 -8.44646,5.92606 l -2.11422,-0.22144 1.51271,-19.99563 c 0.83199,-10.99758 1.33325,-20.96621 1.11353,-22.15254 -0.66325,-3.58432 0.87573,-18.27709 2.02959,-19.38231 1.22791,-1.17546 1.569,-1.14104 3.16621,0.31914 1.5912,1.4552 1.46068,11.85047 -0.43852,34.92052 -0.89772,10.90512 -1.07614,16.19726 -0.54772,16.25261 0.43087,0.0451 2.06559,-0.99345 3.63237,-2.30802 2.97697,-2.49744 15.30553,-15.23012 19.18097,-19.80953 1.23526,-1.45968 4.01059,-4.38026 6.16756,-6.49009 2.15695,-2.10985 4.69127,-4.60618 5.63205,-5.54737 2.55109,-2.55229 3.66311,-1.39827 4.49077,4.66025 0.40181,2.94176 1.15317,7.1673 1.66976,9.39008 0.51658,2.22281 1.0021,5.3385 1.07879,6.92377 0.28465,5.88268 0.80678,9.52853 2.05686,14.36368 l 1.28285,4.9626 1.82026,-1.34145 c 1.77888,-1.31092 10.78386,-11.80041 10.87262,-12.66499 0.0246,-0.24002 1.70203,-2.11186 3.7273,-4.15963 2.02543,-2.04779 3.71971,-4.08311 3.76514,-4.52298 0.0454,-0.43984 0.66136,-1.17713 1.36864,-1.6384 0.70741,-0.4613 2.17949,-1.95151 3.27152,-3.3116 1.09189,-1.36011 2.87761,-2.9213 3.96792,-3.46938 1.76095,-0.88511 2.09194,-0.86502 2.96045,0.1797 0.86862,1.04474 -0.0518,2.39183 -8.23394,12.0523 -5.06658,5.98185 -9.75013,11.22705 -10.40776,11.65601 -0.65774,0.42896 -1.22858,1.09705 -1.26838,1.48465 -0.0399,0.38762 -1.32487,2.06853 -2.85577,3.7354 -1.53104,1.66685 -3.47225,4.08766 -4.31399,5.37957 -1.74867,2.68373 -8.442,9.15269 -9.36977,9.05551 -0.33967,-0.0356 -0.79248,-1.93804 -1.00624,-4.2277 z"
         style="display:inline;fill:#ffffff;stroke:#ffffff;stroke-width:0.721295"
         id="path36060" />
      <path
         d="m 517.21677,300.73094 c -0.71136,-0.82935 -0.37976,-3.61385 0.58066,-4.87563 0.25198,-0.33123 0.60745,-1.4153 0.78981,-2.409 0.18237,-0.99372 0.81629,-3.60393 1.40893,-5.80046 0.59253,-2.19653 0.90757,-4.6487 0.69993,-5.4493 -0.24946,-0.96186 -2.22955,-2.67141 -5.83788,-5.04009 -3.00325,-1.97147 -6.30294,-4.26903 -7.33265,-5.10569 -1.02981,-0.83666 -2.7125,-1.91494 -3.73937,-2.39619 -1.02698,-0.48127 -2.50932,-1.46517 -3.29401,-2.18646 -0.78492,-0.7213 -2.34004,-1.73072 -3.45603,-2.24315 -3.00696,-1.38071 -4.55249,-3.22887 -3.75178,-4.48612 0.79156,-1.24252 6.35153,-4.29757 7.85665,-4.31701 0.59906,-0.008 1.08918,-0.2654 1.08918,-0.57257 0,-0.30719 1.61035,-1.29116 3.57868,-2.18661 1.96822,-0.89544 4.30804,-2.12494 5.19928,-2.73222 0.89134,-0.60728 4.39224,-2.49883 7.77974,-4.20345 3.3876,-1.70463 7.06944,-3.76084 8.18216,-4.56938 1.11271,-0.80854 2.9331,-1.87409 4.04548,-2.36791 1.11228,-0.49382 2.92516,-1.44912 4.02817,-2.12288 2.53277,-1.54686 4.83902,-1.06873 4.25445,0.88199 -2.27107,7.57818 -6.57138,24.34723 -6.57138,25.62527 0,0.58769 -0.52748,2.67165 -1.17253,4.63097 -4.68311,14.2283 -6.98871,21.60022 -7.89488,25.2435 -1.42243,5.7196 -2.44429,7.52817 -4.25356,7.52817 -0.80507,0 -1.79012,-0.38062 -2.18905,-0.84578 z m 6.41647,-25.20164 c 1.26044,-2.67312 3.49218,-10.22508 3.49218,-11.81703 0,-0.71407 0.26875,-1.7689 0.59732,-2.34407 0.75255,-1.31803 1.92225,-6.23449 2.3263,-9.77843 0.16996,-1.49059 0.56181,-2.9676 0.87099,-3.28229 0.60896,-0.61981 0.78632,-3.94474 0.21056,-3.94474 -0.19336,0 -3.6241,1.85949 -7.62416,4.1322 -4.00006,2.27271 -8.32292,4.60722 -9.60655,5.18778 -1.28365,0.58054 -2.33393,1.30239 -2.33393,1.60409 0,0.30169 -0.77021,0.82954 -1.71157,1.17298 -0.94135,0.34345 -3.17101,1.59401 -4.95459,2.77904 -3.56484,2.3683 -3.63621,3.27192 -0.42923,5.42957 0.87828,0.59085 2.48385,1.78763 3.56812,2.65949 1.08428,0.87186 2.84278,2.09142 3.90822,2.71014 2.59027,1.50446 8.76499,6.06212 9.25729,6.83297 0.69875,1.09395 1.48552,0.65935 2.42905,-1.3417 z m -12.52016,-42.15767 c -1.1832,-1.47167 -2.65901,-4.87184 -2.65901,-6.12613 0,-0.73092 0.69896,-1.68406 1.64042,-2.23683 1.50479,-0.8835 1.83847,-0.88258 4.03286,0.0114 4.06825,1.65682 4.35695,5.11994 0.646,7.74961 -2.19099,1.55258 -2.81392,1.65507 -3.66027,0.60226 z"
         style="display:inline;fill:#ffffff;stroke:#ffffff;stroke-width:0.612234"
         id="path36032" />
      <path
         d="m 474.82804,315.46572 c -0.84361,-0.93304 -1.88695,-6.40344 -2.46291,-12.91227 -0.24004,-2.71377 -0.77707,-5.30863 -1.19336,-5.76636 -1.12918,-1.24154 -6.11851,-4.65374 -6.80475,-4.65374 -0.32837,0 -1.95085,-1.15157 -3.60561,-2.55903 -1.65471,-1.40748 -3.85917,-3.16071 -4.89878,-3.89608 -1.03961,-0.73537 -3.72696,-2.69983 -5.97195,-4.36543 -2.24498,-1.66559 -4.28609,-3.02836 -4.53567,-3.02836 -0.24965,0 -1.87679,-1.15158 -3.61595,-2.55904 -1.73914,-1.40748 -4.1782,-3.30417 -5.42007,-4.21488 -2.29649,-1.68409 -4.6309,-2.14252 -5.36588,-1.05372 -0.71767,1.06309 -2.2999,0.69572 -1.83017,-0.42494 0.61397,-1.46479 1.93173,-2.90958 6.59847,-7.23431 2.26083,-2.09516 4.11061,-3.96076 4.11061,-4.14578 0,-0.18504 3.62555,-3.66105 8.05678,-7.72452 9.35485,-8.57841 10.92945,-10.17461 13.37568,-13.55874 2.27286,-3.14439 4.22923,-3.15548 5.05293,-0.0288 0.72677,2.75866 2.19186,12.01103 3.09868,19.5691 0.39733,3.31169 1.03664,7.51152 1.42079,9.33294 0.38404,1.82143 0.96415,4.73423 1.28914,6.47287 0.32488,1.73864 0.88529,4.71916 1.24527,6.62339 0.35999,1.90423 0.93685,6.26148 1.28199,9.68282 0.34515,3.42133 0.93261,7.07924 1.3056,8.12869 0.37288,1.04947 1.1275,4.86574 1.67673,8.48061 0.54946,3.61485 1.12301,6.68616 1.27475,6.8251 0.15183,0.13895 -0.0253,1.04247 -0.39236,2.0078 -0.70396,1.84877 -2.48683,2.33315 -3.68996,1.00254 z m -4.75386,-26.79459 c -0.005,-1.24189 -0.45584,-4.83209 -0.99857,-7.97819 -0.54282,-3.14611 -1.72008,-11.00385 -2.61619,-17.46164 -2.07379,-14.94439 -2.86203,-19.37672 -3.64325,-20.48553 -0.50681,-0.71938 -1.28842,-0.24867 -4.07764,2.45574 -1.89792,1.84014 -7.07458,6.85282 -11.50369,11.13931 -4.42913,4.28652 -8.46908,8.34272 -8.97764,9.01381 -1.20461,1.58969 -0.49379,2.47808 4.20848,5.25968 1.98794,1.17592 4.93391,3.38278 6.54657,4.9041 1.61268,1.52131 3.26,2.76604 3.66074,2.76604 0.4008,0 2.51734,1.55799 4.70351,3.46222 4.28266,3.73029 11.4132,9.06365 12.21626,9.13723 0.27129,0.0248 0.48794,-0.9709 0.48142,-2.21277 z"
         style="display:inline;fill:#ffffff;stroke:#ffffff;stroke-width:0.629298"
         id="path36004" />
      <path
         d="m 405.33222,315.1815 c -0.99353,-0.93683 -0.47981,-4.84313 0.79592,-6.05228 0.36597,-0.34683 1.04836,-3.18973 1.51647,-6.31753 0.46811,-3.12779 1.56173,-8.20623 2.43015,-11.28541 1.53914,-5.45701 1.54285,-5.62078 0.14461,-6.47847 -2.18014,-1.33724 -11.43746,-5.67229 -12.11301,-5.67229 -0.32712,0 -2.03677,-0.8949 -3.79926,-1.98868 -1.76253,-1.09379 -4.14642,-2.30296 -5.29754,-2.68705 -1.16167,-0.3876 -2.25173,-1.30989 -2.44964,-2.0726 -0.1961,-0.75581 -0.54576,-6.82757 -0.77709,-13.49276 -0.44607,-12.85592 -0.20979,-13.85073 3.16852,-13.3448 1.25629,0.18814 1.42151,1.27598 1.81229,11.93268 0.25364,6.91801 0.78586,12.2361 1.29804,12.97057 0.47743,0.6847 3.12418,2.14112 5.88169,3.23648 2.75746,1.09537 5.11396,2.19879 5.23674,2.45205 0.27468,0.56689 4.27829,2.46095 9.64996,4.56531 4.61379,1.80747 5.41303,3.14279 3.74781,6.26184 -1.38916,2.60187 -2.63584,7.86575 -3.95071,16.68067 -1.40567,9.42376 -4.38523,14.03606 -7.29488,11.29227 z"
         style="display:inline;fill:#ffffff;stroke:#ffffff;stroke-width:0.68012"
         id="path35976" />
      <path
         d="m 347.78229,284.55489 c -0.35002,-1.04457 -0.99503,-2.83159 -1.4334,-3.97113 -0.43837,-1.13955 -1.18581,-3.47042 -1.66092,-5.17976 -0.47518,-1.70931 -2.0536,-6.06028 -3.50763,-9.66883 -1.45406,-3.60858 -3.3673,-8.38707 -4.25173,-10.61891 -1.35775,-3.42638 -1.73252,-3.91001 -2.40836,-3.10781 -1.08762,1.29104 -4.03269,8.53421 -5.01962,12.34544 -0.44262,1.7093 -1.25308,3.88479 -1.80097,4.83442 -0.54797,0.94961 -1.59318,3.80277 -2.32266,6.34027 -0.72958,2.53753 -1.92112,5.26568 -2.64792,6.06255 -1.43319,1.57147 -2.96666,1.33514 -3.48603,-0.53718 -0.17705,-0.63846 -1.00746,-3.33632 -1.84525,-5.99524 -0.83779,-2.65896 -2.47379,-8.09768 -3.63557,-12.0861 -1.16185,-3.98839 -2.44671,-8.18399 -2.8553,-9.32353 -0.40862,-1.13953 -1.23369,-3.88216 -1.83349,-6.09474 -0.93767,-3.45891 -0.9713,-4.11092 -0.23971,-4.65118 2.38558,-1.76174 4.69724,0.0299 4.69724,3.64052 0,0.89008 0.3674,2.23135 0.81654,2.98059 0.44908,0.74926 1.55541,4.23705 2.45848,7.75063 0.90312,3.51361 1.8671,6.38836 2.14218,6.38836 0.27516,0 0.50027,0.71099 0.50027,1.58 0,0.86902 0.74442,2.62074 1.6543,3.89272 l 1.65423,2.31268 0.87684,-1.64814 c 0.48222,-0.90648 1.37404,-3.35747 1.98183,-5.44663 0.60779,-2.08915 1.45889,-4.2801 1.89145,-4.86871 0.43252,-0.58864 1.19611,-2.4256 1.69691,-4.08214 1.76092,-5.82505 5.88576,-14.53065 6.88476,-14.53065 1.36549,0 2.12271,1.29715 2.6205,4.48911 0.23691,1.51938 0.92649,3.58747 1.53229,4.59573 0.60586,1.00822 1.10157,2.066 1.10157,2.35058 0,0.28453 0.64045,2.10128 1.42314,4.03719 0.78278,1.93586 2.1242,5.3845 2.981,7.66356 0.85678,2.27909 1.81407,4.68346 2.12727,5.34303 0.31326,0.65961 0.56957,1.78698 0.56957,2.50533 0,0.71831 0.38777,1.68164 0.86168,2.14073 0.94656,0.91683 2.09705,0.4246 2.09705,-0.8972 0,-0.46246 1.18994,-3.62966 2.64439,-7.03825 1.45447,-3.40857 2.65276,-6.6979 2.66288,-7.30965 0.0104,-0.61174 0.68417,-2.25714 1.49783,-3.65649 0.81364,-1.39936 1.50079,-2.91895 1.52707,-3.3769 0.0996,-1.74024 2.66191,-6.34926 3.65351,-6.57212 1.82719,-0.41069 1.73867,1.62998 -0.28233,6.5077 -1.08402,2.61628 -2.3441,6.15539 -2.8001,7.86473 -0.45601,1.70931 -1.13657,3.57401 -1.51238,4.14379 -1.16549,1.76717 -4.76335,11.65019 -6.47638,17.79036 -0.86674,3.10684 -2.21154,5.00052 -3.55114,5.00052 -0.19114,0 -0.63387,-0.85465 -0.98389,-1.89925 z"
         style="display:inline;fill:#ffffff;stroke:#ffffff;stroke-width:0.639281"
         id="path35948" />
      <path
         d="m 670.99841,235.03304 c -0.25715,-0.23246 -0.0641,-8.61876 0.42893,-18.63622 l 0.89648,-18.21357 -7.35846,-6.75129 c -9.00419,-8.26102 -8.96736,-8.05336 -3.11415,-17.63011 0.84835,-1.38806 1.57012,-3.00498 1.60396,-3.59312 0.043,-0.58781 0.93847,-2.22937 2.01058,-3.6471 1.07212,-1.41777 1.96596,-2.91752 1.9864,-3.33279 0.0586,-1.18972 2.89808,-2.85063 4.11989,-2.40986 1.38671,0.50024 1.30369,3.02327 -0.16974,5.16771 -0.61717,0.89803 -1.94672,3.50621 -2.95458,5.79595 -1.00799,2.28979 -2.67414,5.48472 -3.70265,7.09988 -1.02862,1.61516 -1.88665,3.27544 -1.90703,3.68946 -0.0203,0.41406 2.6205,3.25519 5.86878,6.31364 5.7299,5.39485 5.95018,5.53045 7.38163,4.5427 0.81145,-0.55999 2.12634,-2.2761 2.92203,-3.81359 0.79584,-1.5375 2.76612,-4.37894 4.37888,-6.31428 l 2.93213,-3.51886 0.78305,1.60014 c 0.67544,1.37968 0.45486,2.12094 -1.6006,5.37992 -3.34778,5.30814 -6.151,9.99013 -7.37458,12.31775 -0.81473,1.54951 -1.10972,5.60446 -1.33959,18.41478 -0.21908,12.19812 -0.52608,16.64029 -1.19279,17.25328 -0.9278,0.85307 -3.77504,1.0299 -4.59846,0.28559 z"
         style="display:inline;fill:#ffffff;stroke:#ffffff;stroke-width:0.667045"
         id="path35901" />
      <path
         d="m 628.7904,213.09839 c -0.81309,-0.62959 -1.22082,-2.04737 -1.22082,-4.24538 0,-1.81505 -0.33331,-5.11178 -0.74063,-7.32606 -0.40729,-2.21428 -1.12629,-6.46227 -1.59776,-9.43996 -0.47137,-2.97767 -1.35082,-7.4442 -1.95397,-9.92558 -0.60312,-2.48144 -1.48219,-8.02739 -1.9534,-12.32438 -0.47121,-4.29698 -0.99847,-7.92232 -1.17158,-8.05629 -0.61797,-0.47848 -2.80569,1.38062 -4.81405,4.09077 -11.22394,15.14669 -13.65265,17.54398 -15.96183,15.75604 -0.6072,-0.47009 -0.39735,-1.03521 0.74784,-2.0148 0.87567,-0.7488 2.50664,-2.8503 3.62462,-4.66999 1.11816,-1.8197 3.62003,-5.47413 5.55985,-8.12097 1.9398,-2.64683 4.13241,-5.75621 4.87249,-6.90974 2.26704,-3.53319 6.74597,-7.50198 7.86302,-6.9675 1.53072,0.73247 3.13123,6.54973 3.97901,14.46193 0.79897,7.45742 1.63819,12.32139 4.62079,26.78595 1.73937,8.43461 2.81861,17.37854 2.24254,18.58427 -0.71764,1.50194 -2.40096,1.63415 -4.09612,0.32169 z"
         style="display:inline;fill:#ffffff;stroke:#ffffff;stroke-width:0.683644"
         id="path35863" />
      <path
         d="m 550.95528,214.60232 c -0.52449,-0.82555 -0.11737,-2.30213 2.019,-7.32172 3.2957,-7.74355 3.62091,-9.37725 2.38055,-11.96078 -0.97183,-2.02463 -8.50857,-12.60515 -15.30354,-21.48367 -3.70746,-4.8443 -3.77202,-5.69565 -0.50966,-6.70953 0.77038,-0.23937 3.05885,-1.07519 5.08581,-1.85733 2.02684,-0.78214 3.96596,-1.37568 4.30909,-1.31899 0.34301,0.0567 3.0467,-0.90264 6.00781,-2.13191 2.96111,-1.22927 5.74461,-2.17539 6.1855,-2.10253 0.44078,0.0728 1.45542,-0.32195 2.255,-0.87726 0.79923,-0.55535 1.74502,-0.9615 2.10161,-0.90259 0.35658,0.059 2.23232,-0.58462 4.16838,-1.43008 1.93606,-0.84546 4.6974,-1.76557 6.13629,-2.04468 1.43899,-0.27907 3.22207,-1.05043 3.96255,-1.71408 1.29614,-1.16157 1.3881,-1.1583 2.46315,0.0873 1.07635,1.24696 0.96952,1.84804 -0.76484,4.30261 -1.41766,2.00626 -5.68374,11.50806 -6.06801,13.51425 -0.20575,1.07611 -0.9835,2.9161 -1.72777,4.08899 -2.52091,3.9719 -3.58606,6.12818 -4.67665,9.46766 -0.59828,1.83154 -1.83475,4.72062 -2.74769,6.42018 -3.18734,5.9332 -7.52198,16.31093 -8.15814,19.53147 -0.86395,4.38153 -5.37133,7.19335 -7.11881,4.44269 z m 10.41636,-23.75641 c 0.31835,-0.72074 0.90556,-2.24071 1.30491,-3.37772 1.07331,-3.05588 3.08524,-7.40219 5.37437,-11.61047 3.71208,-6.82435 6.88427,-15.11056 5.84991,-15.28148 -0.34691,-0.0573 -4.92995,1.36571 -10.18452,3.16228 -5.25468,1.79654 -10.8261,3.61779 -12.38105,4.0472 -3.04612,0.84121 -6.52549,2.6129 -6.67079,3.39665 -0.051,0.26577 0.59318,1.44019 1.42771,2.60922 0.8344,1.16901 2.05388,3.05783 2.70975,4.19733 2.83688,4.92843 9.67262,13.78437 10.78135,13.96757 0.71057,0.11742 1.44828,-0.34073 1.78836,-1.11058 z"
         style="display:inline;fill:#ffffff;stroke:#ffffff;stroke-width:0.649275"
         id="path35835" />
      <path
         d="m 501.82081,198.08978 c -0.24261,-0.23881 -0.44108,-1.13798 -0.44108,-1.9981 0,-0.86013 -0.3144,-1.75511 -0.69875,-1.98885 -0.38408,-0.23375 -0.69849,-0.98708 -0.69849,-1.67408 0,-0.68701 -0.78594,-2.99828 -1.74663,-5.13617 -0.96056,-2.13793 -1.74648,-4.33327 -1.74648,-4.87858 0,-0.54529 -0.80392,-2.77985 -1.78648,-4.96567 -0.98258,-2.1858 -2.04781,-4.59306 -2.36723,-5.34945 -0.3194,-0.7564 -1.40189,-3.27052 -2.40538,-5.58698 -1.00348,-2.31644 -1.8245,-4.51187 -1.8245,-4.8787 0,-0.36682 -0.597,-1.19869 -1.32669,-1.84859 -1.26148,-1.12372 -1.38131,-1.1046 -2.44509,0.39023 -0.61524,0.86455 -1.11868,1.97054 -1.11868,2.45782 0,0.48724 -0.58955,2.19763 -1.31005,3.80082 -3.32485,7.39792 -4.97757,11.71334 -4.97757,12.99653 0,0.76762 -0.58756,2.21702 -1.30558,3.22089 -0.71814,1.00386 -1.52135,2.59879 -1.78494,3.54428 -1.38908,4.98239 -4.14028,10.36885 -5.19404,10.1691 -1.19009,-0.2256 -4.31764,-8.32547 -5.78504,-14.98245 -0.45851,-2.08008 -1.36409,-4.86497 -2.01241,-6.18865 -0.64826,-1.32368 -1.57012,-4.41797 -2.04847,-6.87622 -1.01859,-5.23454 -2.48446,-9.94827 -3.86005,-12.41254 -0.53866,-0.96494 -1.1918,-3.33088 -1.45148,-5.25767 -0.41875,-3.10684 -0.31606,-3.55198 0.90702,-3.9341 2.06916,-0.64634 3.63807,0.22292 4.06954,2.25479 0.21196,0.99831 1.10466,3.8264 1.98367,6.28466 2.1826,6.10359 3.00006,8.84759 3.50238,11.75578 0.23487,1.3601 1.00008,3.68084 1.70039,5.15718 0.70032,1.47637 1.67315,4.54088 2.16191,6.81007 1.2641,5.86866 1.74489,6.52029 3.00425,4.07169 0.5682,-1.10485 1.58614,-3.71072 2.26207,-5.79075 0.67594,-2.08006 1.78745,-4.86496 2.47009,-6.18862 0.68256,-1.32368 2.26362,-5.03686 3.51339,-8.25148 4.40536,-11.33122 6.75361,-15.81534 8.28243,-15.81534 1.70025,0 2.16924,0.80804 4.58257,7.89627 1.02792,3.0193 2.13255,5.80416 2.45463,6.18861 0.32213,0.38448 1.26924,2.86503 2.1047,5.5124 0.83544,2.64732 2.27855,6.3117 3.20696,8.14303 0.92838,1.8313 1.68803,3.90171 1.68803,4.60086 0,0.69917 0.31428,1.46245 0.69862,1.69618 0.38421,0.23375 0.69862,1.00732 0.69862,1.71908 0,0.71173 0.32822,1.49368 0.7292,1.73765 0.90541,0.55074 2.76405,-0.89293 2.76405,-2.14689 0,-0.51063 0.74679,-2.5614 1.65991,-4.55726 0.91286,-1.99585 2.86284,-6.56841 4.33284,-10.16123 1.47012,-3.59283 3.18826,-7.46071 3.81803,-8.5953 0.6299,-1.13457 1.52749,-3.20391 1.99461,-4.59849 1.01363,-3.02599 3.30737,-6.05967 4.58147,-6.05967 2.04193,0 1.70492,3.12388 -0.96289,8.92576 -1.48151,3.22198 -2.89976,6.78642 -3.15143,7.92104 -0.25167,1.13455 -1.66151,4.53829 -3.13261,7.56382 -2.3512,4.83542 -5.656,12.74595 -8.47458,20.2849 -0.49465,1.3237 -1.21405,2.81037 -1.59841,3.30376 -0.97596,1.25305 -2.98831,2.23431 -3.51635,1.71463 z"
         style="display:inline;fill:#ffffff;stroke:#ffffff;stroke-width:0.693103"
         id="path35807" />
      <path
         d="m 425.14979,214.26763 c -1.7388,-1.48863 -3.10827,-4.92616 -2.50008,-6.27552 0.20002,-0.44379 -0.10988,-3.77467 -0.68869,-7.40197 -0.57877,-3.62727 -0.87698,-6.98409 -0.66267,-7.4596 0.21431,-0.47548 -0.0552,-2.09058 -0.59867,-3.58908 -0.5437,-1.49853 -0.96994,-3.90151 -0.94726,-5.33995 0.0226,-1.43847 -0.47567,-3.00472 -1.10734,-3.48056 -0.93044,-0.70094 -1.6293,-0.52817 -3.68242,0.91031 -3.38237,2.36988 -8.60795,4.06054 -10.01238,3.23942 -1.2458,-0.72836 -0.37511,-3.38068 1.19419,-3.63798 0.56402,-0.0924 1.6265,-0.63658 2.36112,-1.20915 0.73462,-0.57262 3.36774,-2.11815 5.85125,-3.43458 l 4.51539,-2.39351 -0.54128,-3.61385 c -0.29768,-1.98762 -0.76977,-3.93398 -1.04914,-4.32528 -0.79078,-1.10764 -4.92216,-0.35258 -7.20453,1.31674 -1.11206,0.81326 -4.3741,2.42924 -7.24916,3.59102 -3.87811,1.56708 -5.54619,1.92351 -6.46279,1.38078 -1.70903,-1.01192 -0.30833,-3.9323 2.017,-4.20568 0.97968,-0.11513 2.90949,-0.87063 4.2884,-1.67891 1.37895,-0.80825 5.10047,-2.8049 8.27005,-4.43698 5.27621,-2.71682 5.73864,-3.11332 5.47596,-4.69496 -1.44882,-8.72361 -2.15736,-11.21046 -3.18624,-11.18263 -1.16399,0.0316 -11.70475,5.53132 -18.74067,9.77823 -6.13464,3.70296 -10.21879,4.33317 -10.90287,1.68241 -0.39272,-1.52201 2.58878,-3.53298 9.25424,-6.24171 2.25084,-0.91473 4.28556,-2.08039 4.52156,-2.59036 0.23693,-0.50973 1.16607,-1.12899 2.06683,-1.37561 0.90083,-0.24663 3.69966,-1.52977 6.21959,-2.85141 11.99115,-6.28887 13.88018,-6.73972 14.56632,-3.47661 0.72143,3.43065 1.99767,11.64296 2.1474,13.81787 0.0853,1.2397 0.41871,2.74513 0.74085,3.34534 0.32209,0.60023 0.49597,1.85339 0.38634,2.78483 -0.10964,0.93142 -0.28482,2.4566 -0.38929,3.3893 -0.10442,0.93265 0.15337,2.49108 0.57291,3.46314 0.92575,2.14504 1.50809,6.52093 1.01375,7.6177 -0.19791,0.4391 0.0889,2.0353 0.6373,3.54708 0.5484,1.5118 0.87448,3.02087 0.72458,3.35344 -0.1499,0.33259 0.0879,3.03181 0.52853,5.9983 0.44058,2.96648 0.85637,5.97693 0.92399,6.68989 0.0677,0.71298 0.57908,3.49527 1.13653,6.18289 0.55744,2.6876 0.90448,5.12865 0.77112,5.42452 -0.13334,0.29586 0.24146,1.7636 0.83286,3.26159 1.16582,2.95258 0.0197,5.9393 -2.17862,5.67745 -0.7003,-0.0833 -2.01163,-0.78381 -2.91408,-1.55639 z"
         style="display:inline;fill:#ffffff;stroke:#ffffff;stroke-width:0.714755"
         id="path35779" />
      <path
         d="m 355.60948,204.51834 c -0.30053,-0.45369 -0.80329,-1.95701 -1.11724,-3.34066 -0.31393,-1.38368 -1.25886,-4.41466 -2.09976,-6.73557 -0.8409,-2.32091 -1.93724,-5.75192 -2.43638,-7.62453 -0.49905,-1.87258 -1.35142,-3.56367 -1.89412,-3.75797 -0.54263,-0.19431 -3.11868,0.27336 -5.72442,1.03925 -2.60575,0.7659 -6.77291,1.79854 -9.26034,2.29477 -2.48739,0.49621 -6.12248,1.6398 -8.0779,2.54126 -3.62076,1.66923 -5.55934,1.97483 -7.68941,1.21216 -1.78694,-0.63978 -1.47602,-1.47339 1.63431,-4.38191 4.26982,-3.99288 10.73951,-10.77779 10.75306,-11.27718 0.0109,-0.43074 0.84136,-1.36094 8.13768,-9.12458 4.94272,-5.25929 5.33745,-6.09657 4.4894,-9.52373 -0.39362,-1.59078 -0.91303,-3.36705 -1.15439,-3.94727 -1.19741,-2.87934 -2.09056,-8.49312 -1.50616,-9.46736 0.78142,-1.30289 3.26756,-1.42615 4.0948,-0.20301 0.32699,0.48348 0.95947,2.93628 1.40554,5.45058 1.21008,6.82178 2.0549,6.47542 10.29224,-4.21982 3.99779,-5.1907 8.47241,-8.0977 9.69312,-6.29722 1.37599,2.0296 0.64559,3.65756 -3.42938,7.64379 -2.28012,2.23045 -4.14728,4.34324 -4.14908,4.69507 0,0.35185 -1.86744,2.58938 -4.14567,4.97229 -3.64843,3.81602 -4.14229,4.6905 -4.14229,7.33474 0,1.65119 0.33693,3.97406 0.74869,5.16198 0.41187,1.18793 1.22359,3.58402 1.80399,5.32469 1.01252,3.03696 1.18444,3.1738 4.25308,3.3858 1.75882,0.12151 3.55888,-0.11584 3.99999,-0.52747 1.4044,-1.31037 4.87292,-0.89148 5.39791,0.65188 0.262,0.77018 0.26162,1.72443 -7.7e-4,2.12058 -0.64965,0.98088 -5.46545,2.80636 -7.43833,2.81959 -3.27122,0.022 -3.75349,0.89407 -2.76871,5.0069 1.11971,4.67623 2.19768,8.26339 3.03607,10.10334 0.35255,0.77361 1.02686,2.95976 1.49848,4.85806 0.68374,2.75226 0.65833,3.56937 -0.12549,4.03323 -1.42362,0.84251 -3.4465,0.73257 -4.07851,-0.22168 z m -12.16805,-24.95827 c 3.98967,-1.17594 3.98792,-1.17075 2.53036,-7.6236 -0.63744,-2.82222 -1.3523,-4.29188 -2.15838,-4.43742 -1.27831,-0.23079 -11.11307,11.34418 -11.11307,13.07947 0,1.1251 5.11335,0.64026 10.74109,-1.01845 z m -1.83731,-44.32406 c 0.54407,-0.20314 1.19416,-0.17816 1.44465,0.0556 0.25048,0.23372 -0.19468,0.39993 -0.98931,0.36942 -0.87806,-0.0339 -1.05669,-0.20042 -0.45534,-0.42492 z"
         style="display:inline;fill:#ffffff;stroke:#ffffff;stroke-width:0.728094"
         id="path35741" />
      <path
         d="m 672.14343,53.092469 c -0.27692,2.313232 -3.62362,9.086004 -6.28281,12.712854 -2.51366,3.428033 -1.49454,5.302208 2.22323,4.088384 4.6338,-1.512973 8.04677,-0.181637 10.54641,4.113759 1.83268,3.149763 -1.20956,7.619191 -5.60166,8.229659 -5.10067,0.708849 -7.28158,0.23042 -9.94278,-2.181162 -2.93537,-2.659929 -3.64058,-2.295663 -7.51452,3.882011 -3.90282,6.223633 -3.91724,7.500431 -0.083,7.390486 7.89312,-0.226305 24.37512,-1.304873 25.90249,-1.694946 2.07893,-0.531152 2.41193,-3.467643 1.75459,-15.463208 -0.26781,-4.877149 -0.42239,-11.474641 -0.34348,-14.6611 0.13437,-5.432105 0.28405,-5.778133 2.39489,-5.546558 1.58073,0.173419 2.36028,0.915342 2.61765,2.490706 0.20148,1.234036 0.7212,3.389983 1.15469,4.79095 0.43332,1.400933 0.61177,4.156263 0.39602,6.122873 -0.21576,1.966608 -0.0151,7.191392 0.44563,11.610604 2.44852,23.470819 1.7852,31.613479 -2.81345,34.533859 -2.19548,1.39413 -8.4777,1.93516 -18.38847,1.58368 -5.93433,-0.21045 -7.43194,-0.51151 -8.54132,-1.71677 -0.73985,-0.80388 -1.07108,-1.61763 -0.73593,-1.80832 0.56955,-0.32443 7.49267,-0.62464 16.40899,-0.71157 2.12905,-0.0207 5.10439,-0.46561 6.61203,-0.98859 2.60863,-0.90493 2.73893,-1.24206 2.69943,-6.98111 -0.0229,-3.316657 -0.61846,-6.553098 -1.32377,-7.192133 -1.0388,-0.941384 -3.38147,-1.099597 -12.34531,-0.833828 -6.08485,0.180425 -14.53252,0.723299 -18.77262,1.206422 -6.40886,0.730187 -7.92875,0.674364 -9.00892,-0.330907 -1.0633,-0.989729 -0.97873,-1.683173 0.46568,-3.820115 4.69457,-6.946284 7.42956,-11.398137 10.83754,-17.641183 2.04302,-3.742214 4.21729,-7.47003 4.83202,-8.284007 1.11151,-1.472076 6.66432,-12.614667 7.37547,-14.799835 m 8.07365,24.423631 c 0.26794,-2.442307 -0.007,-2.800181 -2.15777,-2.812709 -3.17055,-0.01847 -5.54676,3.416467 -3.72959,5.391154 2.09724,2.279035 5.51885,0.7805 5.88736,-2.578445 z"
         style="display:inline;fill:#ffffff;stroke:#ffffff;stroke-width:0.935809"
         id="path35713" />
      <path
         d="m 681.38427,597.52849 c -5.08035,-3.30504 -5.97796,-12.40492 -1.86443,-18.89878 0.4678,-0.73823 1.92911,-3.17152 3.24737,-5.4072 3.98403,-6.75654 5.6119,-9.4186 6.43321,-10.5196 0.43037,-0.5769 1.42997,-2.28584 2.22126,-3.79773 3.43896,-6.57068 14.97764,-24.71401 16.20029,-25.47329 0.92164,-0.57234 1.1295,-0.52167 1.70435,0.41549 0.54102,0.88186 0.4187,1.49444 -0.70362,3.52564 -0.74701,1.35223 -1.58635,2.6818 -1.86516,2.95475 -0.2788,0.27293 -1.49737,2.48644 -2.70816,4.91878 -1.2106,2.43248 -3.26958,5.98118 -4.5752,7.88629 -1.30572,1.90498 -2.46431,3.83433 -2.57474,4.28732 -0.23585,0.96746 -2.23986,4.28708 -3.35564,5.55831 -0.42794,0.48774 -0.93193,1.48063 -1.12011,2.20656 -0.18922,0.72553 -0.86618,1.73349 -1.5068,2.23908 -0.64054,0.50572 -1.29227,1.44276 -1.44825,2.08257 -0.29221,1.19865 -0.53761,1.62297 -4.96314,8.58299 -3.12961,4.92186 -4.00788,8.08163 -3.17192,11.41024 0.78902,3.14167 2.63404,4.73909 6.57248,5.69042 4.01194,0.9663 6.34277,0.17524 9.69257,-3.2994 1.42909,-1.48238 2.88012,-2.51433 3.22441,-2.29324 2.04876,1.31535 -4.36003,8.54865 -8.61827,9.72693 -2.63484,0.72907 -8.41331,-0.23021 -10.8205,-1.79613 z"
         style="display:inline;fill:#ffffff;stroke:#ffffff;stroke-width:0.612234"
         id="path36631" />
      <path
         d="m 634.12305,629.9472 c -0.84051,-1.33672 -0.0721,-5.93689 1.52447,-9.12663 9.45491,-18.88981 9.66734,-19.45342 8.00179,-21.22346 -0.6891,-0.73234 -2.78897,-1.95261 -4.66635,-2.71203 -1.8774,-0.75928 -4.08258,-1.84161 -4.90029,-2.40507 -2.07264,-1.42798 -9.47769,-5.23501 -10.29339,-5.29186 -0.37012,-0.0258 -1.37461,-0.70025 -2.23203,-1.49874 -0.8575,-0.79847 -2.78734,-1.90102 -4.2886,-2.44993 -4.10465,-1.50128 -6.90428,-3.28698 -7.63646,-4.87096 -0.61244,-1.32484 -0.47201,-1.40646 2.11126,-1.2264 1.52207,0.1061 3.52294,0.60903 4.44637,1.11769 0.92343,0.50863 2.62437,1.44537 3.77988,2.08184 1.15543,0.63631 2.6395,1.47703 3.29782,1.86815 0.65843,0.39099 2.42754,1.16522 3.93152,1.72051 1.50398,0.55514 3.27511,1.30177 3.93579,1.65903 4.23763,2.29201 4.83231,1.92148 3.58667,-2.23513 -0.88364,-2.94824 -1.16906,-4.80113 -2.15219,-13.96667 -0.18958,-1.76606 -0.6889,-4.98762 -1.10977,-7.15925 -1.05361,-5.43558 -0.86864,-8.81379 0.49407,-9.0225 1.11699,-0.17102 2.77209,3.22327 2.62195,5.37721 -0.0445,0.63783 0.46571,2.1839 1.13395,3.43601 0.66827,1.25193 1.31313,3.7362 1.43313,5.5206 0.12003,1.78426 0.41968,4.37352 0.66583,5.75392 0.24614,1.38041 0.87035,4.92947 1.3869,7.88672 0.51656,2.95725 1.21781,6.13523 1.55852,7.062 0.55455,1.50885 4.73725,4.70771 6.29777,4.81649 0.70433,0.0491 2.83666,-3.78055 2.94139,-5.28297 0.039,-0.55895 0.51395,-1.83121 1.056,-2.82725 1.65865,-3.049 2.52145,-5.08091 3.84161,-9.04784 2.12827,-6.39451 5.67481,-12.70583 7.08463,-12.60756 1.95997,0.13661 1.67758,2.21421 -1.15766,8.51923 -1.45304,3.2314 -2.67384,6.33181 -2.71275,6.88999 -0.0389,0.55803 -0.70681,2.2028 -1.48444,3.65485 -1.60597,2.99921 -3.68265,8.20586 -3.78592,9.49183 -0.033,0.474 -0.86791,2.48724 -1.84411,4.47464 -0.97632,1.98755 -2.46646,5.54123 -3.31137,7.89737 -0.84489,2.35602 -2.01478,5.30184 -2.59981,6.54646 -0.58489,1.24448 -1.48652,3.34875 -2.00355,4.67596 -0.51713,1.32705 -1.765,4.10824 -2.77308,6.18029 -1.00817,2.07203 -2.20739,4.53549 -2.66485,5.47459 -0.99939,2.05095 -2.52698,2.41983 -3.5147,0.84887 z"
         style="display:inline;fill:#ffffff;stroke:#ffffff;stroke-width:0.662776"
         id="path36603" />
      <path
         d="m 534.64528,617.59237 c -0.68308,-0.52258 -1.24206,-1.53088 -1.24206,-2.24065 0,-1.02687 9.48167,-16.05378 15.2255,-24.13006 3.61065,-5.0767 6.51298,-10.24813 6.51298,-11.60532 0,-0.85813 -3.26073,-4.39105 -7.24625,-7.85102 -3.98537,-3.45994 -7.24612,-6.69467 -7.24612,-7.1883 0,-0.49367 0.81517,-1.36228 1.81156,-1.93027 1.59703,-0.9103 2.62841,-0.41544 8.71144,4.18065 4.26112,3.21927 7.47025,5.04584 8.39107,4.77549 1.4394,-0.42248 7.25478,-8.95689 10.79459,-15.84145 1.93678,-3.76731 6.29648,-9.41203 7.87702,-10.19941 3.25896,-1.6232 4.99822,1.79883 2.30133,4.52684 -0.83585,0.84539 -1.53469,1.97584 -1.5528,2.51176 -0.0308,0.91417 -4.59978,8.70496 -11.51087,19.62823 -1.65792,2.62042 -3.01452,5.07508 -3.01452,5.45481 0,0.37962 1.74688,2.18475 3.88208,4.01119 8.49018,7.26324 9.84786,9.21869 8.42441,12.13522 -0.74651,1.52983 -1.21544,1.68167 -2.9734,0.96201 -1.14767,-0.46984 -2.89599,-1.82194 -3.88515,-3.00424 -2.20729,-2.63942 -3.19317,-3.42741 -6.42475,-5.13605 -2.34247,-1.23847 -2.66774,-1.24163 -4.39955,-0.0435 -1.02847,0.71203 -1.86975,1.63775 -1.86975,2.05709 0,1.88049 -18.67398,29.87663 -19.92821,29.87663 -0.7679,0 -1.95526,-0.42755 -2.63855,-0.95029 z"
         style="display:inline;fill:#ffffff;stroke:#ffffff;stroke-width:0.905408"
         id="path36575" />
      <path
         d="m 519.62952,620.79139 c -0.58567,-0.72565 -1.45567,-8.71786 -2.37547,-21.82191 -0.45089,-6.42531 -1.02117,-11.93173 -1.26708,-12.2365 -0.33165,-0.41075 -2.33355,-0.40694 -7.73745,0.0149 -4.00952,0.31289 -10.03505,0.77806 -13.38999,1.03371 -3.35483,0.25566 -9.368,0.7253 -13.36245,1.04357 -5.32065,0.42405 -7.45333,0.43289 -7.9754,0.0335 -0.75604,-0.57896 0.67143,-6.09281 2.39526,-9.25142 0.47304,-0.86679 1.76362,-4.41251 2.86807,-7.87924 2.5582,-8.0297 3.2313,-9.97085 3.94174,-11.36544 0.31624,-0.621 0.5752,-1.75538 0.5752,-2.52066 0,-0.7654 0.43349,-1.66689 0.96318,-2.00349 0.52969,-0.3366 0.96306,-0.99305 0.96306,-1.45887 0,-0.46573 0.57915,-1.24805 1.28687,-1.73845 1.0632,-0.73664 1.56513,-0.79441 2.8893,-0.3325 2.08866,0.72865 2.03178,1.20126 -0.64467,5.36083 -1.23605,1.92086 -2.24722,3.82499 -2.24722,4.23128 0,0.40628 -0.60309,1.80783 -1.33992,3.1145 -1.24752,2.21207 -1.77969,3.84798 -3.09206,9.50418 -0.28221,1.21672 -1.10726,3.42896 -1.8333,4.91603 -0.72614,1.48715 -1.51288,3.56692 -1.74833,4.62185 l -0.42832,1.91799 4.3814,-0.32655 c 2.40986,-0.17966 9.86355,-0.55886 16.56386,-0.8427 6.70033,-0.28386 12.47919,-0.69403 12.84175,-0.91146 1.27675,-0.76558 7.18462,-1.074 7.87941,-0.4114 0.76324,0.72781 2.69443,21.22743 2.90696,30.85627 0.14262,6.46245 0.11014,6.64069 -1.23764,6.78769 -0.76132,0.0828 -1.56086,-0.0678 -1.77676,-0.33539 z"
         style="display:inline;fill:#ffffff;stroke:#ffffff;stroke-width:0.561831"
         id="path36547" />
      <path
         d="m 421.72417,633.63841 c -1.79684,-1.34005 -0.6853,-2.8194 6.53713,-8.70024 3.90936,-3.18312 8.62631,-6.80295 10.48218,-8.04393 4.54944,-3.0423 4.99681,-3.91043 4.09762,-7.95076 -0.39218,-1.76219 -1.01543,-4.1446 -1.385,-5.29425 -0.75869,-2.35996 0.39746,-2.1578 -9.5855,-1.67522 -4.28095,0.2069 -10.82514,0.26504 -24.01858,0.2135 -2.58096,-0.0101 -5.59176,-0.11355 -6.69063,-0.22977 -1.95315,-0.20556 -1.987,-0.24612 -1.50933,-1.75917 0.26871,-0.85113 1.15715,-2.25411 1.97428,-3.11774 0.81712,-0.86361 1.51797,-1.86276 1.55743,-2.2202 0.0395,-0.35751 0.57246,-1.22265 1.18452,-1.92275 1.25642,-1.4371 5.52864,-7.27536 8.16367,-11.15626 0.96408,-1.41984 2.49016,-3.61742 3.39129,-4.8834 2.08571,-2.93022 6.7952,-9.88726 8.84953,-13.07288 2.21916,-3.44125 6.02056,-7.48495 6.94091,-7.38334 0.42512,0.0469 0.85749,0.50869 0.96081,1.02615 0.10333,0.5175 0.32176,1.42886 0.48536,2.02531 0.16358,0.59638 0.90931,3.39968 1.65721,6.22938 0.74785,2.8298 1.70566,6.22895 2.12846,7.55383 0.42285,1.32477 0.99388,3.51724 1.26898,4.8721 0.27507,1.35482 0.92154,3.69284 1.43656,5.19567 1.56018,4.5527 2.53659,7.86385 2.47727,8.40118 -0.0309,0.27998 0.31471,1.47313 0.76807,2.65144 0.45337,1.17838 1.08488,3.68053 1.40337,5.56035 0.31842,1.87992 0.9216,4.52051 1.34039,5.86815 1.05357,3.3902 1.56526,6.08139 1.41503,7.44223 -0.13291,1.20392 -6.30392,6.63416 -17.7595,15.62783 -1.33149,1.04523 -2.8522,2.60411 -3.37936,3.46402 -1.26717,2.06696 -2.59305,2.47153 -4.19217,1.27877 z m -2.335,-34.36836 c 2.43885,-0.002 7.245,0.0513 10.68033,0.11878 5.16317,0.10133 8.5412,-0.19061 9.65391,-0.83433 0.10132,-0.0584 -0.35841,-1.74125 -1.02171,-3.73914 -0.66322,-1.99798 -1.17894,-3.90893 -1.14599,-4.24657 0.0868,-0.88961 -0.69608,-3.86588 -2.13028,-8.09841 -0.68967,-2.03532 -1.21063,-4.10397 -1.15772,-4.59693 0.0544,-0.4928 -0.37181,-1.89436 -0.94394,-3.11425 -0.5722,-1.21986 -1.00411,-2.6124 -0.95979,-3.09457 0.1288,-1.40179 -1.84899,-7.37054 -2.56552,-7.74268 -0.73848,-0.38351 -1.94588,0.93264 -4.76122,5.19034 -1.0692,1.61709 -3.6642,5.40173 -5.76654,8.41032 -2.10241,3.00857 -3.83827,5.61273 -3.85752,5.78713 -0.0193,0.17439 -0.65985,1.00117 -1.42355,1.83744 -0.7637,0.83617 -1.79159,2.304 -2.28423,3.26173 -0.49263,0.95776 -1.47142,2.38761 -2.17509,3.17748 -0.70371,0.78987 -1.76684,2.25945 -2.36259,3.26581 -0.59576,1.00646 -1.32441,1.94552 -1.61924,2.08689 -0.29485,0.14139 -0.57696,0.62786 -0.627,1.08114 -0.0794,0.71928 0.55232,0.85131 4.9712,1.03895 2.78421,0.1181 7.05763,0.21307 9.49649,0.21087 z m 2.3767,-8.22342 c -2.74842,-1.42413 -1.68774,-5.57227 1.91112,-7.47435 2.21865,-1.17267 4.16472,-1.07454 5.70299,0.2874 0.963,0.85267 1.04316,1.30589 0.60438,3.41644 -0.29738,1.43025 -0.96726,2.83371 -1.62505,3.40456 -1.3224,1.14774 -4.72066,1.33628 -6.59344,0.36595 z m 5.98707,-2.1868 c 2.03961,-2.09244 0.42872,-5.25841 -2.06071,-4.05015 -0.6133,0.29765 -1.13249,0.69954 -1.15387,0.89319 -0.0214,0.19358 -0.20871,0.68334 -0.41633,1.08827 -0.35194,0.68651 1.22919,3.12423 2.08781,3.21901 0.20941,0.0231 0.9038,-0.49454 1.5431,-1.15032 z"
         style="display:inline;fill:#ffffff;stroke:#ffffff;stroke-width:0.52054"
         id="path36519" />
      <path
         d="m 366.7455,628.7681 c -1.15336,-0.87841 -1.12588,-1.8728 0.10182,-3.68487 0.54608,-0.80593 1.72852,-2.58323 2.62766,-3.94955 0.89918,-1.3663 2.40932,-3.63827 3.35587,-5.04866 0.94658,-1.41041 1.72106,-2.85539 1.72106,-3.21112 0,-0.35572 0.81536,-1.46096 1.81196,-2.45617 0.99655,-0.9952 1.81193,-2.43068 1.81193,-3.1899 0,-1.2546 -1.91915,-3.20776 -3.15176,-3.20776 -0.27557,0 -1.88058,-0.6659 -3.56684,-1.47965 -1.68626,-0.81374 -3.71819,-1.75087 -4.51543,-2.08236 -0.79725,-0.33162 -3.40646,-1.56804 -5.79821,-2.74788 -7.52628,-3.71236 -7.92811,-3.90165 -9.96568,-4.69441 -2.49197,-0.96951 -2.54683,-2.41595 -0.18119,-4.7783 0.99657,-0.99522 1.81193,-2.06867 1.81193,-2.38545 0,-0.31676 2.21292,-3.99757 4.91761,-8.17955 2.70474,-4.18208 5.35532,-8.47323 5.8901,-9.53593 1.85466,-3.6851 5.50462,-8.81987 6.4711,-9.1034 0.53426,-0.15682 1.26807,-0.14534 1.63078,0.025 0.88551,0.41685 0.84028,2.30312 -0.0654,2.72947 -0.39861,0.18765 -0.72478,0.82335 -0.72478,1.41271 0,0.58933 -0.29077,1.07157 -0.6462,1.07157 -0.35543,0 -0.87009,0.68316 -1.14377,1.51811 -0.2737,0.83496 -1.9398,3.77861 -3.70246,6.54141 -1.76271,2.76279 -3.21211,5.24708 -3.22096,5.5205 -0.007,0.2735 -0.65395,1.11839 -1.43347,1.87739 -0.7795,0.7591 -1.42455,1.72234 -1.43346,2.14055 -0.007,0.4181 -1.03375,2.33488 -2.2776,4.25928 -1.24381,1.92441 -2.09867,3.82206 -1.89966,4.21707 0.19896,0.395 1.29817,1.07911 2.44264,1.5203 1.14449,0.44129 3.38551,1.45971 4.98002,2.26312 1.5945,0.8034 4.52986,2.11746 6.52299,2.92024 5.60789,2.25862 7.85267,3.28841 10.09076,4.62933 1.13493,0.68002 2.63697,1.23635 3.33781,1.23635 0.70087,0 1.47428,0.3971 1.71873,0.88226 0.55069,1.09301 -1.30936,5.38853 -3.21705,7.42912 -0.78153,0.83601 -1.421,1.69956 -1.421,1.91897 0,0.2195 -1.15616,2.29268 -2.56919,4.6073 -7.06888,11.57839 -8.11016,12.69072 -10.31067,11.01453 z"
         style="display:inline;fill:#ffffff;stroke:#ffffff;stroke-width:0.632546"
         id="path36491" />
      <path
         d="m 320.39431,629.0753 c -1.13154,-0.67688 -0.6565,-2.70346 0.69265,-2.95487 0.59612,-0.11057 1.26137,0.2456 1.47828,0.79256 0.50928,1.28427 -1.0473,2.83465 -2.17093,2.16231 z m 1.46003,-6.08155 c -0.63787,-0.99862 0.24423,-3.73353 1.11363,-3.45318 0.96321,0.3107 0.99183,3.57992 0.0343,3.88891 -0.39652,0.12788 -0.91296,-0.0684 -1.14773,-0.43573 z m 1.58229,-6.8946 c -0.79721,-0.92945 -0.33559,-3.34125 0.63957,-3.34125 0.31921,0 0.58042,0.94849 0.58042,2.10782 0,2.35173 -0.13972,2.49307 -1.21999,1.23343 z m 1.21427,-6.66026 c -0.61057,-0.7119 -0.61057,-1.08162 0,-1.79348 0.93624,-1.09166 1.87286,-0.64317 1.87286,0.89673 0,1.53977 -0.93662,1.98837 -1.87286,0.89675 z m 0.29688,-7.58256 c -0.4955,-1.5106 0.48514,-2.65081 1.84528,-2.14578 1.34791,0.50059 1.2225,2.03648 -0.22753,2.78745 -0.98498,0.51004 -1.27812,0.39378 -1.61775,-0.64167 z m 0.64242,-5.23138 c -0.68464,-0.13871 -1.68833,-0.632 -2.2305,-1.0961 -0.54208,-0.46422 -2.5026,-1.27172 -4.35666,-1.79461 -1.85401,-0.5228 -4.77129,-1.59017 -6.48285,-2.37179 -4.15109,-1.89584 -19.97288,-6.91045 -21.80343,-6.91045 -1.60059,0 -2.5657,-1.81492 -1.72942,-3.25213 0.27758,-0.47709 5.35105,-5.63177 11.27432,-11.45491 10.85257,-10.66919 13.1921,-12.27757 13.1921,-9.06921 0,1.10667 -1.72922,3.2577 -6.37938,7.93552 -9.73219,9.78987 -9.80253,9.86943 -9.80253,11.06877 0,1.11488 3.77661,3.14396 9.58225,5.14806 5.28967,1.82609 12.2062,5.31563 12.53742,6.32543 0.19232,0.58639 0.89554,1.23376 1.5626,1.43869 0.66714,0.20481 1.21298,0.62526 1.21298,0.93424 0,0.82937 3.36033,0.68259 4.25807,-0.18612 0.61548,-0.59562 0.89224,-0.56497 1.35972,0.15055 1.41611,2.16744 0.37467,3.65446 -2.19469,3.13406 z m 0.93356,-8.43895 c 0,-1.11706 1.11208,-2.52942 1.99161,-2.52942 0.27386,0 0.49791,0.81298 0.49791,1.80672 0,1.40516 -0.27663,1.80671 -1.24475,1.80671 -0.78377,0 -1.24477,-0.40155 -1.24477,-1.08401 z m 1.72033,-5.67589 c -0.43399,-1.14087 0.13015,-2.27387 1.13224,-2.27387 1.12836,0 1.14119,1.45085 0.0212,2.35069 -0.65444,0.52554 -0.93098,0.50708 -1.15309,-0.0763 z m 1.11381,-5.83498 c -0.2337,-0.36599 -0.23807,-1.23525 -0.009,-1.93163 0.38194,-1.16459 0.49598,-1.1883 1.41835,-0.29576 0.91831,0.88865 0.91912,1.05163 0.009,1.93173 -0.68158,0.65947 -1.1267,0.75223 -1.41834,0.29566 z m -0.34462,-6.34046 c 0,-1.04959 1.02046,-1.74643 1.83995,-1.25634 0.82832,0.49544 0.0824,2.12412 -0.97296,2.12412 -0.47687,0 -0.86699,-0.39048 -0.86699,-0.86778 z m 0.99437,-5.59771 c -0.81961,-0.79314 -0.29892,-1.96604 0.87278,-1.96604 0.6846,0 1.24476,0.37759 1.24476,0.83894 0,0.9085 -1.51183,1.71317 -2.11754,1.1271 z m 0.0431,-5.98099 c -0.22815,-0.22088 -0.41488,-1.16937 -0.41488,-2.10795 0,-1.30487 0.29289,-1.70641 1.24477,-1.70641 1.00763,0 1.24478,0.40154 1.24478,2.10794 0,1.98384 -0.9665,2.77868 -2.07467,1.70642 z m -16.59679,-2.58857 c 0,-1.36414 2.18762,-2.78789 2.8031,-1.82425 0.21403,0.33507 0.21216,1.14885 -0.005,1.80841 -0.52117,1.58958 -2.79872,1.60236 -2.79872,0.0159 z m 5.44585,-2.88148 c -0.59904,-0.13164 -1.08918,-0.4902 -1.08918,-0.79677 0,-0.79075 4.45196,-5.08335 5.75703,-5.55098 1.8781,-0.6729 1.28254,1.76567 -0.77799,3.18544 -1.02693,0.70768 -1.86713,1.65867 -1.86713,2.11341 0,1.03431 -0.6218,1.35676 -2.02273,1.0489 z m 11.16395,-0.53999 c -0.23538,-0.22772 -0.42789,-1.04641 -0.42789,-1.81925 0,-1.01882 0.35365,-1.4053 1.2861,-1.4053 1.02823,0 1.24662,0.32278 1.08915,1.60974 -0.19703,1.61047 -1.14206,2.39415 -1.94736,1.61481 z m -0.68169,-6.74816 c -0.2034,-0.31845 -0.89811,-0.4454 -1.54375,-0.28198 -0.64565,0.16334 -1.37721,-0.0215 -1.6257,-0.41041 -0.57666,-0.9029 3.3409,-4.77288 4.85771,-4.79863 0.95363,-0.0159 1.09458,0.41202 0.93357,2.83611 -0.13858,2.08561 -0.46772,2.90633 -1.22084,3.04458 -0.56712,0.10372 -1.1976,-0.0706 -1.40099,-0.38967 z"
         style="display:inline;fill:#ffffff;stroke:#ffffff;stroke-width:0.612234"
         id="path36463" />
      <path
         d="m 682.70284,537.5108 c -0.8847,-0.97593 -0.82958,-1.40903 0.81256,-6.38341 0.96886,-2.93507 1.76161,-5.7694 1.76161,-6.29847 0,-0.52916 0.20695,-1.20868 0.45995,-1.51012 0.55897,-0.66607 1.31267,-3.03934 3.01388,-9.49 0.71112,-2.69709 1.51874,-5.42288 1.79449,-6.0575 0.6924,-1.59321 2.63547,-8.22356 3.1278,-10.6726 0.22324,-1.11053 0.59832,-2.27884 0.83361,-2.59609 0.23519,-0.31727 0.5704,-1.09613 0.74511,-1.73068 2.07517,-7.5448 4.03959,-14.03869 4.49114,-14.84734 1.53239,-2.74413 0.10389,-3.90053 -2.4712,-2.00012 -1.03481,0.76393 -2.32968,1.54637 -2.87753,1.73876 -0.54767,0.19235 -5.61883,3.05046 -11.26912,6.3514 -5.65007,3.30093 -11.09349,6.42095 -12.09644,6.93332 -1.00295,0.51247 -2.17319,1.26534 -2.60057,1.67301 -0.42738,0.40778 -1.4891,1.05573 -2.35932,1.44013 -1.44176,0.63683 -1.6112,0.583 -1.91042,-0.607 -0.18055,-0.71829 0.49738,-4.15097 1.5066,-7.62834 1.00922,-3.47747 2.05517,-7.49078 2.32423,-8.91857 0.26907,-1.42783 0.90523,-4.54314 1.41363,-6.92284 1.62737,-7.61987 1.61513,-7.49997 0.76988,-7.49606 -0.64,0.003 -6.19326,2.668 -15.23557,7.31166 -0.63566,0.32644 -2.84606,1.40605 -4.91214,2.39901 -2.06599,0.99309 -5.09071,2.57602 -6.72152,3.51777 -4.15996,2.40209 -4.8536,1.15497 -2.23106,-4.01112 0.7973,-1.5706 1.83363,-4.3279 2.30309,-6.12727 0.46957,-1.79938 1.3578,-4.33492 1.97392,-5.63449 0.61623,-1.29957 1.44822,-3.5311 1.849,-4.95892 0.40067,-1.42783 1.07052,-3.10812 1.48859,-3.73398 0.41808,-0.62588 0.76017,-1.60293 0.76017,-2.17123 0,-0.56828 0.24277,-1.48403 0.53956,-2.03501 0.2967,-0.55095 0.86518,-2.20622 1.26301,-3.6784 0.91344,-3.37877 3.60868,-6.84643 4.57745,-5.88919 0.51113,0.50509 0.51142,1.33551 0,3.46138 -0.36922,1.53829 -0.80913,3.44588 -0.97757,4.23912 -0.16843,0.79325 -0.91413,2.77264 -1.65741,4.39865 -0.74308,1.62602 -1.65114,4.09227 -2.01791,5.48056 -0.9974,3.77581 -3.57653,11.07811 -4.20004,11.89146 -1.32665,1.7307 1.02529,3.33355 2.42365,1.65161 0.36922,-0.44415 2.15631,-1.38495 3.97152,-2.09067 1.81512,-0.70572 7.4387,-3.32779 12.49662,-5.82681 5.05802,-2.49902 9.39319,-4.54369 9.63394,-4.54369 1.11826,0 1.07882,3.61571 -0.0849,7.8537 -0.68775,2.50232 -1.74097,6.88606 -2.34072,9.74177 -0.59974,2.8556 -1.47179,6.87503 -1.93801,8.93179 -0.47299,2.0869 -0.62807,3.95894 -0.3508,4.23581 0.27727,0.27674 1.73763,-0.21006 3.3042,-1.10147 1.54402,-0.87855 4.36765,-2.42547 6.27471,-3.43742 4.9416,-2.6224 9.19846,-5.04467 9.53532,-5.42592 0.15891,-0.17993 1.66854,-1.06304 3.35478,-1.96244 1.68615,-0.8995 4.92491,-2.77962 7.19724,-4.17817 4.33487,-2.66801 5.62924,-3.06892 5.62924,-1.74363 0,0.90397 -1.24987,5.31729 -2.95948,10.45041 -0.63393,1.90383 -1.5512,5.27865 -2.03825,7.49972 -0.48697,2.2211 -1.07942,4.29793 -1.31653,4.61521 -0.39288,0.52611 -1.37125,3.6849 -3.03727,9.80737 -0.34534,1.26916 -1.21243,4.12477 -1.92678,6.34585 -0.71435,2.22106 -1.60583,5.20658 -1.9809,6.63438 -0.3753,1.42781 -1.08802,3.76428 -1.58408,5.19208 -0.49606,1.42781 -1.48747,4.67294 -2.20314,7.21128 -1.84497,6.54269 -3.6703,11.0925 -4.59202,11.44558 -0.43506,0.16669 -1.21819,-0.16804 -1.74024,-0.74382 z"
         style="display:inline;fill:#ffffff;stroke:#ffffff;stroke-width:0.5774"
         id="path36435"
         sodipodi:nodetypes="cssscssscscsssssssscssssssssssscscsccssssscsssscsssssscsscscscc" />
      <path
         d="m 605.83264,505.20907 c -1.33083,-0.38784 -1.21696,-2.41575 0.18141,-3.23166 1.70043,-0.99199 2.82537,-0.2731 2.61929,1.67371 -0.17531,1.65729 -0.96065,2.09404 -2.8007,1.55795 z m -14.28789,-7.34916 c -3.80317,-1.46513 -4.66477,-2.40455 -6.24299,-6.80656 -1.16607,-3.25232 -1.44105,-5.03583 -1.44105,-9.344 0,-2.92845 0.26239,-6.27162 0.58314,-7.42945 0.32083,-1.15776 0.80489,-4.00318 1.0756,-6.32313 0.55419,-4.74831 1.064,-7.51108 2.66728,-14.4527 0.61129,-2.64677 0.91721,-5.18924 0.68008,-5.65125 -0.30438,-0.59299 -0.54443,-0.64001 -0.81659,-0.15991 -0.21209,0.37398 -0.80615,0.68759 -1.32029,0.69693 -0.51405,0.009 -2.05397,0.66892 -3.42207,1.46572 -1.36808,0.79682 -5.34791,2.98534 -8.84409,4.86337 -3.49616,1.87802 -7.35157,3.98355 -8.56766,4.67895 -3.41131,1.95074 -4.90063,2.74418 -5.80392,3.09208 -0.45609,0.17563 -1.82409,0.99131 -3.04016,1.81264 -1.21601,0.82131 -3.24714,2.02192 -4.51365,2.668 -3.60714,1.84028 -4.2902,3.6715 -5.92098,15.87307 -0.34124,2.55372 -0.86922,4.8935 -1.17323,5.19957 -0.78698,0.79233 -7.67241,1.26078 -8.76195,0.59607 -1.0399,-0.63439 -1.19528,-3.00951 -0.31454,-4.80375 0.55779,-1.13627 0.66257,-1.15052 1.60658,-0.2193 0.62406,0.61579 1.70054,0.92254 2.81832,0.80325 l 1.8085,-0.19305 0.97838,-6.02577 c 1.47876,-9.10669 2.27079,-11.93912 3.53448,-12.63855 0.61419,-0.34006 1.89636,-1.22838 2.84899,-1.97409 0.95272,-0.7457 2.00811,-1.35581 2.34529,-1.35581 0.56504,0 1.82553,-0.61344 3.91471,-1.9051 0.456,-0.28196 1.57524,-0.8947 2.48734,-1.36164 0.9121,-0.46694 3.02633,-1.5488 4.69843,-2.4041 1.67208,-0.85531 3.41324,-1.80548 3.86924,-2.11149 0.45609,-0.306 1.9485,-1.13244 3.31659,-1.83654 1.368,-0.70408 3.10925,-1.65703 3.86924,-2.11765 0.7601,-0.46062 2.75002,-1.5476 4.422,-2.41549 1.67219,-0.8679 5.34784,-2.90828 8.16838,-4.53422 2.84154,-1.63806 5.50475,-2.79862 5.97295,-2.60278 0.68084,0.28478 0.77624,1.0115 0.49141,3.74088 -0.19438,1.86311 -0.68009,4.47212 -1.07928,5.79779 -1.2013,3.98983 -1.81839,6.98403 -2.48385,12.05164 -0.34813,2.65134 -1.01068,6.85436 -1.47248,9.34001 -0.46161,2.48565 -0.86662,6.9598 -0.9001,9.94265 -0.0532,4.76613 0.12482,5.84456 1.47066,8.90074 1.62274,3.68471 3.70968,5.25989 6.96862,5.25989 1.62187,0 6.07948,-4.11602 6.07948,-5.61354 0,-0.43687 0.74625,-2.38494 1.65833,-4.32901 1.59451,-3.39895 1.65817,-3.45803 1.65817,-1.53607 0,5.52892 -3.0842,11.37963 -6.99225,13.2642 -2.93605,1.41588 -3.44052,1.42305 -6.88106,0.0969 z"
         style="display:inline;fill:#ffffff;stroke:#ffffff;stroke-width:0.577131"
         id="path36407" />
      <path
         d="m 689.06886,761.79583 c -2.95251,-2.12362 -4.13774,-4.57465 -4.21142,-8.70874 -0.0511,-2.87271 0.25313,-4.06715 2.03704,-7.99533 1.15339,-2.54 2.72803,-5.45376 3.49912,-6.47509 2.03566,-2.69655 12.53264,-11.77823 14.42698,-12.4818 0.88829,-0.32992 2.81801,-1.61217 4.28811,-2.84948 1.47009,-1.23736 3.02579,-2.18325 3.45683,-2.10211 1.81614,0.34179 0.87437,2.03248 -2.28877,4.10892 -1.85336,1.21645 -3.41826,2.44084 -3.47772,2.72056 -0.10553,0.49643 -9.39347,9.02078 -10.28737,9.44156 -1.79919,0.84695 -4.79989,5.87907 -6.43062,10.78409 -0.9987,3.00379 -1.07103,4.05141 -0.44554,6.45663 0.64793,2.49158 1.09091,3.03679 3.35015,4.12386 3.13731,1.50947 6.30641,1.50919 9.77563,-9e-4 1.80011,-0.78361 2.54281,-0.83534 3.05094,-0.21302 0.93026,1.13923 0.94981,1.11542 -2.72074,3.30643 -4.87472,2.90985 -9.87336,2.8687 -14.02262,-0.11558 z"
         style="display:inline;fill:#ffffff;stroke:#ffffff;stroke-width:0.612234"
         id="path37000" />
      <path
         d="m 628.53784,801.69398 c -1.01181,-1.2643 -0.97095,-1.40713 1.57782,-5.52081 1.43895,-2.32254 2.62969,-4.39343 2.64579,-4.60207 0.0161,-0.20842 0.81316,-1.75298 1.77154,-3.43235 0.95827,-1.67924 2.41266,-4.49647 3.23203,-6.26054 0.81926,-1.76394 2.32185,-4.54157 3.3392,-6.17237 1.01725,-1.63091 1.88514,-3.42471 1.92848,-3.98629 0.0433,-0.5616 0.65334,-1.69821 1.35564,-2.52582 1.508,-1.77733 3.03176,-4.4597 4.8169,-8.48016 0.71309,-1.60603 1.74713,-3.74183 2.29785,-4.7462 1.2152,-2.21636 1.75659,-8.1242 0.91385,-9.97069 -2.00742,-4.39832 -6.09178,-5.04299 -12.04658,-1.90115 -2.87034,1.51442 -4.14141,2.54665 -4.20862,3.41744 -0.16523,2.1409 -3.37242,4.38311 -5.98129,4.18176 -1.25954,-0.0972 -2.60056,-0.60093 -2.98023,-1.11948 -0.5715,-0.78063 -0.0201,-1.49069 3.20762,-4.13175 2.14361,-1.75388 4.38821,-3.69474 4.98761,-4.31298 3.12769,-3.22514 6.97654,-4.59591 11.84867,-4.21989 7.12973,0.55025 9.84472,3.9538 9.7556,12.22977 -0.0443,4.10451 -0.25731,4.89568 -2.28603,8.48743 -1.23039,2.17849 -2.26837,4.36691 -2.30666,4.86304 -0.0383,0.49625 -0.64005,1.57967 -1.33702,2.4077 -0.6971,0.8281 -1.9127,2.95082 -2.70133,4.71713 -0.78864,1.7664 -2.47761,4.88495 -3.75323,6.9302 -1.27573,2.04513 -2.35271,4.15017 -2.39343,4.67778 -0.0407,0.52761 -0.32293,1.19834 -0.62705,1.49048 -0.30423,0.29214 -1.4745,2.36278 -2.60072,4.60144 -5.88419,11.69672 -6.47976,12.78668 -7.52164,13.76549 -1.32426,1.24406 -1.6654,1.19909 -2.93477,-0.38711 z"
         style="display:inline;fill:#ffffff;stroke:#ffffff;stroke-width:0.612234"
         id="path36972" />
      <path
         d="m 554.64823,836.75197 c -0.86615,-0.48403 -0.46724,-4.28964 0.49232,-4.69707 0.36719,-0.15588 0.73952,-0.80453 0.82757,-1.44139 0.0881,-0.63686 0.39339,-1.12574 0.67851,-1.08632 0.28532,0.0394 1.49044,-1.23023 2.67814,-2.82157 1.1878,-1.59133 2.87282,-3.61559 3.74467,-4.49824 0.87182,-0.88254 2.06931,-2.42697 2.6609,-3.43191 0.59161,-1.00503 1.27533,-1.79967 1.51933,-1.76594 0.2441,0.0337 1.55122,-1.54326 2.90474,-3.50439 1.35363,-1.96121 2.78557,-3.70358 3.18198,-3.87186 0.39643,-0.16842 1.57651,-1.59904 2.62255,-3.17914 2.3448,-3.54234 6.35837,-8.6269 7.65223,-9.69432 0.53019,-0.43743 1.8869,-2.2062 3.01494,-3.93074 1.1282,-1.72441 2.51055,-3.41037 3.07212,-3.74635 0.56159,-0.33599 1.62161,-1.51616 2.3557,-2.62267 0.73386,-1.10642 2.30686,-3.17078 3.4955,-4.58756 3.39714,-4.04968 2.85495,-4.33117 -6.9012,-3.58317 -2.44498,0.18757 -7.00042,0.41678 -10.12326,0.50948 -8.7862,0.26079 -14.88766,0.76653 -15.31628,1.26957 -0.21461,0.25174 -1.06729,0.36409 -1.89499,0.24966 -1.23216,-0.17035 -1.46268,-0.50516 -1.27188,-1.84785 0.27744,-1.91913 5.57887,-12.22644 7.25157,-14.086 0.63205,-0.7025 1.24371,-1.96146 1.35934,-2.79782 0.11561,-0.83624 0.51982,-1.95269 0.89806,-2.48109 0.99944,-1.39602 2.25304,-3.52211 3.22701,-5.47346 0.46855,-0.93842 1.11363,-2.1488 1.43346,-2.68976 0.78339,-1.32474 -0.94502,-1.54644 -3.30312,-0.42335 -0.98195,0.4675 -3.10386,1.18527 -4.71557,1.59504 -1.61174,0.40986 -3.68364,1.08092 -4.60438,1.49142 -0.92061,0.4105 -2.99251,1.08156 -4.60423,1.49133 -1.61173,0.40987 -3.72784,1.12463 -4.70269,1.58863 -2.86644,1.36422 -7.72509,2.45655 -8.6698,1.94913 -1.13492,-0.60964 -0.71065,-3.64581 1.23851,-8.86345 0.83149,-2.22553 2.24558,-6.27062 3.14258,-8.98898 4.06039,-12.30657 5.0359,-14.95322 6.24589,-16.94454 0.83869,-1.38014 1.62454,-2.01396 2.24026,-1.80686 0.74321,0.2499 0.83371,1.09093 0.41819,3.88232 -0.67977,4.56712 -2.11298,9.82259 -3.67215,13.46457 -2.52096,5.88874 -4.93768,13.67011 -4.44208,14.30287 0.45793,0.58474 3.11704,0.0392 7.99563,-1.64043 10.81217,-3.72262 13.42216,-4.53973 14.17086,-4.43622 0.48206,0.0666 0.9137,-0.14729 0.95906,-0.47539 0.0454,-0.32808 0.40309,-0.55223 0.79492,-0.49806 0.39174,0.0542 1.67632,-0.42602 2.85418,-1.06732 2.74111,-1.49187 6.39704,-1.44724 6.48858,0.079 0.035,0.59004 -0.23281,1.03188 -0.59737,0.98148 -0.36389,-0.0503 -0.73349,0.37736 -0.82118,0.95042 -0.17257,1.12913 -2.76971,6.42089 -4.60167,9.37737 -0.62597,1.0102 -1.6236,2.86393 -2.21696,4.11944 -1.13447,2.40042 -2.87867,5.50988 -4.87162,8.68434 -0.65524,1.04366 -1.48906,2.95258 -1.85301,4.24235 l -0.6619,2.34471 3.388,0.0425 c 1.8633,0.0232 4.39177,-0.0603 5.61865,-0.18578 1.22686,-0.12551 4.35266,-0.23965 6.94632,-0.25386 2.59365,-0.0141 6.15559,-0.21386 7.91511,-0.44394 5.28251,-0.69054 14.21382,-0.54674 14.10276,0.2271 -0.0977,0.70686 -3.46861,5.35882 -5.20423,7.1906 -0.79447,0.83847 -2.09581,2.66563 -2.89186,4.06041 -0.79614,1.39465 -2.01216,3.00487 -2.70237,3.57828 -0.69018,0.57329 -1.87729,2.13503 -2.63796,3.47039 -0.7609,1.33543 -2.00431,2.91689 -2.76327,3.51451 -0.75909,0.59759 -1.9959,2.30481 -2.74856,3.79384 -0.75254,1.48894 -1.86254,3.00196 -2.4666,3.36212 -0.60387,0.36029 -1.67786,1.53244 -2.38656,2.60482 -0.70869,1.07239 -2.81694,3.86448 -4.68519,6.20464 -1.86803,2.3401 -3.93937,4.96629 -4.60287,5.83587 -2.13137,2.79314 -7.67905,9.53344 -10.25203,12.45583 -1.37399,1.5604 -2.5331,3.09059 -2.57592,3.40028 -0.0928,0.67164 -2.10024,2.21479 -2.68665,2.06537 -0.22647,-0.0578 -0.73976,-0.28832 -1.14076,-0.51243 z"
         style="display:inline;fill:#ffffff;stroke:#ffffff;stroke-width:0.612234"
         id="path36944" />
      <path
         d="m 491.18611,792.35033 c -2.82985,-1.35949 -3.74403,-2.29956 -5.35209,-5.50436 -1.13027,-2.25244 -1.2175,-3.21268 -0.67977,-7.47671 0.57106,-4.53041 0.87946,-5.30241 4.16365,-10.4307 1.95072,-3.04602 4.37812,-6.70971 5.39431,-8.1417 2.03032,-2.86136 2.48792,-4.48405 1.29436,-4.58978 -0.42627,-0.0379 -3.04606,0.0625 -5.82141,0.22294 -6.7465,0.38995 -8.86749,0.11722 -9.21693,-1.18479 -0.47321,-1.76337 1.29322,-2.43057 6.73266,-2.54286 2.86272,-0.0591 6.9913,-0.47701 9.17437,-0.92876 l 3.96935,-0.82133 4.00604,-5.88451 c 4.51954,-6.63837 6.58653,-10.48256 6.1351,-11.40973 -0.47341,-0.97239 -1.98934,-0.96401 -7.20195,0.0397 -5.5276,1.06448 -12.11887,1.45763 -17.03451,1.0162 -2.99115,-0.26857 -3.39408,-0.44834 -3.27631,-1.46469 0.096,-0.82851 0.76749,-1.23168 2.35695,-1.41547 1.22253,-0.1414 2.80647,-0.42896 3.52007,-0.63908 0.71352,-0.21024 3.5606,-0.44842 6.32685,-0.52946 4.86023,-0.14234 8.02434,-0.57038 12.09377,-1.63573 2.20081,-0.57614 8.44315,0.19548 9.23796,1.14149 0.33384,0.39758 0.17647,1.41494 -0.43027,2.78585 -2.03925,4.60326 -3.85121,7.94911 -5.01884,9.2674 -0.66963,0.75608 -1.88197,2.66182 -2.69407,4.23494 -0.812,1.57315 -1.99274,3.48253 -2.62373,4.2431 -1.20613,1.4537 -1.96593,2.59988 -6.43896,9.71232 -1.51485,2.40868 -3.95752,6.24673 -5.4281,8.52882 -1.47045,2.28211 -2.7231,4.57637 -2.78356,5.09817 -0.0605,0.52193 -0.38663,1.07365 -0.72474,1.22609 -1.08484,0.48928 -2.27296,6.59556 -1.67465,8.60713 0.51625,1.73565 4.29368,4.75768 6.22707,4.9817 2.92486,0.33891 11.29515,-4.7401 11.5586,-7.01371 0.0504,-0.43498 0.61704,-1.54869 1.25922,-2.47501 0.93271,-1.34562 1.43167,-1.57432 2.48118,-1.13694 2.95534,1.23152 2.89955,4.58361 -0.11323,6.80175 -0.89634,0.65982 -1.67446,1.58657 -1.72922,2.05913 -0.0548,0.47267 -0.91942,1.24344 -1.92146,1.71273 -1.00214,0.46937 -2.25292,1.30049 -2.77972,1.847 -1.14507,1.18792 -7.59304,3.20099 -9.44509,2.94875 -0.72095,-0.0984 -2.31507,-0.66088 -3.5423,-1.25032 z"
         style="display:inline;fill:#ffffff;stroke:#ffffff;stroke-width:0.612234"
         id="path36916" />
      <path
         d="m 649.49786,691.42291 c -0.10303,-0.75236 -0.54023,-3.55973 -0.97167,-6.23859 -0.80924,-5.02467 -1.13891,-8.0088 -1.81932,-16.46851 -0.218,-2.70923 -0.83055,-6.95178 -1.36131,-9.42795 -1.20587,-5.62465 -1.06564,-10.1305 0.32851,-10.55948 1.38092,-0.42491 1.94414,0.37829 2.49576,3.55934 0.26142,1.50789 0.92836,5.34635 1.482,8.5299 0.55354,3.18354 1.14236,7.83185 1.3086,10.32977 0.57283,8.61418 1.34834,13.04653 2.29176,13.10041 0.70369,0.0402 11.10668,-12.33969 15.53187,-18.48331 0.48439,-0.67259 1.77076,-2.36357 2.85863,-3.75779 1.08786,-1.39408 2.48729,-3.40968 3.10976,-4.47894 l 1.13204,-1.9441 1.86732,1.70646 c 1.027,0.93847 2.18681,2.35214 2.57713,3.14125 0.5801,1.17265 4.31337,6.75145 6.31447,9.43604 0.79958,1.07252 3.20778,4.8732 5.06287,7.98998 1.53987,2.587 3.81349,4.78928 4.34501,4.20832 0.44003,-0.48084 3.95302,-6.4681 6.27782,-10.69929 8.44935,-15.37796 10.14197,-17.78321 11.59355,-16.47448 1.04087,0.93824 0.83296,1.51212 -3.4056,9.40163 -1.81573,3.37999 -4.00546,7.46251 -4.86602,9.07222 -0.86044,1.60981 -2.6201,4.72678 -3.91025,6.9267 -1.29026,2.1999 -2.37189,4.4557 -2.40372,5.01302 -0.0902,1.57986 -3.54894,4.83209 -4.63104,4.35453 -0.51165,-0.2258 -1.73078,-1.87539 -2.70903,-3.66556 -1.72001,-3.14721 -2.39871,-4.19055 -5.17992,-7.9639 -0.71597,-0.97141 -1.29092,-1.95553 -1.27771,-2.18697 0.0132,-0.23134 -1.13455,-2.08154 -2.55042,-4.11144 -1.41575,-2.02989 -3.22358,-4.82215 -4.0171,-6.20496 -0.79364,-1.38293 -1.70597,-2.52936 -2.02748,-2.54772 -0.32161,-0.0184 -2.0435,1.94832 -3.82635,4.37033 -1.78295,2.42214 -4.19618,5.35851 -5.36281,6.52538 -1.16654,1.16687 -2.45852,2.76062 -2.87085,3.54166 -0.41234,0.78105 -2.07325,2.97313 -3.69108,4.87146 -1.61773,1.89831 -4.105,5.07683 -5.52721,7.06337 -2.14647,2.99831 -2.87425,3.59739 -4.28343,3.5256 -1.2722,-0.0612 -1.74449,-0.42931 -1.88478,-1.45438 z"
         style="display:inline;fill:#ffffff;stroke:#ffffff;stroke-width:0.612234"
         id="path36839" />
      <path
         d="m 599.4702,717.22225 c -0.76605,-0.73518 -2.20863,-1.54325 -3.20584,-1.79566 -1.36186,-0.34469 -1.81549,-0.81261 -1.8229,-1.87947 -0.008,-1.22949 0.22132,-1.36721 1.71353,-1.02334 2.26813,0.52273 5.90754,0.22541 7.20205,-0.58832 0.56828,-0.35717 2.34774,-0.95154 3.9545,-1.32084 2.94319,-0.67639 10.36011,-3.82808 13.14653,-5.58639 1.35767,-0.85659 1.45819,-1.1549 1.03858,-3.0777 -0.25556,-1.17094 -0.72144,-2.76246 -1.03539,-3.5367 -0.31381,-0.77421 -0.51041,-1.89621 -0.4369,-2.49323 0.0711,-0.59733 -0.39172,-3.4845 -1.03387,-6.41667 -0.64201,-2.93229 -1.23562,-5.95944 -1.31881,-6.72718 -0.22903,-2.11121 -2.10039,-2.4659 -8.76293,-1.66052 -7.00933,0.84715 -8.67794,0.99966 -15.59426,1.42489 -2.7889,0.17154 -6.23052,0.5184 -7.64822,0.77101 -1.4177,0.2526 -4.86134,0.61403 -7.6526,0.80319 -2.79138,0.18927 -7.47791,0.69658 -10.4147,1.12735 -4.77225,0.70012 -5.42541,0.67341 -6.1483,-0.25159 -0.72137,-0.92309 -0.68257,-1.2063 0.36498,-2.61911 0.64242,-0.87181 2.44839,-2.48827 4.01323,-3.59218 1.56484,-1.10404 2.8786,-2.24778 2.91955,-2.54162 0.041,-0.29392 0.93661,-1.13988 1.9902,-1.88006 1.0536,-0.74017 2.96304,-2.2941 4.24329,-3.45311 1.28016,-1.15911 3.60118,-3.16122 5.15768,-4.44937 9.49779,-7.85999 18.59013,-15.96911 18.68738,-16.66696 0.0378,-0.27113 0.66557,-0.74912 1.39519,-1.06194 0.72951,-0.31286 2.08005,-1.37953 3.00093,-2.3703 4.4222,-4.75741 7.36674,-7.2771 8.34527,-7.14074 1.30708,0.18215 3.10703,5.74081 5.05167,15.60181 0.74602,3.78279 1.53066,7.44934 1.74361,8.14783 0.21294,0.69861 0.60268,2.72599 0.86608,4.50539 0.2634,1.77927 0.77615,4.17662 1.13935,5.32735 0.36334,1.15064 1.15729,4.62413 1.7645,7.71865 0.60709,3.0946 1.46556,7.45555 1.9076,9.69105 0.44194,2.23534 1.25012,5.74405 1.79592,7.79688 0.54579,2.05291 0.99501,4.88572 0.99812,6.29514 0.005,2.36081 -0.27284,2.83401 -3.53451,6.01365 -4.84427,4.72217 -7.67347,6.085 -11.52045,5.5489 -2.47301,-0.34463 -3.63971,-0.11643 -6.35464,1.24263 -3.8242,1.91461 -4.0727,1.91956 -5.9498,0.11806 z m -22.24785,-36.44781 c 1.06218,-0.18134 3.91759,-0.37938 6.34536,-0.44027 2.42776,-0.0609 4.85244,-0.21146 5.388,-0.33464 1.91506,-0.44038 6.79603,-1.10749 9.28861,-1.26957 3.74265,-0.24334 11.7111,-1.13693 14.84207,-1.66448 3.02872,-0.51026 3.64449,-1.72285 2.50813,-4.93909 -0.33553,-0.94987 -0.75003,-3.11466 -0.92097,-4.81076 -0.17097,-1.69596 -0.94849,-5.36151 -1.72787,-8.14561 -0.77924,-2.7842 -1.6647,-6.64776 -1.96745,-8.58593 -0.30286,-1.93818 -0.92187,-3.72374 -1.37563,-3.96811 -0.51503,-0.27751 -1.63438,0.40481 -2.97901,1.81581 -1.1846,1.24309 -2.74065,2.72843 -3.45794,3.30087 -0.71729,0.57243 -2.57882,2.22843 -4.13666,3.68003 -1.55795,1.45159 -3.72053,3.33654 -4.8061,4.18849 -2.58848,2.0319 -11.0817,9.40555 -13.83897,12.01475 -1.19437,1.13009 -2.95957,2.63624 -3.92261,3.34691 -2.8194,2.08029 -5.01539,4.42445 -5.1675,5.51603 -0.14808,1.06256 1.07684,1.12372 5.92854,0.29557 z"
         style="display:inline;fill:#ffffff;stroke:#ffffff;stroke-width:0.612234"
         id="path36811" />
      <path
         d="m 510.67964,718.49609 c -1.40316,-1.84312 -1.20104,-2.62351 1.51917,-5.86381 1.26885,-1.51154 2.341,-2.97168 2.38257,-3.24468 0.0416,-0.2729 0.48713,-0.73491 0.99005,-1.02657 0.50304,-0.29163 2.47474,-2.69789 4.38153,-5.34716 1.90675,-2.64916 3.85172,-5.16936 4.32209,-5.60028 0.47037,-0.43103 1.37967,-1.66323 2.02062,-2.73834 0.64095,-1.07512 1.93673,-2.76644 2.87945,-3.75861 3.03981,-3.19924 2.92243,-8.80013 -0.19291,-9.21476 -0.56983,-0.0752 -2.64001,0.16457 -4.60059,0.53424 -1.96079,0.36966 -5.21256,0.94361 -7.22602,1.2756 -2.01369,0.33197 -4.656,0.94025 -5.87177,1.35187 -3.21115,1.08669 -6.5249,1.63922 -8.28807,1.38182 -2.17133,-0.31665 -7.7587,0.91157 -8.8111,1.93729 -1.09808,1.07019 -4.18178,0.70168 -4.00212,-0.47827 0.0706,-0.46388 0.47148,-0.89917 0.89087,-0.9672 0.52991,-0.086 0.47224,-1.02078 -0.18969,-3.0676 -0.87726,-2.71257 -0.84688,-3.30938 0.38544,-7.59535 0.73556,-2.5584 2.21768,-5.99114 3.2938,-7.62843 1.07606,-1.63717 2.44266,-3.79362 3.037,-4.79201 0.59436,-0.99851 1.28612,-1.78413 1.53716,-1.7459 0.25115,0.0382 1.50401,-1.4384 2.78409,-3.2813 3.55138,-5.1132 3.80836,-5.41426 4.79569,-5.6189 1.58109,-0.32786 1.38608,0.21105 -1.47632,4.07104 -1.53024,2.06468 -2.85321,4.21971 -2.9399,4.78906 -0.0867,0.56935 -0.45974,1.15862 -0.82893,1.30945 -0.36931,0.15083 -0.74924,0.78608 -0.84451,1.41177 -0.0953,0.6257 -0.8653,1.99852 -1.71106,3.05086 -0.84576,1.05234 -2.10541,3.65706 -2.79928,5.78822 -0.69364,2.13119 -1.44905,4.08904 -1.67847,4.35086 -0.22928,0.26183 -0.23468,1.72204 -0.0125,3.24469 0.4823,3.30182 1.65001,3.72542 6.01975,2.18359 1.56805,-0.55339 4.01023,-1.17671 5.42704,-1.38537 1.4167,-0.20854 2.88442,-0.54443 3.26143,-0.74665 1.54572,-0.82865 14.93003,-2.63337 18.21451,-2.45597 4.38149,0.23665 6.45944,1.35486 7.38507,3.97412 0.71224,2.01529 0.66547,3.37411 -0.29005,8.44894 -0.27606,1.46567 -0.54061,3.55061 -0.59617,4.63196 -0.12185,2.56481 -0.7851,3.2435 -2.92613,2.99348 -1.41511,-0.1659 -2.12351,0.26866 -3.66565,2.24554 -1.0515,1.34771 -3.06128,3.92009 -4.46652,5.71651 -2.61699,3.3455 -3.94089,5.18529 -6.97868,9.69797 -2.28517,3.39451 -3.73244,4.00596 -5.13168,2.16817 z"
         style="display:inline;fill:#ffffff;stroke:#ffffff;stroke-width:0.612234"
         id="path36783" />
      <path
         d="m 440.52515,727.07543 c -0.50798,-0.7953 0.96924,-5.43824 3.3362,-10.48557 1.07,-2.28164 1.9455,-4.45717 1.9455,-4.83464 0,-0.37738 0.80799,-2.19309 1.79559,-4.03489 0.98751,-1.84194 1.98643,-4.1899 2.21971,-5.21783 0.51073,-2.25007 -0.50437,-4.34854 -2.10346,-4.34854 -1.50422,0 -2.08957,-1.51654 -0.94129,-2.43869 0.4931,-0.39607 0.8966,-1.04024 0.8966,-1.43163 0,-1.10099 -3.7341,-4.18215 -6.90365,-5.6964 -1.57199,-0.75097 -3.59032,-2.02247 -4.48511,-2.82529 -0.89479,-0.80284 -1.91923,-1.45978 -2.27648,-1.45978 -0.35725,0 -0.64952,-0.27957 -0.64952,-0.62114 0,-0.95796 4.37795,-0.45534 7.15739,0.82174 6.22062,2.85823 11.21828,6.406 13.04969,9.26365 1.01581,1.58505 2.24394,3.17598 2.72916,3.53547 0.74479,0.55186 0.68761,0.83338 -0.36715,1.80681 -0.68718,0.63427 -1.41493,1.96617 -1.61714,2.9599 -0.20228,0.99374 -0.55553,2.7553 -0.78513,3.91465 -0.22953,1.15935 -0.92137,2.80193 -1.53741,3.65023 -0.61596,0.8483 -1.32348,2.33885 -1.57213,3.31242 -0.2487,0.97344 -1.97954,4.68339 -3.84631,8.24416 -2.44877,4.67099 -3.71088,6.47426 -4.53155,6.47426 -0.62556,0 -1.30669,-0.26498 -1.51351,-0.58889 z m -16.65722,-46.18665 c -4.53702,-2.20517 -4.77653,-2.66356 -3.20408,-6.13166 1.25747,-2.77321 1.50529,-3.36541 4.32306,-10.32932 2.37594,-5.87191 3.7453,-7.72945 4.88507,-6.62665 0.61697,0.597 0.0967,2.59302 -1.80558,6.92778 -0.43612,0.99374 -1.52285,4.08412 -2.41498,6.86758 -1.85091,5.77482 -1.72729,6.1687 2.50641,7.9851 2.79155,1.19775 3.81885,2.605 2.31045,3.16505 -1.4273,0.52998 -2.04507,0.35618 -6.60035,-1.85788 z"
         style="display:inline;fill:#ffffff;stroke:#ffffff;stroke-width:0.612234"
         id="path36755" />
      <path
         d="m 394.82369,718.4064 c -1.05213,-1.1573 -2.10164,-14.98468 -2.24824,-29.62036 -0.26661,-26.62595 -0.2991,-27.23 -1.50247,-27.93948 -0.96961,-0.57181 -1.59441,-0.15456 -4.35667,2.90894 -7.46315,8.27722 -10.87418,11.17875 -13.14188,11.17875 -2.19949,0 -0.52099,-2.34762 8.4487,-11.81655 10.19908,-10.76675 11.63709,-11.97451 13.55589,-11.38528 1.21444,0.37305 1.26411,0.9567 1.47765,17.36468 0.12157,9.33842 0.37986,23.75414 0.57396,32.03511 0.1942,8.28099 0.21785,15.64641 0.0523,16.36775 -0.39889,1.74164 -1.71959,2.16015 -2.85954,0.90644 z"
         style="display:inline;fill:#ffffff;stroke:#ffffff;stroke-width:0.612234"
         id="path36727" />
      <path
         d="m 344.48816,718.07055 c -0.88595,-0.99631 -1.15715,-2.07014 -1.00703,-3.98769 0.11288,-1.44333 0.0639,-3.99527 -0.10914,-5.67087 -0.31191,-3.022 -0.33963,-3.05759 -3.41146,-4.37887 -3.95109,-1.69937 -5.71771,-2.30591 -10.57918,-3.63191 -2.1696,-0.5917 -4.50425,-1.38892 -5.18812,-1.77138 -0.6838,-0.38256 -2.07687,-0.82242 -3.09574,-0.97746 -1.74216,-0.26519 -5.03316,-1.00008 -12.35604,-2.75906 -1.72195,-0.41366 -3.60896,-1.21531 -4.19325,-1.78136 -0.64952,-0.62927 -1.85497,-1.03113 -3.10189,-1.03399 -1.46102,-0.003 -2.38208,-0.38979 -3.24701,-1.3624 -1.52094,-1.71023 -1.43687,-3.29988 0.25489,-4.81519 0.72617,-0.65057 1.33184,-1.36805 1.34593,-1.59446 0.0142,-0.22635 1.28071,-1.42294 2.81472,-2.65914 1.53403,-1.23617 5.60176,-4.62309 9.03944,-7.5262 3.43768,-2.90322 7.31274,-6.11384 8.61132,-7.13482 1.29852,-1.02099 4.86023,-4.16468 7.91495,-6.98598 6.58909,-6.0856 10.44904,-9.00928 11.66703,-8.83704 1.35994,0.19229 1.83376,2.93555 2.77041,16.03783 0.18076,2.52849 0.55314,5.30617 0.82751,6.17271 0.48274,1.5245 1.05096,6.23913 1.46497,12.15436 0.11021,1.57502 0.56701,3.5116 1.01513,4.30353 0.44804,0.79191 0.73891,2.65765 0.64623,4.14588 -0.0926,1.48833 0.1295,4.29721 0.49372,6.24172 0.36421,1.94463 0.88329,5.14296 1.15359,7.10734 0.2702,1.96435 0.66728,3.8165 0.88226,4.11586 1.80878,2.51851 2.13028,7.19519 0.52861,7.6888 -2.10966,0.65019 -3.95973,0.26874 -5.14156,-1.06019 z m -3.16299,-19.92311 c 0.17505,-2.81204 -0.52254,-4.5185 -2.04825,-5.01006 l -1.53071,-0.4933 1.47668,-1.22629 c 0.81219,-0.67449 1.48958,-1.76501 1.50533,-2.42342 0.069,-2.88265 -0.65003,-9.87228 -1.14535,-11.13356 -0.29817,-0.75936 -0.70436,-3.92638 -0.90262,-7.03804 -0.31488,-4.94193 -0.60155,-7.3392 -1.49514,-12.50378 -0.20155,-1.16485 -0.23478,-1.16982 -1.72766,-0.26108 -1.66306,1.01246 -13.06565,10.74212 -13.42892,11.45871 -0.12362,0.24379 -1.31273,1.32241 -2.64256,2.39704 -4.91114,3.96849 -14.30247,11.96927 -15.69198,13.36841 -1.61752,1.62875 -1.21248,3.19862 0.82647,3.20332 0.64833,10e-4 1.31684,0.20407 1.48558,0.45009 0.16876,0.2461 1.40024,0.59538 2.73665,0.77624 1.63996,0.22194 2.9105,0.83192 3.90848,1.87628 0.81318,0.85123 1.78832,1.54832 2.1669,1.54919 0.37863,9e-4 1.81796,0.49242 3.19871,1.09241 1.38069,0.59991 3.92152,1.28511 5.64623,1.52263 4.36778,0.60132 12.34758,2.36851 13.67657,3.02882 0.60881,0.30241 1.73753,0.55832 2.50824,0.56875 1.06522,0.0142 1.41958,-0.27406 1.47735,-1.20236 z m -18.11774,-10.00481 c -0.35209,-1.06138 -0.9926,-2.38712 -1.42326,-2.94591 -0.43072,-0.55893 -0.72001,-2.02866 -0.64297,-3.26626 0.11543,-1.85419 0.49701,-2.51185 2.16856,-3.7374 1.70152,-1.2475 2.5523,-1.48601 5.27808,-1.47974 4.20428,0.01 5.82614,1.4514 6.0743,5.39961 0.16098,2.56203 0.0512,2.79834 -2.0214,4.35133 -2.50688,1.87838 -3.24382,1.28541 -1.17508,-0.9457 1.69616,-1.82934 1.87851,-3.67306 0.55254,-5.58652 -0.82322,-1.18797 -1.32306,-1.39671 -2.81513,-1.17591 -3.45815,0.51185 -5.72779,6.04935 -3.01127,7.34705 1.74215,0.83227 0.48966,3.97582 -1.58221,3.97107 -0.41902,-9.4e-4 -1.05003,-0.87017 -1.40216,-1.93162 z"
         style="display:inline;fill:#ffffff;stroke:#ffffff;stroke-width:0.566123"
         id="path36699" />
    </g>
  </g>
</svg>
